# Blender 3.4.1
# www.blender.org
o Cylinder.012
v 193.763046 -11.317026 -105.414787
v 193.757278 -9.342806 -106.030983
v 192.964996 -11.579700 -106.114906
v 192.849060 -9.641747 -106.827766
v 193.429550 -11.934508 -107.039207
v 193.377731 -10.045546 -107.879692
v 194.514694 -11.891120 -106.910339
v 194.612717 -9.996165 -107.733032
v 194.720795 -11.509495 -105.906395
v 194.847275 -9.561849 -106.590469
v 193.885696 -8.425501 -107.497597
v 193.866196 -12.116640 -106.090500
v 193.205765 -11.487833 -105.752754
v 193.746155 -10.597477 -104.695244
v 193.353790 -10.959189 -106.313690
v 193.914612 -9.995842 -105.333633
v 194.063431 -11.113636 -106.611351
v 194.722229 -10.171613 -105.672386
v 194.353973 -11.737732 -106.234367
v 195.052902 -10.881880 -105.243355
v 193.823914 -11.968998 -105.703728
v 194.449646 -11.145079 -104.639450
v 194.782410 -9.955045 -104.443817
v 193.601761 -11.668046 -106.369743
v 193.847595 -11.642097 -105.687798
v 193.118927 -9.814374 -105.308815
v 193.080338 -11.953351 -105.774170
v 192.245743 -10.168602 -105.407112
v 192.931717 -11.889480 -106.549606
v 192.076584 -10.095912 -106.289612
v 193.607117 -11.538752 -106.942482
v 192.845230 -9.696758 -106.736732
v 194.173157 -11.385861 -106.409859
v 193.489426 -9.522758 -106.130569
v 192.235672 -8.643819 -105.766869
v 193.714630 -12.131104 -106.337585
vn -0.6831 0.2158 0.6977
vn -0.9044 -0.1939 -0.3801
vn 0.1238 -0.4006 -0.9079
vn 0.1079 0.1960 -0.9746
vn 0.9806 -0.1186 -0.1562
vn 0.4819 0.2624 0.8361
vn -0.5120 -0.8560 0.0713
vn -0.5806 0.7122 0.3946
vn 0.4129 0.7555 0.5087
vn -0.7681 0.3649 -0.5261
vn 0.8341 0.4366 -0.3372
vn 0.0647 -0.9741 -0.2168
vn 0.2655 -0.6021 0.7530
vn -0.3897 -0.6232 0.6780
vn 0.5383 -0.8185 0.2006
vn -0.9092 0.3948 0.1322
vn -0.1163 0.7408 -0.6616
vn 0.8084 0.0210 -0.5883
vn 0.9248 0.3644 -0.1095
vn 0.5870 -0.7698 0.2508
vn -0.4746 -0.5387 0.6961
vn -0.3983 -0.0670 -0.9148
vn -0.5412 0.6786 0.4967
vn -0.1667 -0.1144 0.9794
vn 0.1372 0.9743 -0.1785
vn 0.7369 -0.3052 0.6031
vn 0.1131 -0.4746 -0.8729
vn -0.5991 -0.7855 -0.1551
vn -0.8455 -0.2588 -0.4671
vn -0.0110 -0.9126 -0.4087
vn -0.0239 -0.2121 0.9770
vn -0.8869 -0.4422 0.1336
vn -0.4639 -0.0935 -0.8809
vn -0.5966 0.3289 -0.7320
vn 0.5984 0.3291 -0.7305
vn 0.8496 0.2415 0.4688
vn -0.2890 -0.9570 -0.0234
vn -0.1982 0.2238 0.9543
vn 0.5908 0.6387 0.4930
vn -0.9808 0.0386 0.1912
vn 0.3476 0.7361 -0.5807
vn -0.0327 -0.7170 -0.6963
vn 0.8426 -0.4988 0.2029
vn 0.2616 -0.7962 0.5456
vn 0.6694 -0.4678 -0.5771
vt 1.000000 0.500000
vt 0.750000 0.490000
vt 0.000000 0.500000
vt 0.250000 0.490000
vt 1.000000 1.000000
vt 0.000000 1.000000
vt 0.978254 0.324164
vt 0.800000 0.500000
vt 0.478254 0.324164
vt 0.800000 1.000000
vt 0.600000 0.500000
vt 0.891068 0.055836
vt 0.391068 0.055836
vt 0.600000 1.000000
vt 0.608932 0.055836
vt 0.400000 0.500000
vt 0.108932 0.055836
vt 0.400000 1.000000
vt 0.521746 0.324164
vt 0.200000 0.500000
vt 0.021746 0.324164
vt 0.200000 1.000000
vt 0.303883 0.324164
vt 0.837185 0.221672
vt 0.000000 0.500000
vt 0.750000 0.490000
vt 1.000000 0.500000
vt 0.250000 0.490000
vt 1.000000 1.000000
vt 0.000000 1.000000
vt 0.800000 0.500000
vt 0.978254 0.324164
vt 0.478254 0.324164
vt 0.800000 1.000000
vt 0.891068 0.055836
vt 0.600000 0.500000
vt 0.391068 0.055836
vt 0.600000 1.000000
vt 0.608932 0.055836
vt 0.400000 0.500000
vt 0.108932 0.055836
vt 0.400000 1.000000
vt 0.521746 0.324164
vt 0.200000 0.500000
vt 0.021746 0.324164
vt 0.200000 1.000000
vt 0.303883 0.324164
vt 0.837185 0.221672
vt 1.000000 0.500000
vt 0.750000 0.490000
vt 0.000000 0.500000
vt 0.250000 0.490000
vt 1.000000 1.000000
vt 0.000000 1.000000
vt 0.978254 0.324164
vt 0.800000 0.500000
vt 0.478254 0.324164
vt 0.800000 1.000000
vt 0.891068 0.055836
vt 0.600000 0.500000
vt 0.391068 0.055836
vt 0.600000 1.000000
vt 0.400000 0.500000
vt 0.608932 0.055836
vt 0.108932 0.055836
vt 0.400000 1.000000
vt 0.521746 0.324164
vt 0.200000 0.500000
vt 0.021746 0.324164
vt 0.200000 1.000000
vt 0.303883 0.324164
vt 0.837185 0.221672
s 0
f 2/5/1 3/8/1 1/1/1
f 3/8/2 6/14/2 5/11/2
f 6/14/3 7/16/3 5/11/3
f 8/17/4 6/13/4 11/23/4
f 8/18/5 9/20/5 7/16/5
f 10/22/6 1/3/6 9/20/6
f 3/7/7 5/12/7 12/24/7
f 4/9/8 2/4/8 11/23/8
f 2/4/9 10/21/9 11/23/9
f 6/13/10 4/9/10 11/23/10
f 10/21/11 8/17/11 11/23/11
f 7/15/12 12/24/12 5/12/12
f 9/19/13 1/2/13 12/24/13
f 1/2/14 3/7/14 12/24/14
f 7/15/15 9/19/15 12/24/15
f 13/27/16 16/34/16 15/31/16
f 16/34/17 17/36/17 15/31/17
f 18/38/18 19/40/18 17/36/18
f 20/41/19 18/37/19 23/47/19
f 20/42/20 21/44/20 19/40/20
f 21/44/21 14/30/21 13/25/21
f 15/32/22 17/35/22 24/48/22
f 16/33/23 14/28/23 23/47/23
f 14/28/24 22/45/24 23/47/24
f 18/37/25 16/33/25 23/47/25
f 22/45/26 20/41/26 23/47/26
f 19/39/27 24/48/27 17/35/27
f 21/43/28 13/26/28 24/48/28
f 13/26/29 15/32/29 24/48/29
f 19/39/30 21/43/30 24/48/30
f 26/53/31 27/56/31 25/49/31
f 27/56/32 30/62/32 29/60/32
f 29/60/33 32/66/33 31/63/33
f 32/65/34 30/61/34 35/71/34
f 32/66/35 33/68/35 31/63/35
f 34/70/36 25/51/36 33/68/36
f 27/55/37 29/59/37 36/72/37
f 28/57/38 26/52/38 35/71/38
f 26/52/39 34/69/39 35/71/39
f 30/61/40 28/57/40 35/71/40
f 34/69/41 32/65/41 35/71/41
f 31/64/42 36/72/42 29/59/42
f 33/67/43 25/50/43 36/72/43
f 25/50/44 27/55/44 36/72/44
f 31/64/45 33/67/45 36/72/45
f 2/5/1 4/10/1 3/8/1
f 3/8/2 4/10/2 6/14/2
f 6/14/3 8/18/3 7/16/3
f 8/18/5 10/22/5 9/20/5
f 10/22/6 2/6/6 1/3/6
f 13/27/16 14/29/16 16/34/16
f 16/34/17 18/38/17 17/36/17
f 18/38/18 20/42/18 19/40/18
f 20/42/20 22/46/20 21/44/20
f 21/44/21 22/46/21 14/30/21
f 26/53/31 28/58/31 27/56/31
f 27/56/32 28/58/32 30/62/32
f 29/60/33 30/62/33 32/66/33
f 32/66/35 34/70/35 33/68/35
f 34/70/36 26/54/36 25/51/36
