# Blender 3.4.1
# www.blender.org
o Cylinder.013
v 183.835022 -11.253201 -105.753716
v 183.835022 -8.581502 -105.587463
v 182.689850 -11.253201 -106.585732
v 182.531738 -8.581502 -106.534355
v 183.127274 -11.253201 -107.931961
v 183.029556 -8.581502 -108.066460
v 184.542786 -11.253201 -107.931961
v 184.640503 -8.581502 -108.066460
v 184.980194 -11.253201 -106.585732
v 185.138321 -8.581502 -106.534355
v 183.823380 -6.795114 -106.947388
v 183.823395 -11.908075 -106.947388
v 182.767441 -10.716218 -107.386009
v 182.187347 -9.809951 -108.052307
v 182.932602 -11.052381 -107.940636
v 182.375320 -10.192528 -108.683510
v 183.543732 -10.854336 -108.128227
v 183.070831 -9.967139 -108.897003
v 183.756256 -10.395776 -107.689545
v 183.312714 -9.445264 -108.397751
v 183.276489 -10.310414 -107.230827
v 182.766693 -9.348116 -107.875702
v 182.393784 -9.146196 -108.854553
v 183.375000 -10.893878 -107.503052
v 184.339584 -12.127559 -107.184540
v 185.443054 -10.781849 -107.998291
v 183.901825 -11.448885 -106.568283
v 184.944839 -10.009468 -107.296944
v 183.055847 -11.114206 -107.020309
v 183.982056 -9.628579 -107.811386
v 182.970779 -11.586038 -107.915947
v 183.885239 -10.165558 -108.830681
v 183.764175 -12.212324 -108.017441
v 184.788177 -10.878318 -108.946198
v 185.285843 -9.353129 -108.726547
v 183.367828 -12.042044 -107.127815
v 183.493896 -11.285606 -105.945412
v 184.756866 -10.669380 -104.635483
v 183.505081 -10.393070 -106.430466
v 184.769608 -9.653609 -105.187508
v 184.202896 -10.444754 -107.166954
v 185.563751 -9.712429 -106.025688
v 184.622971 -11.369232 -107.137077
v 186.041840 -10.764552 -105.991684
v 184.184784 -11.888907 -106.382126
v 185.543152 -11.355981 -105.132492
v 186.218552 -9.994042 -104.574753
v 183.667297 -11.228654 -106.905388
v 183.885269 -11.519936 -106.243813
v 183.101105 -9.488851 -104.834450
v 182.870758 -11.861453 -106.366684
v 181.946518 -9.877522 -104.974289
v 182.564896 -11.427649 -107.243866
v 181.598419 -9.383822 -105.972588
v 183.390381 -10.818027 -107.663124
v 182.537888 -8.690027 -106.449730
v 184.206421 -10.875063 -107.045052
v 183.466599 -8.754938 -105.746323
v 181.957016 -7.867632 -104.705620
v 183.590286 -11.812620 -107.226097
vn -0.5870 -0.0503 0.8080
vn -0.9499 -0.0503 -0.3086
vn -0.0000 -0.0503 -0.9987
vn -0.0000 0.5309 -0.8474
vn 0.9499 -0.0503 -0.3086
vn 0.5870 -0.0503 0.8080
vn -0.5336 -0.8278 -0.1734
vn -0.5013 0.5220 0.6900
vn 0.4996 0.5268 0.6877
vn -0.8097 0.5246 -0.2631
vn 0.8052 0.5322 -0.2616
vn -0.0000 -0.8326 -0.5538
vn 0.3283 -0.8295 0.4519
vn -0.3315 -0.8258 0.4563
vn 0.5253 -0.8336 -0.1707
vn -0.8584 -0.5101 0.0535
vn -0.0168 -0.6599 -0.7512
vn 0.8763 0.0521 -0.4790
vn 0.5108 0.4588 -0.7271
vn 0.5865 0.6418 0.4940
vn -0.4856 0.2944 0.8231
vn 0.3151 -0.9487 0.0250
vn -0.9624 -0.0272 -0.2701
vn -0.6445 0.6623 0.3821
vn -0.2446 -0.1522 -0.9576
vn 0.2639 0.9596 0.0974
vn 0.8126 -0.5529 0.1843
vn 0.0537 -0.4147 0.9084
vn -0.1611 -0.8645 0.4760
vn 0.6515 -0.2277 0.7237
vn 0.7084 -0.1660 0.6860
vn -0.2086 0.5578 0.8033
vn -0.8736 0.4598 -0.1593
vn -0.4415 0.8105 -0.3850
vn -0.3677 -0.3245 -0.8715
vn 0.6101 -0.7113 -0.3491
vn -0.5351 -0.2726 0.7996
vn 0.9003 0.2722 0.3397
vn 0.8169 -0.1880 -0.5452
vn 0.1188 0.8913 0.4375
vn -0.0112 0.1461 -0.9892
vn -0.9051 -0.3347 0.2623
vn -0.0777 -0.9850 0.1539
vn -0.0168 -0.6781 0.7348
vn -0.6245 -0.7700 -0.1309
vn -0.7527 0.3216 0.5744
vn -0.2463 0.9222 -0.2981
vn 0.5522 0.2250 -0.8028
vn 0.8673 0.3839 -0.3169
vn 0.5393 -0.8066 -0.2422
vn -0.2672 -0.7468 0.6090
vn -0.6943 0.2490 -0.6753
vn -0.2500 0.4647 0.8494
vn 0.1686 -0.4440 0.8800
vn 0.1846 0.9770 0.1063
vn 0.8568 -0.4903 0.1598
vn -0.2533 -0.1460 -0.9563
vn -0.7066 -0.6873 -0.1684
vn -0.9795 -0.0867 -0.1821
vn -0.2621 -0.7172 -0.6458
vn 0.0830 -0.5463 0.8335
vn -0.8818 -0.4652 0.0774
vn -0.5678 0.2242 -0.7920
vn -0.6652 0.5651 -0.4880
vn 0.5208 0.5707 -0.6349
vn 0.9079 0.0629 0.4145
vn -0.3275 -0.8873 -0.3246
vn -0.0754 -0.1317 0.9884
vn 0.6696 0.4241 0.6097
vn -0.9491 -0.0368 0.3127
vn 0.3057 0.8964 -0.3209
vn -0.1430 -0.4221 -0.8952
vn 0.8402 -0.5342 -0.0932
vn 0.2922 -0.9370 0.1914
vn 0.5776 -0.2283 -0.7837
vt 1.000000 0.500000
vt 0.750000 0.490000
vt 0.000000 0.500000
vt 0.250000 0.490000
vt 1.000000 1.000000
vt 0.000000 1.000000
vt 0.978254 0.324164
vt 0.800000 0.500000
vt 0.478254 0.324164
vt 0.800000 1.000000
vt 0.891068 0.055836
vt 0.600000 0.500000
vt 0.391068 0.055836
vt 0.600000 1.000000
vt 0.608932 0.055836
vt 0.400000 0.500000
vt 0.108932 0.055836
vt 0.400000 1.000000
vt 0.521746 0.324164
vt 0.200000 0.500000
vt 0.021746 0.324164
vt 0.200000 1.000000
vt 0.303883 0.324164
vt 0.837185 0.221672
vt 1.000000 0.500000
vt 0.750000 0.490000
vt 0.000000 0.500000
vt 0.250000 0.490000
vt 1.000000 1.000000
vt 0.000000 1.000000
vt 0.978254 0.324164
vt 0.800000 0.500000
vt 0.478254 0.324164
vt 0.800000 1.000000
vt 0.891068 0.055836
vt 0.600000 0.500000
vt 0.391068 0.055836
vt 0.600000 1.000000
vt 0.608932 0.055836
vt 0.400000 0.500000
vt 0.108932 0.055836
vt 0.400000 1.000000
vt 0.200000 0.500000
vt 0.521746 0.324164
vt 0.021746 0.324164
vt 0.200000 1.000000
vt 0.303883 0.324164
vt 0.837185 0.221672
vt 0.000000 0.500000
vt 0.750000 0.490000
vt 1.000000 0.500000
vt 0.250000 0.490000
vt 1.000000 1.000000
vt 0.000000 1.000000
vt 0.978254 0.324164
vt 0.800000 0.500000
vt 0.478254 0.324164
vt 0.800000 1.000000
vt 0.600000 0.500000
vt 0.891068 0.055836
vt 0.391068 0.055836
vt 0.600000 1.000000
vt 0.608932 0.055836
vt 0.400000 0.500000
vt 0.108932 0.055836
vt 0.400000 1.000000
vt 0.521746 0.324164
vt 0.200000 0.500000
vt 0.021746 0.324164
vt 0.200000 1.000000
vt 0.303883 0.324164
vt 0.837185 0.221672
vt 0.000000 0.500000
vt 0.750000 0.490000
vt 1.000000 0.500000
vt 0.250000 0.490000
vt 1.000000 1.000000
vt 0.000000 1.000000
vt 0.800000 0.500000
vt 0.978254 0.324164
vt 0.478254 0.324164
vt 0.800000 1.000000
vt 0.891068 0.055836
vt 0.600000 0.500000
vt 0.391068 0.055836
vt 0.600000 1.000000
vt 0.608932 0.055836
vt 0.400000 0.500000
vt 0.108932 0.055836
vt 0.400000 1.000000
vt 0.521746 0.324164
vt 0.200000 0.500000
vt 0.021746 0.324164
vt 0.200000 1.000000
vt 0.303883 0.324164
vt 0.837185 0.221672
vt 1.000000 0.500000
vt 0.750000 0.490000
vt 0.000000 0.500000
vt 0.250000 0.490000
vt 1.000000 1.000000
vt 0.000000 1.000000
vt 0.978254 0.324164
vt 0.800000 0.500000
vt 0.478254 0.324164
vt 0.800000 1.000000
vt 0.891068 0.055836
vt 0.600000 0.500000
vt 0.391068 0.055836
vt 0.600000 1.000000
vt 0.400000 0.500000
vt 0.608932 0.055836
vt 0.108932 0.055836
vt 0.400000 1.000000
vt 0.521746 0.324164
vt 0.200000 0.500000
vt 0.021746 0.324164
vt 0.200000 1.000000
vt 0.303883 0.324164
vt 0.837185 0.221672
s 0
f 2/5/1 3/8/1 1/1/1
f 4/10/2 5/12/2 3/8/2
f 6/14/3 7/16/3 5/12/3
f 8/17/4 6/13/4 11/23/4
f 8/18/5 9/20/5 7/16/5
f 10/22/6 1/3/6 9/20/6
f 3/7/7 5/11/7 12/24/7
f 4/9/8 2/4/8 11/23/8
f 2/4/9 10/21/9 11/23/9
f 6/13/10 4/9/10 11/23/10
f 10/21/11 8/17/11 11/23/11
f 7/15/12 12/24/12 5/11/12
f 9/19/13 1/2/13 12/24/13
f 1/2/14 3/7/14 12/24/14
f 7/15/15 9/19/15 12/24/15
f 14/29/16 15/32/16 13/25/16
f 15/32/17 18/38/17 17/36/17
f 17/36/18 20/42/18 19/40/18
f 20/41/19 18/37/19 23/47/19
f 19/40/20 22/46/20 21/43/20
f 22/46/21 13/27/21 21/43/21
f 15/31/22 17/35/22 24/48/22
f 16/33/23 14/28/23 23/47/23
f 14/28/24 22/45/24 23/47/24
f 18/37/25 16/33/25 23/47/25
f 22/45/26 20/41/26 23/47/26
f 19/39/27 24/48/27 17/35/27
f 21/44/28 13/26/28 24/48/28
f 13/26/29 15/31/29 24/48/29
f 19/39/30 21/44/30 24/48/30
f 25/51/31 28/58/31 27/56/31
f 27/56/32 30/62/32 29/59/32
f 30/62/33 31/64/33 29/59/33
f 32/65/34 30/61/34 35/71/34
f 32/66/35 33/68/35 31/64/35
f 33/68/36 26/54/36 25/49/36
f 27/55/37 29/60/37 36/72/37
f 28/57/38 26/52/38 35/71/38
f 26/52/39 34/69/39 35/71/39
f 30/61/40 28/57/40 35/71/40
f 34/69/41 32/65/41 35/71/41
f 31/63/42 36/72/42 29/60/42
f 33/67/43 25/50/43 36/72/43
f 25/50/44 27/55/44 36/72/44
f 31/63/45 33/67/45 36/72/45
f 37/75/46 40/82/46 39/79/46
f 40/82/47 41/84/47 39/79/47
f 42/86/48 43/88/48 41/84/48
f 44/89/49 42/85/49 47/95/49
f 44/90/50 45/92/50 43/88/50
f 45/92/51 38/78/51 37/73/51
f 39/80/52 41/83/52 48/96/52
f 40/81/53 38/76/53 47/95/53
f 38/76/54 46/93/54 47/95/54
f 42/85/55 40/81/55 47/95/55
f 46/93/56 44/89/56 47/95/56
f 43/87/57 48/96/57 41/83/57
f 45/91/58 37/74/58 48/96/58
f 37/74/59 39/80/59 48/96/59
f 43/87/60 45/91/60 48/96/60
f 50/101/61 51/104/61 49/97/61
f 51/104/62 54/110/62 53/108/62
f 53/108/63 56/114/63 55/111/63
f 56/113/64 54/109/64 59/119/64
f 56/114/65 57/116/65 55/111/65
f 58/118/66 49/99/66 57/116/66
f 51/103/67 53/107/67 60/120/67
f 52/105/68 50/100/68 59/119/68
f 50/100/69 58/117/69 59/119/69
f 54/109/70 52/105/70 59/119/70
f 58/117/71 56/113/71 59/119/71
f 55/112/72 60/120/72 53/107/72
f 57/115/73 49/98/73 60/120/73
f 49/98/74 51/103/74 60/120/74
f 55/112/75 57/115/75 60/120/75
f 2/5/1 4/10/1 3/8/1
f 4/10/2 6/14/2 5/12/2
f 6/14/3 8/18/3 7/16/3
f 8/18/5 10/22/5 9/20/5
f 10/22/6 2/6/6 1/3/6
f 14/29/16 16/34/16 15/32/16
f 15/32/17 16/34/17 18/38/17
f 17/36/18 18/38/18 20/42/18
f 19/40/20 20/42/20 22/46/20
f 22/46/21 14/30/21 13/27/21
f 25/51/31 26/53/31 28/58/31
f 27/56/32 28/58/32 30/62/32
f 30/62/33 32/66/33 31/64/33
f 32/66/35 34/70/35 33/68/35
f 33/68/36 34/70/36 26/54/36
f 37/75/46 38/77/46 40/82/46
f 40/82/47 42/86/47 41/84/47
f 42/86/48 44/90/48 43/88/48
f 44/90/50 46/94/50 45/92/50
f 45/92/51 46/94/51 38/78/51
f 50/101/61 52/106/61 51/104/61
f 51/104/62 52/106/62 54/110/62
f 53/108/63 54/110/63 56/114/63
f 56/114/65 58/118/65 57/116/65
f 58/118/66 50/102/66 49/99/66
