# Blender 3.4.1
# www.blender.org
o Cylinder.015
v 201.126892 -11.688330 -96.638702
v 201.171768 -10.230844 -96.209656
v 200.461365 -11.570397 -97.073669
v 200.414352 -10.096627 -96.704689
v 200.683807 -11.404690 -97.828049
v 200.667511 -9.908040 -97.563225
v 201.486816 -11.420209 -97.859314
v 201.581375 -9.925703 -97.598801
v 201.760651 -11.595509 -97.124252
v 201.893036 -10.125206 -96.762253
v 201.167084 -9.069873 -96.736320
v 201.087280 -11.899434 -97.381393
v 200.462921 -11.181250 -97.380203
v 200.083099 -10.587847 -97.816475
v 200.571075 -11.401361 -97.743355
v 200.206177 -10.838349 -98.229774
v 200.971222 -11.271686 -97.866188
v 200.661575 -10.690769 -98.369568
v 201.110382 -10.971431 -97.578949
v 200.819962 -10.349058 -98.042664
v 200.796234 -10.915538 -97.278595
v 200.462433 -10.285448 -97.700836
v 200.218262 -10.153235 -98.341766
v 200.860748 -11.297577 -97.456841
v 201.492340 -12.105362 -97.248283
v 202.214859 -11.224222 -97.781113
v 201.205704 -11.660982 -96.844772
v 201.888641 -10.718486 -97.321884
v 200.651764 -11.441842 -97.140755
v 201.258224 -10.469089 -97.658730
v 200.596069 -11.750787 -97.727188
v 201.194839 -10.820690 -98.326141
v 201.115570 -12.160865 -97.793648
v 201.786072 -11.287388 -98.401772
v 202.111923 -10.288731 -98.257950
v 200.856049 -12.049369 -97.211143
vn -0.5607 -0.2179 0.7988
vn -0.9607 0.0382 -0.2749
vn -0.0350 0.1738 -0.9842
vn -0.0139 0.7064 -0.7077
vn 0.9372 0.0015 -0.3488
vn 0.6123 -0.2406 0.7532
vn -0.5616 -0.7578 -0.3321
vn -0.4633 0.3646 0.8077
vn 0.5367 0.3504 0.7676
vn -0.8033 0.5856 -0.1082
vn 0.8103 0.5615 -0.1679
vn -0.0415 -0.6880 -0.7245
vn 0.3204 -0.9156 0.2432
vn -0.3386 -0.9002 0.2739
vn 0.4961 -0.7845 -0.3719
vn -0.8584 -0.5101 0.0535
vn -0.0168 -0.6599 -0.7512
vn 0.8763 0.0521 -0.4790
vn 0.5108 0.4588 -0.7271
vn 0.5865 0.6418 0.4940
vn -0.4856 0.2944 0.8231
vn 0.3151 -0.9487 0.0250
vn -0.9624 -0.0272 -0.2701
vn -0.6445 0.6623 0.3821
vn -0.2446 -0.1522 -0.9576
vn 0.2639 0.9596 0.0974
vn 0.8126 -0.5529 0.1843
vn 0.0537 -0.4147 0.9084
vn -0.1611 -0.8645 0.4760
vn 0.6515 -0.2277 0.7237
vn 0.7084 -0.1660 0.6860
vn -0.2086 0.5578 0.8033
vn -0.8736 0.4598 -0.1593
vn -0.4415 0.8105 -0.3850
vn -0.3677 -0.3245 -0.8715
vn 0.6101 -0.7113 -0.3491
vn -0.5351 -0.2726 0.7996
vn 0.9003 0.2722 0.3397
vn 0.8169 -0.1880 -0.5452
vn 0.1188 0.8913 0.4375
vn -0.0112 0.1461 -0.9892
vn -0.9051 -0.3347 0.2623
vn -0.0777 -0.9850 0.1539
vn -0.0168 -0.6781 0.7348
vn -0.6245 -0.7700 -0.1309
vt 1.000000 0.500000
vt 0.750000 0.490000
vt 0.000000 0.500000
vt 0.250000 0.490000
vt 1.000000 1.000000
vt 0.000000 1.000000
vt 0.978254 0.324164
vt 0.800000 0.500000
vt 0.478254 0.324164
vt 0.800000 1.000000
vt 0.891068 0.055836
vt 0.600000 0.500000
vt 0.391068 0.055836
vt 0.600000 1.000000
vt 0.608932 0.055836
vt 0.400000 0.500000
vt 0.108932 0.055836
vt 0.400000 1.000000
vt 0.521746 0.324164
vt 0.200000 0.500000
vt 0.021746 0.324164
vt 0.200000 1.000000
vt 0.303883 0.324164
vt 0.837185 0.221672
vt 1.000000 0.500000
vt 0.750000 0.490000
vt 0.000000 0.500000
vt 0.250000 0.490000
vt 1.000000 1.000000
vt 0.000000 1.000000
vt 0.978254 0.324164
vt 0.800000 0.500000
vt 0.478254 0.324164
vt 0.800000 1.000000
vt 0.891068 0.055836
vt 0.600000 0.500000
vt 0.391068 0.055836
vt 0.600000 1.000000
vt 0.608932 0.055836
vt 0.400000 0.500000
vt 0.108932 0.055836
vt 0.400000 1.000000
vt 0.200000 0.500000
vt 0.521746 0.324164
vt 0.021746 0.324164
vt 0.200000 1.000000
vt 0.303883 0.324164
vt 0.837185 0.221672
vt 0.000000 0.500000
vt 0.750000 0.490000
vt 1.000000 0.500000
vt 0.250000 0.490000
vt 1.000000 1.000000
vt 0.000000 1.000000
vt 0.978254 0.324164
vt 0.800000 0.500000
vt 0.478254 0.324164
vt 0.800000 1.000000
vt 0.600000 0.500000
vt 0.891068 0.055836
vt 0.391068 0.055836
vt 0.600000 1.000000
vt 0.608932 0.055836
vt 0.400000 0.500000
vt 0.108932 0.055836
vt 0.400000 1.000000
vt 0.521746 0.324164
vt 0.200000 0.500000
vt 0.021746 0.324164
vt 0.200000 1.000000
vt 0.303883 0.324164
vt 0.837185 0.221672
s 0
f 2/5/1 3/8/1 1/1/1
f 4/10/2 5/12/2 3/8/2
f 6/14/3 7/16/3 5/12/3
f 8/17/4 6/13/4 11/23/4
f 8/18/5 9/20/5 7/16/5
f 10/22/6 1/3/6 9/20/6
f 3/7/7 5/11/7 12/24/7
f 4/9/8 2/4/8 11/23/8
f 2/4/9 10/21/9 11/23/9
f 6/13/10 4/9/10 11/23/10
f 10/21/11 8/17/11 11/23/11
f 7/15/12 12/24/12 5/11/12
f 9/19/13 1/2/13 12/24/13
f 1/2/14 3/7/14 12/24/14
f 7/15/15 9/19/15 12/24/15
f 14/29/16 15/32/16 13/25/16
f 15/32/17 18/38/17 17/36/17
f 17/36/18 20/42/18 19/40/18
f 20/41/19 18/37/19 23/47/19
f 19/40/20 22/46/20 21/43/20
f 22/46/21 13/27/21 21/43/21
f 15/31/22 17/35/22 24/48/22
f 16/33/23 14/28/23 23/47/23
f 14/28/24 22/45/24 23/47/24
f 18/37/25 16/33/25 23/47/25
f 22/45/26 20/41/26 23/47/26
f 19/39/27 24/48/27 17/35/27
f 21/44/28 13/26/28 24/48/28
f 13/26/29 15/31/29 24/48/29
f 19/39/30 21/44/30 24/48/30
f 25/51/31 28/58/31 27/56/31
f 27/56/32 30/62/32 29/59/32
f 30/62/33 31/64/33 29/59/33
f 32/65/34 30/61/34 35/71/34
f 32/66/35 33/68/35 31/64/35
f 33/68/36 26/54/36 25/49/36
f 27/55/37 29/60/37 36/72/37
f 28/57/38 26/52/38 35/71/38
f 26/52/39 34/69/39 35/71/39
f 30/61/40 28/57/40 35/71/40
f 34/69/41 32/65/41 35/71/41
f 31/63/42 36/72/42 29/60/42
f 33/67/43 25/50/43 36/72/43
f 25/50/44 27/55/44 36/72/44
f 31/63/45 33/67/45 36/72/45
f 2/5/1 4/10/1 3/8/1
f 4/10/2 6/14/2 5/12/2
f 6/14/3 8/18/3 7/16/3
f 8/18/5 10/22/5 9/20/5
f 10/22/6 2/6/6 1/3/6
f 14/29/16 16/34/16 15/32/16
f 15/32/17 16/34/17 18/38/17
f 17/36/18 18/38/18 20/42/18
f 19/40/20 20/42/20 22/46/20
f 22/46/21 14/30/21 13/27/21
f 25/51/31 26/53/31 28/58/31
f 27/56/32 28/58/32 30/62/32
f 30/62/33 32/66/33 31/64/33
f 32/66/35 34/70/35 33/68/35
f 33/68/36 34/70/36 26/54/36
