# Blender 3.4.1
# www.blender.org
o Cylinder.008
v 155.180710 -9.549719 -97.783005
v 155.048080 -8.623887 -98.197319
v 153.349625 -10.414596 -100.105446
v 153.266556 -9.817371 -100.140533
v 153.432373 -8.834513 -100.311943
v 154.624893 -10.991918 -98.636536
v 154.608505 -10.867264 -97.951035
v 152.742935 -12.116980 -99.110565
v 153.229828 -11.948655 -99.370216
v 152.683990 -12.193853 -98.188271
v 153.923248 -11.665989 -97.850838
v 154.767136 -9.798669 -98.919914
v 154.753693 -8.715707 -99.034912
v 155.203613 -9.839376 -98.075844
v 155.123627 -6.868998 -98.013496
v 155.441818 -5.740454 -97.914330
v 153.515060 -7.671615 -100.302452
v 154.981766 -6.903738 -98.432617
v 154.859146 -6.319318 -99.096664
v 155.244415 -5.307353 -97.583725
v 154.265656 -4.722353 -97.674423
v 153.393173 -5.660343 -99.707268
v 153.314484 -4.398934 -97.723480
v 155.052658 -9.468993 -97.118599
v 155.394104 -8.964634 -97.546738
v 154.940018 -8.694710 -95.774750
v 154.573349 -10.831457 -97.238480
v 153.037140 -11.821243 -96.629501
v 153.356613 -11.386744 -96.451393
v 153.022186 -10.542561 -95.959152
v 154.755814 -10.119908 -96.493454
v 154.720840 -9.197667 -96.502113
v 154.572418 -9.813015 -95.820656
v 154.672821 -8.931944 -95.851990
v 153.337448 -10.187883 -95.315437
v 153.297150 -10.052471 -95.228920
v 155.243454 -7.721020 -95.697197
v 155.375610 -5.577442 -97.015411
v 155.294952 -5.613547 -96.078583
v 154.732208 -5.025387 -96.973061
v 153.664841 -4.296003 -96.518341
v 154.061127 -4.983030 -95.609901
v 153.833450 -4.566723 -96.108650
v 152.394547 -4.909621 -96.186546
v 152.880081 -4.417746 -97.395958
v 152.617615 -5.513622 -95.153503
v 152.901489 -4.592950 -95.878563
v 153.937698 -7.496706 -94.945374
v 152.956345 -7.522302 -94.780518
v 152.635239 -6.756614 -95.087410
v 151.429611 -10.429086 -100.052658
v 151.663025 -9.647425 -99.947731
v 151.504303 -9.685589 -99.855331
v 152.034119 -11.723892 -99.299789
v 152.177444 -11.368819 -99.808556
v 152.323334 -12.053914 -97.243553
v 150.415619 -11.934419 -98.522087
v 151.467438 -11.322153 -100.008957
v 150.973480 -12.189180 -98.000336
v 150.351013 -8.319057 -99.255142
v 149.958206 -11.264511 -98.819542
v 150.244354 -10.533052 -98.788895
v 149.995148 -11.450441 -98.220772
v 150.044571 -11.029788 -97.821518
v 150.103592 -8.726804 -98.955933
v 151.619125 -7.571639 -100.263916
v 150.539352 -7.548272 -99.031853
v 150.625671 -6.583056 -99.135918
v 150.330078 -7.387549 -98.209503
v 150.429428 -5.936289 -97.758667
v 151.865448 -6.199827 -100.095993
v 152.250336 -4.974207 -98.064148
v 150.950928 -5.728065 -99.052444
v 150.917114 -5.526587 -98.760330
v 152.356201 -11.991756 -97.005043
v 151.571579 -11.667397 -96.391014
v 150.749649 -10.932318 -95.836464
v 150.905991 -10.609221 -95.507408
v 151.923111 -9.888985 -95.194603
v 151.253281 -10.138360 -95.399445
v 152.178864 -9.718328 -95.041779
v 149.794540 -10.663130 -97.147545
v 151.757919 -7.861259 -95.481499
v 150.338928 -6.154971 -97.422417
v 151.224808 -7.793200 -95.898483
v 151.393158 -5.297395 -96.275276
v 152.161179 -4.823576 -96.884193
v 151.725021 -5.526221 -95.733963
v 152.353134 -7.834840 -94.862953
vn 0.3439 -0.7522 -0.5620
vn -0.0508 -0.9987 0.0035
vn -0.0940 -0.9456 -0.3113
vn 0.8019 -0.5028 -0.3227
vn 0.5745 -0.8113 0.1079
vn 0.9452 0.0064 -0.3264
vn 0.9139 -0.0126 -0.4056
vn 0.2088 -0.1286 -0.9695
vn 0.9838 -0.0340 -0.1759
vn 0.8194 -0.5652 0.0955
vn 0.3393 -0.1154 -0.9336
vn 0.2371 0.6302 -0.7394
vn 0.7600 0.2802 -0.5864
vn 0.7400 -0.5985 0.3069
vn 0.0226 -0.6482 0.7611
vn 0.6929 0.6755 -0.2523
vn 0.5208 0.2237 -0.8239
vn 0.1756 -0.6728 0.7187
vn 0.3999 -0.5159 0.7576
vn 0.8886 -0.3179 0.3306
vn 0.7039 -0.3261 0.6310
vn 0.8086 -0.4158 0.4163
vn 0.9141 -0.1736 0.3663
vn 0.9816 -0.1799 -0.0633
vn 0.4864 -0.3109 0.8166
vn -0.3026 0.8173 0.4904
vn -0.4823 0.8086 0.3371
vn -0.2505 0.3915 0.8854
vn 0.3499 0.5725 0.7415
vn 0.3725 0.8351 0.4048
vn 0.2614 0.9500 0.1707
vn -0.3468 0.9307 -0.1158
vn -0.2211 -0.2127 0.9518
vn -0.0153 -0.8842 0.4669
vn -0.8373 0.0659 0.5427
vn 0.2452 -0.4501 0.8587
vn 0.3226 0.0031 0.9465
vn 0.0292 -0.6504 0.7591
vn 0.6771 -0.4278 0.5988
vn 0.8995 -0.1736 0.4009
vn -0.1508 -0.8952 -0.4193
vn -0.2161 -0.4107 -0.8858
vn 0.2432 -0.3616 -0.9001
vn -0.3026 -0.9478 0.1005
vn -0.5091 -0.8442 -0.1678
vn -0.9137 -0.3598 0.1890
vn -0.8574 0.0694 -0.5099
vn -0.9136 -0.0960 -0.3951
vn 0.1427 -0.5495 0.8232
vn 0.5606 0.8221 0.0994
vn 0.3618 0.5671 -0.7400
vn -0.2164 -0.3811 0.8989
vn 0.0112 -0.1049 0.9944
vn -0.5659 0.5835 -0.5825
vn -0.3683 0.8779 -0.3059
vn -0.6641 0.6437 0.3803
vn -0.8377 0.5426 -0.0621
vn -0.5389 0.7801 -0.3178
vn -0.3752 0.0609 -0.9249
vn -0.6012 0.0175 -0.7989
vn -0.9813 0.1211 -0.1496
vn -0.9287 0.2923 0.2281
vn 0.7475 -0.0787 -0.6596
vn 0.3434 -0.2292 -0.9108
vn -0.9502 -0.2716 0.1530
vn -0.7093 0.1303 0.6928
vn -0.5860 0.4208 0.6924
vn -0.8481 0.2296 -0.4775
vn -0.3987 0.0611 -0.9150
vn 0.8021 0.3906 0.4518
vn -0.2801 0.4661 -0.8392
vn 0.8260 0.0421 -0.5621
vn -0.9534 -0.2766 0.1204
vn -0.9212 0.0320 -0.3878
vn -0.8159 -0.0585 -0.5753
vn -0.3063 0.0134 -0.9518
vn 0.2592 -0.0742 -0.9630
vn -0.5772 0.0802 0.8127
vn -0.5375 0.1021 0.8371
vn -0.7476 0.0442 -0.6627
vn -0.4873 0.8723 0.0413
vn 0.9925 -0.0998 -0.0701
vn -0.0050 -0.9856 0.1687
vn 0.0509 0.9247 -0.3773
vn 0.9310 0.3562 0.0795
vn 0.9646 -0.0243 -0.2625
vn -0.0811 -0.4829 0.8719
vn -0.4213 -0.6056 0.6751
vn -0.2241 -0.2295 0.9471
s 1
f 9//1 10//2 8//3
f 6//4 11//5 9//1
f 15//6 2//7 12//8
f 6//4 14//9 7//10
f 5//11 22//12 19//13
f 27//14 28//15 11//5
f 15//6 20//16 16//17
f 27//14 30//18 29//19
f 32//20 33//21 31//22
f 32//20 24//23 25//24
f 26//25 32//20 25//24
f 47//26 44//27 46//28
f 47//26 42//29 43//30
f 47//26 41//31 45//32
f 80//33 75//34 29//19
f 89//35 36//36 48//37
f 35//38 34//39 37//40
f 54//41 58//42 55//43
f 54//41 59//44 57//45
f 63//46 62//47 61//48
f 63//46 57//45 76//49
f 40//50 21//51 43//30
f 36//36 79//52 30//18
f 46//28 49//53 48//37
f 22//12 73//54 72//55
f 86//56 72//55 70//57
f 74//58 68//59 70//57
f 35//38 27//14 31//22
f 53//60 58//42 62//47
f 69//61 84//62 68//59
f 13//63 6//4 3//64
f 82//65 85//66 88//67
f 67//68 73//54 66//69
f 39//70 48//37 37//40
f 8//3 55//43 9//1
f 10//2 54//41 8//3
f 71//71 17//72 66//69
f 64//73 65//74 62//47
f 51//75 52//76 4//77
f 50//78 83//79 79//52
f 60//80 69//61 67//68
f 87//81 44//27 45//32
f 88//67 44//27 86//56
f 50//78 89//35 49//53
f 9//1 55//43 51//75
f 1//82 25//24 24//23
f 14//9 27//14 7//10
f 24//23 14//9 1//82
f 56//83 76//49 59//44
f 23//84 41//31 21//51
f 20//16 38//85 16//17
f 23//84 20//16 19//13
f 66//69 5//11 4//77
f 28//15 56//83 10//2
f 72//55 45//32 23//84
f 38//85 37//40 26//25
f 9//1 11//5 10//2
f 6//4 7//10 11//5
f 12//8 13//63 19//13
f 19//13 20//16 18//86
f 15//6 16//17 38//85
f 12//8 19//13 18//86
f 15//6 38//85 25//24
f 12//8 18//86 15//6
f 1//82 14//9 12//8
f 15//6 25//24 2//7
f 2//7 1//82 12//8
f 6//4 12//8 14//9
f 19//13 13//63 5//11
f 5//11 17//72 22//12
f 11//5 7//10 27//14
f 27//14 29//19 28//15
f 28//15 10//2 11//5
f 15//6 18//86 20//16
f 32//20 34//39 33//21
f 32//20 31//22 24//23
f 26//25 34//39 32//20
f 47//26 45//32 44//27
f 47//26 46//28 42//29
f 47//26 43//30 41//31
f 30//18 79//52 80//33
f 80//33 78//87 77//88
f 77//88 76//49 75//34
f 75//34 28//15 29//19
f 29//19 30//18 80//33
f 80//33 77//88 75//34
f 48//37 49//53 89//35
f 89//35 81//89 36//36
f 48//37 36//36 35//38
f 35//38 33//21 34//39
f 34//39 26//25 37//40
f 37//40 48//37 35//38
f 54//41 57//45 58//42
f 54//41 56//83 59//44
f 63//46 64//73 62//47
f 76//49 77//88 82//65
f 76//49 82//65 64//73
f 57//45 59//44 76//49
f 63//46 61//48 57//45
f 76//49 64//73 63//46
f 43//30 42//29 39//70
f 39//70 38//85 40//50
f 40//50 20//16 21//51
f 21//51 41//31 43//30
f 43//30 39//70 40//50
f 30//18 35//38 36//36
f 36//36 81//89 79//52
f 48//37 42//29 46//28
f 46//28 50//78 49//53
f 72//55 23//84 22//12
f 22//12 71//71 73//54
f 73//54 74//58 72//55
f 70//57 84//62 86//56
f 86//56 87//81 72//55
f 72//55 74//58 70//57
f 74//58 73//54 68//59
f 31//22 33//21 35//38
f 35//38 30//18 27//14
f 65//74 60//80 66//69
f 66//69 52//76 53//60
f 53//60 51//75 58//42
f 58//42 57//45 61//48
f 62//47 65//74 66//69
f 58//42 61//48 62//47
f 62//47 66//69 53//60
f 69//61 65//74 64//73
f 64//73 82//65 84//62
f 84//62 70//57 68//59
f 68//59 67//68 69//61
f 69//61 64//73 84//62
f 4//77 5//11 13//63
f 13//63 12//8 6//4
f 6//4 9//1 3//64
f 3//64 4//77 13//63
f 86//56 84//62 82//65
f 82//65 77//88 78//87
f 78//87 80//33 85//66
f 85//66 83//79 88//67
f 88//67 86//56 82//65
f 82//65 78//87 85//66
f 66//69 60//80 67//68
f 67//68 68//59 73//54
f 73//54 71//71 66//69
f 39//70 42//29 48//37
f 8//3 54//41 55//43
f 10//2 56//83 54//41
f 71//71 22//12 17//72
f 4//77 3//64 51//75
f 51//75 53//60 52//76
f 81//89 89//35 50//78
f 50//78 46//28 88//67
f 83//79 85//66 80//33
f 50//78 88//67 83//79
f 79//52 81//89 50//78
f 83//79 80//33 79//52
f 60//80 65//74 69//61
f 87//81 86//56 44//27
f 88//67 46//28 44//27
f 51//75 3//64 9//1
f 55//43 58//42 51//75
f 1//82 2//7 25//24
f 14//9 31//22 27//14
f 24//23 31//22 14//9
f 56//83 75//34 76//49
f 23//84 45//32 41//31
f 20//16 40//50 38//85
f 19//13 22//12 23//84
f 23//84 21//51 20//16
f 4//77 52//76 66//69
f 66//69 17//72 5//11
f 28//15 75//34 56//83
f 72//55 87//81 45//32
f 26//25 25//24 38//85
f 38//85 39//70 37//40
