# Blender 3.4.1
# www.blender.org
o Cube.166
v 79.234566 -1.178397 -209.085739
v 78.859314 1.511036 -209.043137
v 78.918938 -1.195410 -206.396317
v 78.859314 1.511036 -206.771561
v 76.521996 -1.511036 -209.108871
v 76.587738 1.511036 -209.043137
v 76.528114 -1.195410 -206.396317
v 76.587738 1.511036 -206.771561
v 79.234566 1.178397 -209.085739
v 78.918938 1.195410 -206.396317
v 76.528114 1.195410 -206.396317
v 76.212486 1.179918 -209.087265
v 79.234566 1.178397 -206.728958
v 79.234566 -1.178397 -206.728958
v 76.521996 -1.511036 -206.705826
v 76.212486 1.179918 -206.727432
v 78.925056 -1.511036 -206.705826
v 78.925056 -1.511036 -209.108871
v 78.869476 1.145947 -209.418381
v 79.234566 1.511036 -206.396317
v 79.234566 -1.511036 -206.396317
v 78.869476 -1.145947 -209.418381
v 76.212486 -1.179918 -206.727432
v 76.212486 -1.179918 -209.087265
v 76.212486 1.511036 -206.396317
v 76.212486 -1.511036 -206.396317
v 76.577576 -1.145947 -209.418381
v 76.577576 1.145947 -209.418381
v 79.234566 -1.511036 -209.418381
v 79.234566 1.511036 -209.418381
v 76.212486 1.511036 -209.418381
v 76.212486 -1.511036 -209.418381
v 78.859314 1.350726 -209.043137
v 78.859314 1.350726 -206.771561
v 76.587738 1.350726 -206.771561
v 76.587738 1.350726 -209.043137
v 78.918938 1.195410 -206.556625
v 78.918938 -1.195410 -206.556625
v 76.528114 -1.195410 -206.556625
v 76.528114 1.195410 -206.556625
v 79.074249 -1.178397 -206.728958
v 79.074249 -1.178397 -209.085739
v 79.074249 1.178397 -209.085739
v 79.074249 1.178397 -206.728958
v 78.925056 -1.350726 -206.705826
v 78.925056 -1.350726 -209.108871
v 76.521996 -1.350726 -206.705826
v 76.521996 -1.350726 -209.108871
v 76.372803 1.179918 -206.727432
v 76.372803 -1.179918 -206.727432
v 76.372803 -1.179918 -209.087265
v 76.372803 1.179918 -209.087265
v 78.869476 -1.145947 -209.258072
v 78.869476 1.145947 -209.258072
v 76.577576 1.145947 -209.258072
v 76.577576 -1.145947 -209.258072
v 78.859314 1.350726 -207.232574
v 77.127365 1.350726 -209.043137
v 78.244438 1.350726 -206.771561
v 76.587738 1.350726 -208.745865
v 78.859314 1.454693 -207.232574
v 78.859314 1.454693 -206.771561
v 76.587738 1.454693 -208.745865
v 76.587738 1.454693 -209.043137
v 77.127365 1.454693 -209.043137
v 78.244438 1.454693 -206.771561
v 79.074249 1.178397 -208.610519
v 79.074249 -1.178397 -207.415878
v 79.074249 0.471753 -209.085739
v 79.074249 -0.804128 -206.728958
v 79.177071 0.471753 -209.085739
v 79.177071 1.178397 -209.085739
v 79.177071 -0.804128 -206.728958
v 79.177071 -1.178397 -206.728958
v 79.177071 1.178397 -208.610519
v 79.177071 -1.178397 -207.415878
v 78.918938 -0.703181 -206.556625
v 78.348610 -1.195410 -206.556625
v 76.528114 0.460674 -206.556625
v 77.349205 1.195410 -206.556625
v 78.918938 -0.703181 -206.451309
v 78.918938 -1.195410 -206.451309
v 78.348610 -1.195410 -206.451309
v 76.528114 1.195410 -206.451309
v 76.528114 0.460674 -206.451309
v 77.349205 1.195410 -206.451309
v 76.372803 1.179918 -207.375732
v 76.372803 -0.539155 -209.087265
v 76.372803 -1.179918 -208.565536
v 76.372803 0.431942 -206.727432
v 76.274513 -0.539155 -209.087265
v 76.274513 -1.179918 -209.087265
v 76.274513 1.179918 -206.727432
v 76.274513 1.179918 -207.375732
v 76.274513 -1.179918 -208.565536
v 76.274513 0.431942 -206.727432
v 76.577576 -0.641972 -209.258072
v 78.240509 1.145947 -209.258072
v 78.869476 0.499247 -209.258072
v 77.126564 -1.145947 -209.258072
v 78.869476 0.499247 -209.341690
v 78.869476 1.145947 -209.341690
v 76.577576 -0.641972 -209.341690
v 76.577576 -1.145947 -209.341690
v 77.126564 -1.145947 -209.341690
v 78.240509 1.145947 -209.341690
vn -0.0000 -0.0000 1.0000
vn 1.0000 -0.0000 -0.0000
vn -1.0000 -0.0000 -0.0000
vn -0.0000 1.0000 -0.0000
vn -0.0000 -0.0000 -1.0000
vn -0.0000 -1.0000 -0.0000
vn -0.7660 -0.0000 0.6428
vn 0.7226 -0.0000 -0.6912
vn -0.0000 -0.7113 -0.7029
vn -0.0000 0.6884 0.7253
vn -0.6729 -0.7397 -0.0000
vn 0.7707 0.6372 -0.0000
vn -0.0000 0.7056 -0.7087
vn -0.0000 -0.7519 0.6593
vn 0.6864 -0.7272 -0.0000
vn -0.7322 0.6810 -0.0000
vt 0.402517 0.027517
vt 0.843958 0.718958
vt 0.401110 0.276110
vt 0.843958 0.531042
vt 0.349396 0.724396
vt 0.656042 0.718958
vt 0.401110 0.473890
vt 0.656042 0.531042
vt 0.597483 0.027517
vt 0.598890 0.276110
vt 0.598890 0.473890
vt 0.597608 0.722608
vt 0.597483 0.222483
vt 0.402517 0.222483
vt 0.349396 0.525604
vt 0.597608 0.527392
vt 0.150604 0.525604
vt 0.150604 0.724396
vt 0.594798 0.969798
vt 0.875000 0.500000
vt 0.625000 0.250000
vt 0.375000 0.250000
vt 0.125000 0.500000
vt 0.405202 0.969798
vt 0.402392 0.527392
vt 0.402392 0.722608
vt 0.625000 0.500000
vt 0.375000 0.500000
vt 0.405202 0.780202
vt 0.594798 0.780202
vt 0.375000 0.000000
vt 0.125000 0.750000
vt 0.375000 1.000000
vt 0.875000 0.750000
vt 0.625000 0.000000
vt 0.625000 1.000000
vt 0.625000 0.750000
vt 0.375000 0.750000
vt 0.843958 0.718958
vt 0.843958 0.531042
vt 0.656042 0.531042
vt 0.656042 0.718958
vt 0.598890 0.276110
vt 0.401110 0.276110
vt 0.401110 0.473890
vt 0.598890 0.473890
vt 0.402517 0.222483
vt 0.402517 0.027517
vt 0.597483 0.027517
vt 0.597483 0.222483
vt 0.150604 0.525604
vt 0.150604 0.724396
vt 0.349396 0.525604
vt 0.349396 0.724396
vt 0.597608 0.527392
vt 0.402392 0.527392
vt 0.402392 0.722608
vt 0.597608 0.722608
vt 0.405202 0.969798
vt 0.594798 0.969798
vt 0.594798 0.780202
vt 0.405202 0.780202
vt 0.843958 0.569180
vt 0.700683 0.718958
vt 0.793092 0.531042
vt 0.656042 0.694367
vt 0.843958 0.569180
vt 0.843958 0.531042
vt 0.656042 0.694367
vt 0.656042 0.718958
vt 0.700683 0.718958
vt 0.793092 0.531042
vt 0.597483 0.066831
vt 0.402518 0.165656
vt 0.539026 0.027517
vt 0.433479 0.222483
vt 0.539026 0.027517
vt 0.597483 0.027517
vt 0.433479 0.222483
vt 0.402517 0.222483
vt 0.597483 0.066831
vt 0.402518 0.165656
vt 0.441830 0.276110
vt 0.401110 0.323290
vt 0.538109 0.473890
vt 0.598890 0.405966
vt 0.441830 0.276110
vt 0.401110 0.276110
vt 0.401110 0.323290
vt 0.598890 0.473890
vt 0.538109 0.473890
vt 0.598890 0.405966
vt 0.597608 0.581023
vt 0.455399 0.722608
vt 0.402392 0.679449
vt 0.535732 0.527392
vt 0.455399 0.722608
vt 0.402392 0.722608
vt 0.597608 0.527392
vt 0.597608 0.581023
vt 0.402392 0.679449
vt 0.535732 0.527392
vt 0.446893 0.780202
vt 0.594798 0.917767
vt 0.541300 0.969798
vt 0.405202 0.825616
vt 0.541300 0.969798
vt 0.594798 0.969798
vt 0.446893 0.780202
vt 0.405202 0.780202
vt 0.405202 0.825616
vt 0.594798 0.917767
s 0
f 1/1/1 9/9/1 43/49/1 69/75/1 42/48/1
f 6/6/2 8/8/2 35/41/2 60/66/2 36/42/2
f 18/18/3 17/17/3 45/51/3 46/52/3
f 7/7/4 3/3/4 38/44/4 78/84/4 39/45/4
f 14/14/4 1/1/4 42/48/4 68/74/4 41/47/4
f 8/8/5 4/4/5 34/40/5 59/65/5 35/41/5
f 2/2/4 4/4/4 20/20/4 30/34/4
f 4/4/4 8/8/4 25/27/4 20/20/4
f 8/8/4 6/6/4 31/37/4 25/27/4
f 6/6/4 2/2/4 30/34/4 31/37/4
f 10/10/1 3/3/1 21/22/1 20/21/1
f 3/3/1 7/7/1 26/28/1 21/22/1
f 11/11/1 10/10/1 20/21/1 25/27/1
f 7/7/1 11/11/1 25/27/1 26/28/1
f 1/1/2 14/14/2 21/22/2 29/31/2
f 9/9/2 1/1/2 29/31/2 30/35/2
f 13/13/2 9/9/2 30/35/2 20/21/2
f 14/14/2 13/13/2 20/21/2 21/22/2
f 17/17/6 18/18/6 29/32/6 21/23/6
f 15/15/6 17/17/6 21/23/6 26/28/6
f 5/5/6 15/15/6 26/28/6 32/38/6
f 18/18/6 5/5/6 32/38/6 29/32/6
f 16/16/3 23/25/3 26/28/3 25/27/3
f 23/25/3 24/26/3 32/38/3 26/28/3
f 12/12/3 16/16/3 25/27/3 31/37/3
f 24/26/3 12/12/3 31/37/3 32/38/3
f 22/24/5 19/19/5 30/36/5 29/33/5
f 28/30/5 27/29/5 32/38/5 31/37/5
f 27/29/5 22/24/5 29/33/5 32/38/5
f 19/19/5 28/30/5 31/37/5 30/36/5
f 70/76/2 67/73/2 44/50/2
f 77/83/1 37/43/1 80/86/1
f 88/94/3 87/93/3 52/58/3
f 97/103/5 55/61/5 98/104/5
f 45/51/6 47/53/6 48/54/6 46/52/6
f 58/64/4 57/63/4 33/39/4
f 23/25/5 16/16/5 49/55/5 90/96/5 50/56/5
f 10/10/6 11/11/6 40/46/6 80/86/6 37/43/6
f 17/17/5 15/15/5 47/53/5 45/51/5
f 19/19/3 22/24/3 53/59/3 99/105/3 54/60/3
f 2/2/1 6/6/1 36/42/1 58/64/1 33/39/1
f 9/9/6 13/13/6 44/50/6 67/73/6 43/49/6
f 24/26/4 23/25/4 50/56/4 89/95/4 51/57/4
f 11/11/2 7/7/2 39/45/2 79/85/2 40/46/2
f 15/15/2 5/5/2 48/54/2 47/53/2
f 27/29/2 28/30/2 55/61/2 97/103/2 56/62/2
f 13/13/5 14/14/5 41/47/5 70/76/5 44/50/5
f 16/16/6 12/12/6 52/58/6 87/93/6 49/55/6
f 5/5/1 18/18/1 46/52/1 48/54/1
f 22/24/4 27/29/4 56/62/4 100/106/4 53/59/4
f 12/12/1 24/26/1 51/57/1 88/94/1 52/58/1
f 28/30/6 19/19/6 54/60/6 98/104/6 55/61/6
f 4/4/3 2/2/3 33/39/3 57/63/3 34/40/3
f 3/3/3 10/10/3 37/43/3 77/83/3 38/44/3
f 60/66/7 59/65/7 66/72/7 63/69/7
f 35/41/4 59/65/4 60/66/4
f 66/72/4 62/68/4 61/67/4 65/71/4 64/70/4 63/69/4
f 59/65/1 34/40/1 62/68/1 66/72/1
f 58/64/5 36/42/5 64/70/5 65/71/5
f 57/63/8 58/64/8 65/71/8 61/67/8
f 36/42/3 60/66/3 63/69/3 64/70/3
f 34/40/2 57/63/2 61/67/2 62/68/2
f 69/75/5 43/49/5 72/78/5 71/77/5
f 42/48/2 69/75/2 68/74/2
f 71/77/2 72/78/2 75/81/2 73/79/2 74/80/2 76/82/2
f 68/74/9 69/75/9 71/77/9 76/82/9
f 41/47/6 68/74/6 76/82/6 74/80/6
f 67/73/10 70/76/10 73/79/10 75/81/10
f 70/76/1 41/47/1 74/80/1 73/79/1
f 43/49/4 67/73/4 75/81/4 72/78/4
f 38/44/2 77/83/2 81/87/2 82/88/2
f 78/84/1 79/85/1 39/45/1
f 82/88/1 81/87/1 86/92/1 84/90/1 85/91/1 83/89/1
f 79/85/11 78/84/11 83/89/11 85/91/11
f 80/86/4 40/46/4 84/90/4 86/92/4
f 78/84/6 38/44/6 82/88/6 83/89/6
f 77/83/12 80/86/12 86/92/12 81/87/12
f 40/46/3 79/85/3 85/91/3 84/90/3
f 87/93/13 88/94/13 91/97/13 94/100/13
f 50/56/3 90/96/3 89/95/3
f 96/102/3 93/99/3 94/100/3 91/97/3 92/98/3 95/101/3
f 51/57/6 89/95/6 95/101/6 92/98/6
f 49/55/4 87/93/4 94/100/4 93/99/4
f 89/95/14 90/96/14 96/102/14 95/101/14
f 88/94/5 51/57/5 92/98/5 91/97/5
f 90/96/1 49/55/1 93/99/1 96/102/1
f 100/106/5 99/105/5 53/59/5
f 99/105/15 100/106/15 105/111/15 101/107/15
f 104/110/5 103/109/5 106/112/5 102/108/5 101/107/5 105/111/5
f 100/106/6 56/62/6 104/110/6 105/111/6
f 54/60/2 99/105/2 101/107/2 102/108/2
f 97/103/16 98/104/16 106/112/16 103/109/16
f 98/104/4 54/60/4 102/108/4 106/112/4
f 56/62/3 97/103/3 103/109/3 104/110/3
