# Blender 3.4.1
# www.blender.org
o Cylinder.001
v 46.371021 -0.127661 -55.938713
v 46.335590 0.049457 -56.576096
v 46.208622 -0.240316 -55.960991
v 46.173187 -0.063198 -56.598373
v 46.267181 -0.422596 -56.014900
v 46.231750 -0.245478 -56.652279
v 46.465775 -0.422596 -56.025940
v 46.430344 -0.245478 -56.663319
v 46.529953 -0.240316 -55.978855
v 46.494522 -0.063198 -56.616234
v 45.636902 -0.127659 -56.211388
v 46.077461 0.049460 -56.673359
v 45.542023 -0.240314 -56.345062
v 45.982586 -0.063196 -56.807030
v 45.621407 -0.422593 -56.339245
v 46.061970 -0.245475 -56.801212
v 45.765347 -0.422593 -56.201973
v 46.205906 -0.245475 -56.663940
v 45.774921 -0.240314 -56.122955
v 46.215485 -0.063195 -56.584923
v 45.339397 -0.127659 -56.943253
v 45.977749 0.049459 -56.939270
v 45.371658 -0.240314 -57.103966
v 46.010010 -0.063196 -57.099987
v 45.421848 -0.422594 -57.042191
v 46.060200 -0.245476 -57.038208
v 45.420609 -0.422594 -56.843292
v 46.058960 -0.245476 -56.839314
v 45.369652 -0.240314 -56.782146
v 46.008003 -0.063196 -56.778168
v 45.692638 -0.127660 -57.723675
v 46.093937 0.049458 -57.227219
v 45.837429 -0.240315 -57.800522
v 46.238728 -0.063197 -57.304066
v 45.821423 -0.422595 -57.722553
v 46.222721 -0.245476 -57.226097
v 45.666737 -0.422595 -57.597515
v 46.068035 -0.245476 -57.101059
v 45.587143 -0.240315 -57.598209
v 45.988441 -0.063197 -57.101753
v 46.650661 -0.127660 -57.847744
v 46.401482 0.049458 -57.260021
v 46.786610 -0.240315 -57.756157
v 46.537430 -0.063197 -57.168434
v 46.710278 -0.422595 -57.733585
v 46.461102 -0.245477 -57.145863
v 46.527157 -0.422595 -57.811226
v 46.277981 -0.245477 -57.223499
v 46.490311 -0.240315 -57.881779
v 46.241131 -0.063197 -57.294056
v 47.235695 -0.127659 -57.267967
v 46.637012 0.049459 -57.046406
v 47.262230 -0.240314 -57.106209
v 46.663548 -0.063196 -56.884647
v 47.193466 -0.422594 -57.146297
v 46.594784 -0.245475 -56.924736
v 47.124432 -0.422594 -57.332836
v 46.525753 -0.245475 -57.111275
v 47.150532 -0.240314 -57.408031
v 46.551849 -0.063196 -57.186470
v 47.180618 -0.127659 -56.413105
v 46.629932 0.049459 -56.735989
v 47.072266 -0.240315 -56.290100
v 46.521580 -0.063196 -56.612988
v 47.059727 -0.422594 -56.368702
v 46.509041 -0.245476 -56.691589
v 47.160328 -0.422594 -56.540287
v 46.609646 -0.245476 -56.863171
v 47.235046 -0.240315 -56.567726
v 46.684361 -0.063196 -56.890614
v 46.405704 -0.442161 -56.787296
v 46.558582 -0.426370 -56.641109
v 46.314075 -0.405017 -56.642735
v 46.205452 -0.325039 -56.791943
v 46.382832 -0.296964 -56.882526
v 46.601078 -0.359591 -56.789307
v 46.452808 -0.299489 -56.555401
v 46.234566 -0.236863 -56.648624
v 46.277058 -0.170083 -56.796822
v 46.521568 -0.191437 -56.795193
v 46.630192 -0.271415 -56.645988
v 46.429935 -0.154293 -56.650631
v 46.221664 -0.442711 -57.196545
v 46.052261 -0.381091 -57.233265
v 46.245258 -0.357194 -57.319847
v 46.394928 -0.346278 -57.230896
v 46.294430 -0.363429 -57.089340
v 46.082649 -0.384944 -57.090805
v 46.120827 -0.246573 -57.290310
v 46.332603 -0.225058 -57.288845
v 46.362995 -0.228911 -57.146385
v 46.169998 -0.252808 -57.059803
v 46.020325 -0.263725 -57.148754
v 46.193588 -0.167291 -57.183105
v 46.400208 -0.410874 -57.006104
v 46.192551 -0.360140 -56.881538
v 46.295914 -0.298829 -57.141384
v 46.520851 -0.253791 -57.190556
v 46.556503 -0.287268 -56.961098
v 46.353603 -0.352995 -56.770115
v 46.184853 -0.171701 -56.989006
v 46.387753 -0.105974 -57.179985
v 46.548805 -0.098829 -57.068565
v 46.445446 -0.160140 -56.808720
v 46.220505 -0.205178 -56.759544
v 46.341148 -0.048095 -56.944000
v 46.106724 -0.423310 -56.964806
v 46.099403 -0.409926 -56.753242
v 45.947716 -0.354886 -56.938187
v 46.004066 -0.280906 -57.116539
v 46.190578 -0.290226 -57.041817
v 46.249500 -0.369964 -56.817287
v 45.992218 -0.259250 -56.774223
v 45.933296 -0.179511 -56.998753
v 46.083393 -0.139550 -57.062798
v 46.235081 -0.194590 -56.877850
v 46.178734 -0.268570 -56.699497
v 46.076073 -0.126166 -56.851234
v 46.544495 -0.406237 -56.933556
v 46.686424 -0.370151 -56.956219
v 46.585438 -0.391179 -56.819237
v 46.449703 -0.355479 -56.812237
v 46.466805 -0.312387 -56.944897
v 46.613106 -0.321456 -57.033878
v 46.679356 -0.297090 -56.848907
v 46.533051 -0.288021 -56.759922
v 46.459732 -0.239326 -56.837582
v 46.560722 -0.218298 -56.974564
v 46.696457 -0.253998 -56.981564
v 46.601665 -0.203239 -56.860245
vn -0.5749 0.7796 0.2486
vn -0.9542 -0.2978 -0.0297
vn -0.0148 -0.9636 -0.2669
vn -0.0535 0.2674 -0.9621
vn 0.9450 -0.2978 -0.1353
vn 0.5989 0.7796 0.1833
vn 0.0535 -0.2674 0.9621
vn -0.5746 0.7796 -0.2491
vn -0.6312 -0.2978 -0.7162
vn 0.1845 -0.9636 -0.1935
vn 0.6650 0.2674 -0.6973
vn 0.7453 -0.2978 0.5966
vn 0.2761 0.7796 0.5622
vn -0.6650 -0.2674 0.6973
vn -0.2126 0.7796 -0.5891
vn 0.0885 -0.2978 -0.9505
vn 0.2674 -0.9636 0.0017
vn 0.9636 0.2674 0.0060
vn 0.0767 -0.2978 0.9516
vn -0.2200 0.7796 0.5864
vn -0.9636 -0.2674 -0.0060
vn 0.3211 0.7796 -0.5377
vn 0.7916 -0.2978 -0.5336
vn 0.1681 -0.9636 0.2079
vn 0.6058 0.2674 0.7494
vn -0.6877 -0.2978 0.6621
vn -0.5931 0.7796 0.2013
vn -0.6058 -0.2674 -0.7494
vn 0.6256 0.7796 0.0303
vn 0.8434 -0.2978 0.4473
vn -0.1044 -0.9636 0.2461
vn -0.3761 0.2674 0.8872
vn -0.9079 -0.2978 -0.2952
vn -0.4567 0.7796 -0.4286
vn 0.3761 -0.2674 -0.8872
vn 0.4069 0.7796 0.4762
vn 0.2526 -0.2978 0.9206
vn -0.2507 -0.9636 0.0928
vn -0.9037 0.2674 0.3344
vn -0.4076 -0.2978 -0.8633
vn -0.0012 0.7796 -0.6263
vn 0.9037 -0.2674 -0.3344
vn -0.1107 0.7796 0.6165
vn -0.5523 -0.2978 0.7786
vn -0.2306 -0.9636 -0.1352
vn -0.8312 0.2674 -0.4874
vn 0.4098 -0.2978 -0.8622
vn 0.4839 0.7796 -0.3977
vn 0.8312 -0.2674 0.4874
vn -0.0866 -0.9768 0.1961
vn 0.3698 -0.8822 -0.2915
vn -0.5008 -0.8602 -0.0965
vn -0.3068 -0.5553 -0.7730
vn 0.2083 -0.5132 -0.8326
vn 0.9063 -0.4165 0.0722
vn -0.0570 -0.5910 0.8046
vn -0.8328 -0.3797 0.4028
vn -0.4702 0.1902 -0.8618
vn 0.4282 0.1714 -0.8873
vn 0.4702 -0.1902 0.8618
vn -0.4282 -0.1714 0.8873
vn -0.9063 0.4165 -0.0722
vn 0.0570 0.5910 -0.8046
vn 0.8328 0.3797 -0.4028
vn 0.3068 0.5553 0.7730
vn -0.2083 0.5132 0.8326
vn -0.3698 0.8822 0.2915
vn 0.0866 0.9768 -0.1961
vn 0.5008 0.8602 0.0965
vn -0.1631 -0.7958 -0.5832
vn -0.3509 -0.9351 0.0496
vn 0.3485 -0.8001 -0.4882
vn 0.5085 -0.8204 0.2616
vn 0.0801 -0.8267 0.5570
vn -0.9072 -0.3788 0.1833
vn -0.3824 -0.1887 -0.9045
vn 0.5134 -0.1408 -0.8465
vn 0.8124 -0.1787 0.5551
vn 0.0176 -0.2394 0.9708
vn -0.8124 0.1787 -0.5551
vn -0.0176 0.2394 -0.9708
vn 0.9072 0.3788 -0.1833
vn 0.3824 0.1887 0.9045
vn -0.5134 0.1408 0.8465
vn -0.5085 0.8204 -0.2616
vn -0.0801 0.8267 -0.5570
vn 0.3509 0.9351 -0.0496
vn 0.1631 0.7958 0.5832
vn -0.3485 0.8001 0.4882
vn -0.4211 -0.8310 -0.3636
vn -0.1070 -0.9703 0.2169
vn 0.0126 -0.7653 -0.6435
vn 0.6429 -0.7373 -0.2075
vn 0.5373 -0.7884 0.2995
vn -0.4824 -0.4865 0.7285
vn -0.8713 -0.2695 -0.4102
vn -0.1926 -0.1036 -0.9758
vn 0.9857 -0.0513 -0.1606
vn 0.7051 -0.1996 0.6804
vn -0.9857 0.0513 0.1606
vn -0.7051 0.1996 -0.6804
vn 0.4824 0.4865 -0.7285
vn 0.8713 0.2695 0.4102
vn 0.1926 0.1036 0.9758
vn -0.6429 0.7373 0.2075
vn -0.5373 0.7884 -0.2995
vn 0.1070 0.9703 -0.2169
vn 0.4211 0.8310 0.3636
vn -0.0126 0.7653 0.6435
vn -0.3885 -0.9203 0.0448
vn 0.2846 -0.9561 0.0703
vn -0.4150 -0.7865 -0.4574
vn 0.2702 -0.6041 -0.7497
vn 0.6533 -0.6430 -0.3998
vn 0.4484 -0.5263 0.7225
vn -0.7472 -0.4655 0.4743
vn -0.9065 -0.2024 -0.3704
vn 0.3743 0.1386 -0.9169
vn 0.9664 -0.0093 -0.2569
vn -0.3743 -0.1386 0.9169
vn -0.9664 0.0093 0.2569
vn -0.4484 0.5263 -0.7225
vn 0.7472 0.4655 -0.4743
vn 0.9065 0.2024 0.3704
vn -0.2702 0.6041 0.7497
vn -0.6533 0.6430 0.3998
vn -0.2846 0.9561 -0.0703
vn 0.3885 0.9203 -0.0448
vn 0.4150 0.7865 0.4574
vn 0.2518 -0.9671 0.0372
vn 0.1064 -0.7941 -0.5984
vn -0.2385 -0.9481 0.2103
vn -0.7176 -0.6299 -0.2971
vn -0.4766 -0.4833 -0.7344
vn 0.6386 -0.2163 -0.7385
vn 0.7029 -0.5656 0.4314
vn -0.0967 -0.5326 0.8408
vn -0.9922 0.0622 -0.1077
vn -0.4952 0.2302 -0.8377
vn 0.9922 -0.0622 0.1077
vn 0.4952 -0.2302 0.8377
vn -0.6386 0.2163 0.7385
vn -0.7029 0.5656 -0.4314
vn 0.0967 0.5326 -0.8408
vn 0.7176 0.6299 0.2971
vn 0.4766 0.4833 0.7344
vn -0.1064 0.7941 0.5984
vn -0.2518 0.9671 -0.0372
vn 0.2385 0.9481 -0.2103
vt 1.000000 0.500000
vt 0.000000 0.500000
vt 0.750000 0.490000
vt 1.000000 1.000000
vt 0.250000 0.490000
vt 0.000000 1.000000
vt 0.800000 0.500000
vt 0.978254 0.324164
vt 0.800000 1.000000
vt 0.478254 0.324164
vt 0.600000 0.500000
vt 0.891068 0.055836
vt 0.600000 1.000000
vt 0.391068 0.055836
vt 0.400000 0.500000
vt 0.608932 0.055836
vt 0.108932 0.055836
vt 0.400000 1.000000
vt 0.200000 0.500000
vt 0.521746 0.324164
vt 0.021746 0.324164
vt 0.200000 1.000000
vt 0.000000 0.500000
vt 1.000000 0.500000
vt 0.750000 0.490000
vt 1.000000 1.000000
vt 0.250000 0.490000
vt 0.000000 1.000000
vt 0.800000 0.500000
vt 0.978254 0.324164
vt 0.800000 1.000000
vt 0.478254 0.324164
vt 0.600000 0.500000
vt 0.891068 0.055836
vt 0.600000 1.000000
vt 0.391068 0.055836
vt 0.400000 0.500000
vt 0.608932 0.055836
vt 0.108932 0.055836
vt 0.400000 1.000000
vt 0.200000 0.500000
vt 0.521746 0.324164
vt 0.021746 0.324164
vt 0.200000 1.000000
vt 0.000000 0.500000
vt 1.000000 0.500000
vt 0.750000 0.490000
vt 1.000000 1.000000
vt 0.250000 0.490000
vt 0.000000 1.000000
vt 0.800000 0.500000
vt 0.978254 0.324164
vt 0.800000 1.000000
vt 0.478254 0.324164
vt 0.600000 0.500000
vt 0.891068 0.055836
vt 0.600000 1.000000
vt 0.391068 0.055836
vt 0.400000 0.500000
vt 0.608932 0.055836
vt 0.108932 0.055836
vt 0.400000 1.000000
vt 0.200000 0.500000
vt 0.521746 0.324164
vt 0.021746 0.324164
vt 0.200000 1.000000
vt 1.000000 0.500000
vt 0.000000 0.500000
vt 0.750000 0.490000
vt 1.000000 1.000000
vt 0.250000 0.490000
vt 0.000000 1.000000
vt 0.800000 0.500000
vt 0.978254 0.324164
vt 0.800000 1.000000
vt 0.478254 0.324164
vt 0.600000 0.500000
vt 0.891068 0.055836
vt 0.600000 1.000000
vt 0.391068 0.055836
vt 0.400000 0.500000
vt 0.608932 0.055836
vt 0.108932 0.055836
vt 0.400000 1.000000
vt 0.200000 0.500000
vt 0.521746 0.324164
vt 0.021746 0.324164
vt 0.200000 1.000000
vt 0.000000 0.500000
vt 1.000000 0.500000
vt 0.750000 0.490000
vt 1.000000 1.000000
vt 0.250000 0.490000
vt 0.000000 1.000000
vt 0.800000 0.500000
vt 0.978254 0.324164
vt 0.800000 1.000000
vt 0.478254 0.324164
vt 0.600000 0.500000
vt 0.891068 0.055836
vt 0.600000 1.000000
vt 0.391068 0.055836
vt 0.400000 0.500000
vt 0.608932 0.055836
vt 0.108932 0.055836
vt 0.400000 1.000000
vt 0.200000 0.500000
vt 0.521746 0.324164
vt 0.021746 0.324164
vt 0.200000 1.000000
vt 0.000000 0.500000
vt 1.000000 0.500000
vt 0.750000 0.490000
vt 1.000000 1.000000
vt 0.250000 0.490000
vt 0.000000 1.000000
vt 0.800000 0.500000
vt 0.978254 0.324164
vt 0.800000 1.000000
vt 0.478254 0.324164
vt 0.600000 0.500000
vt 0.891068 0.055836
vt 0.600000 1.000000
vt 0.391068 0.055836
vt 0.400000 0.500000
vt 0.608932 0.055836
vt 0.108932 0.055836
vt 0.400000 1.000000
vt 0.200000 0.500000
vt 0.521746 0.324164
vt 0.021746 0.324164
vt 0.200000 1.000000
vt 1.000000 0.500000
vt 0.000000 0.500000
vt 0.750000 0.490000
vt 1.000000 1.000000
vt 0.250000 0.490000
vt 0.000000 1.000000
vt 0.800000 0.500000
vt 0.978254 0.324164
vt 0.800000 1.000000
vt 0.478254 0.324164
vt 0.600000 0.500000
vt 0.891068 0.055836
vt 0.600000 1.000000
vt 0.391068 0.055836
vt 0.400000 0.500000
vt 0.608932 0.055836
vt 0.108932 0.055836
vt 0.400000 1.000000
vt 0.200000 0.500000
vt 0.521746 0.324164
vt 0.021746 0.324164
vt 0.200000 1.000000
vt 0.181819 0.000000
vt 0.363637 0.000000
vt 0.909091 0.000000
vt 0.727273 0.000000
vt 0.545455 0.000000
vt 0.272728 0.157461
vt 1.000000 0.157461
vt 0.090910 0.157461
vt 0.818182 0.157461
vt 0.636364 0.157461
vt 0.454546 0.157461
vt 0.181819 0.314921
vt 0.000000 0.314921
vt 0.909091 0.314921
vt 0.727273 0.314921
vt 0.545455 0.314921
vt 0.363637 0.314921
vt 0.272728 0.472382
vt 0.090910 0.472382
vt 0.818182 0.472382
vt 0.636364 0.472382
vt 0.454546 0.472382
vt 0.181819 0.000000
vt 0.363637 0.000000
vt 0.909091 0.000000
vt 0.727273 0.000000
vt 0.545455 0.000000
vt 0.272728 0.157461
vt 1.000000 0.157461
vt 0.090910 0.157461
vt 0.818182 0.157461
vt 0.636364 0.157461
vt 0.454546 0.157461
vt 0.181819 0.314921
vt 0.000000 0.314921
vt 0.909091 0.314921
vt 0.727273 0.314921
vt 0.545455 0.314921
vt 0.363637 0.314921
vt 0.272728 0.472382
vt 0.090910 0.472382
vt 0.818182 0.472382
vt 0.636364 0.472382
vt 0.454546 0.472382
vt 0.181819 0.000000
vt 0.363637 0.000000
vt 0.909091 0.000000
vt 0.727273 0.000000
vt 0.545455 0.000000
vt 0.272728 0.157461
vt 1.000000 0.157461
vt 0.090910 0.157461
vt 0.818182 0.157461
vt 0.636364 0.157461
vt 0.454546 0.157461
vt 0.181819 0.314921
vt 0.000000 0.314921
vt 0.909091 0.314921
vt 0.727273 0.314921
vt 0.545455 0.314921
vt 0.363637 0.314921
vt 0.272728 0.472382
vt 0.090910 0.472382
vt 0.818182 0.472382
vt 0.636364 0.472382
vt 0.454546 0.472382
vt 0.181819 0.000000
vt 0.363637 0.000000
vt 0.909091 0.000000
vt 0.727273 0.000000
vt 0.545455 0.000000
vt 0.272728 0.157461
vt 1.000000 0.157461
vt 0.090910 0.157461
vt 0.818182 0.157461
vt 0.636364 0.157461
vt 0.454546 0.157461
vt 0.181819 0.314921
vt 0.000000 0.314921
vt 0.909091 0.314921
vt 0.727273 0.314921
vt 0.545455 0.314921
vt 0.363637 0.314921
vt 0.272728 0.472382
vt 0.090910 0.472382
vt 0.818182 0.472382
vt 0.636364 0.472382
vt 0.454546 0.472382
vt 0.181819 0.000000
vt 0.363637 0.000000
vt 0.909091 0.000000
vt 0.727273 0.000000
vt 0.545455 0.000000
vt 0.272728 0.157461
vt 1.000000 0.157461
vt 0.090910 0.157461
vt 0.818182 0.157461
vt 0.636364 0.157461
vt 0.454546 0.157461
vt 0.181819 0.314921
vt 0.000000 0.314921
vt 0.909091 0.314921
vt 0.727273 0.314921
vt 0.545455 0.314921
vt 0.363637 0.314921
vt 0.272728 0.472382
vt 0.090910 0.472382
vt 0.818182 0.472382
vt 0.636364 0.472382
vt 0.454546 0.472382
s 0
f 2/4/1 3/7/1 1/1/1
f 4/9/2 5/11/2 3/7/2
f 6/13/3 7/15/3 5/11/3
f 2/5/4 8/17/4 6/14/4
f 8/18/5 9/19/5 7/15/5
f 10/22/6 1/2/6 9/19/6
f 3/8/7 7/16/7 9/20/7
f 11/24/8 14/31/8 13/29/8
f 14/31/9 15/33/9 13/29/9
f 16/35/10 17/37/10 15/33/10
f 12/27/11 18/39/11 16/36/11
f 18/40/12 19/41/12 17/37/12
f 19/41/13 12/28/13 11/23/13
f 13/30/14 17/38/14 19/42/14
f 21/46/15 24/53/15 23/51/15
f 24/53/16 25/55/16 23/51/16
f 26/57/17 27/59/17 25/55/17
f 22/49/18 28/61/18 26/58/18
f 28/62/19 29/63/19 27/59/19
f 29/63/20 22/50/20 21/45/20
f 23/52/21 27/60/21 29/64/21
f 32/70/22 33/73/22 31/67/22
f 33/73/23 36/79/23 35/77/23
f 35/77/24 38/84/24 37/81/24
f 32/71/25 38/83/25 36/80/25
f 38/84/26 39/85/26 37/81/26
f 40/88/27 31/68/27 39/85/27
f 33/74/28 37/82/28 39/86/28
f 41/90/29 44/97/29 43/95/29
f 43/95/30 46/101/30 45/99/30
f 46/101/31 47/103/31 45/99/31
f 42/93/32 48/105/32 46/102/32
f 48/106/33 49/107/33 47/103/33
f 49/107/34 42/94/34 41/89/34
f 43/96/35 47/104/35 49/108/35
f 51/112/36 54/119/36 53/117/36
f 53/117/37 56/123/37 55/121/37
f 56/123/38 57/125/38 55/121/38
f 52/115/39 58/127/39 56/124/39
f 58/128/40 59/129/40 57/125/40
f 59/129/41 52/116/41 51/111/41
f 53/118/42 57/126/42 59/130/42
f 62/136/43 63/139/43 61/133/43
f 63/139/44 66/145/44 65/143/44
f 65/143/45 68/150/45 67/147/45
f 62/137/46 68/149/46 66/146/46
f 67/147/47 70/154/47 69/151/47
f 70/154/48 61/134/48 69/151/48
f 63/140/49 67/148/49 69/152/49
f 71/155/50 72/160/50 73/162/50
f 72/160/51 71/156/51 76/165/51
f 71/157/52 73/161/52 74/163/52
f 71/158/53 74/163/53 75/164/53
f 71/159/54 75/164/54 76/165/54
f 72/160/55 76/165/55 81/171/55
f 73/162/56 72/160/56 77/166/56
f 74/163/57 73/161/57 78/168/57
f 75/164/58 74/163/58 79/169/58
f 76/165/59 75/164/59 80/170/59
f 72/160/60 81/171/60 77/166/60
f 73/162/61 77/166/61 78/167/61
f 74/163/62 78/168/62 79/169/62
f 75/164/63 79/169/63 80/170/63
f 76/165/64 80/170/64 81/171/64
f 77/166/65 81/171/65 82/172/65
f 78/167/66 77/166/66 82/173/66
f 79/169/67 78/168/67 82/174/67
f 80/170/68 79/169/68 82/175/68
f 81/171/69 80/170/69 82/176/69
f 83/177/70 84/182/70 85/184/70
f 84/182/71 83/178/71 88/187/71
f 83/179/72 85/183/72 86/185/72
f 83/180/73 86/185/73 87/186/73
f 83/181/74 87/186/74 88/187/74
f 84/182/75 88/187/75 93/193/75
f 85/184/76 84/182/76 89/188/76
f 86/185/77 85/183/77 90/190/77
f 87/186/78 86/185/78 91/191/78
f 88/187/79 87/186/79 92/192/79
f 84/182/80 93/193/80 89/188/80
f 85/184/81 89/188/81 90/189/81
f 86/185/82 90/190/82 91/191/82
f 87/186/83 91/191/83 92/192/83
f 88/187/84 92/192/84 93/193/84
f 89/188/85 93/193/85 94/194/85
f 90/189/86 89/188/86 94/195/86
f 91/191/87 90/190/87 94/196/87
f 92/192/88 91/191/88 94/197/88
f 93/193/89 92/192/89 94/198/89
f 95/199/90 96/204/90 97/206/90
f 96/204/91 95/200/91 100/209/91
f 95/201/92 97/205/92 98/207/92
f 95/202/93 98/207/93 99/208/93
f 95/203/94 99/208/94 100/209/94
f 96/204/95 100/209/95 105/215/95
f 97/206/96 96/204/96 101/210/96
f 98/207/97 97/205/97 102/212/97
f 99/208/98 98/207/98 103/213/98
f 100/209/99 99/208/99 104/214/99
f 96/204/100 105/215/100 101/210/100
f 97/206/101 101/210/101 102/211/101
f 98/207/102 102/212/102 103/213/102
f 99/208/103 103/213/103 104/214/103
f 100/209/104 104/214/104 105/215/104
f 101/210/105 105/215/105 106/216/105
f 102/211/106 101/210/106 106/217/106
f 103/213/107 102/212/107 106/218/107
f 104/214/108 103/213/108 106/219/108
f 105/215/109 104/214/109 106/220/109
f 107/221/110 108/226/110 109/228/110
f 108/226/111 107/222/111 112/231/111
f 107/223/112 109/227/112 110/229/112
f 107/224/113 110/229/113 111/230/113
f 107/225/114 111/230/114 112/231/114
f 108/226/115 112/231/115 117/237/115
f 109/228/116 108/226/116 113/232/116
f 110/229/117 109/227/117 114/234/117
f 111/230/118 110/229/118 115/235/118
f 112/231/119 111/230/119 116/236/119
f 108/226/120 117/237/120 113/232/120
f 109/228/121 113/232/121 114/233/121
f 110/229/122 114/234/122 115/235/122
f 111/230/123 115/235/123 116/236/123
f 112/231/124 116/236/124 117/237/124
f 113/232/125 117/237/125 118/238/125
f 114/233/126 113/232/126 118/239/126
f 115/235/127 114/234/127 118/240/127
f 116/236/128 115/235/128 118/241/128
f 117/237/129 116/236/129 118/242/129
f 119/243/130 120/248/130 121/250/130
f 120/248/131 119/244/131 124/253/131
f 119/245/132 121/249/132 122/251/132
f 119/246/133 122/251/133 123/252/133
f 119/247/134 123/252/134 124/253/134
f 120/248/135 124/253/135 129/259/135
f 121/250/136 120/248/136 125/254/136
f 122/251/137 121/249/137 126/256/137
f 123/252/138 122/251/138 127/257/138
f 124/253/139 123/252/139 128/258/139
f 120/248/140 129/259/140 125/254/140
f 121/250/141 125/254/141 126/255/141
f 122/251/142 126/256/142 127/257/142
f 123/252/143 127/257/143 128/258/143
f 124/253/144 128/258/144 129/259/144
f 125/254/145 129/259/145 130/260/145
f 126/255/146 125/254/146 130/261/146
f 127/257/147 126/256/147 130/262/147
f 128/258/148 127/257/148 130/263/148
f 129/259/149 128/258/149 130/264/149
f 2/4/1 4/9/1 3/7/1
f 4/9/2 6/13/2 5/11/2
f 6/13/3 8/18/3 7/15/3
f 6/14/4 4/10/4 2/5/4
f 2/5/4 10/21/4 8/17/4
f 8/18/5 10/22/5 9/19/5
f 10/22/6 2/6/6 1/2/6
f 9/20/7 1/3/7 3/8/7
f 3/8/7 5/12/7 7/16/7
f 11/24/8 12/26/8 14/31/8
f 14/31/9 16/35/9 15/33/9
f 16/35/10 18/40/10 17/37/10
f 16/36/11 14/32/11 12/27/11
f 12/27/11 20/43/11 18/39/11
f 18/40/12 20/44/12 19/41/12
f 19/41/13 20/44/13 12/28/13
f 19/42/14 11/25/14 13/30/14
f 13/30/14 15/34/14 17/38/14
f 21/46/15 22/48/15 24/53/15
f 24/53/16 26/57/16 25/55/16
f 26/57/17 28/62/17 27/59/17
f 26/58/18 24/54/18 22/49/18
f 22/49/18 30/65/18 28/61/18
f 28/62/19 30/66/19 29/63/19
f 29/63/20 30/66/20 22/50/20
f 29/64/21 21/47/21 23/52/21
f 23/52/21 25/56/21 27/60/21
f 32/70/22 34/75/22 33/73/22
f 33/73/23 34/75/23 36/79/23
f 35/77/24 36/79/24 38/84/24
f 36/80/25 34/76/25 32/71/25
f 32/71/25 40/87/25 38/83/25
f 38/84/26 40/88/26 39/85/26
f 40/88/27 32/72/27 31/68/27
f 39/86/28 31/69/28 33/74/28
f 33/74/28 35/78/28 37/82/28
f 41/90/29 42/92/29 44/97/29
f 43/95/30 44/97/30 46/101/30
f 46/101/31 48/106/31 47/103/31
f 46/102/32 44/98/32 42/93/32
f 42/93/32 50/109/32 48/105/32
f 48/106/33 50/110/33 49/107/33
f 49/107/34 50/110/34 42/94/34
f 49/108/35 41/91/35 43/96/35
f 43/96/35 45/100/35 47/104/35
f 51/112/36 52/114/36 54/119/36
f 53/117/37 54/119/37 56/123/37
f 56/123/38 58/128/38 57/125/38
f 56/124/39 54/120/39 52/115/39
f 52/115/39 60/131/39 58/127/39
f 58/128/40 60/132/40 59/129/40
f 59/129/41 60/132/41 52/116/41
f 59/130/42 51/113/42 53/118/42
f 53/118/42 55/122/42 57/126/42
f 62/136/43 64/141/43 63/139/43
f 63/139/44 64/141/44 66/145/44
f 65/143/45 66/145/45 68/150/45
f 66/146/46 64/142/46 62/137/46
f 62/137/46 70/153/46 68/149/46
f 67/147/47 68/150/47 70/154/47
f 70/154/48 62/138/48 61/134/48
f 69/152/49 61/135/49 63/140/49
f 63/140/49 65/144/49 67/148/49
