# Blender 3.4.1
# www.blender.org
mtllib forest rock.mtl
o Cube
v 20.827538 1.480807 -39.332169
v 20.599321 1.220018 -39.886314
v 20.588026 1.015989 -39.857838
v 20.528564 1.016673 -40.117558
v 20.414772 0.931560 -40.373383
v 20.252466 0.942555 -40.478016
v 20.423773 1.090601 -40.357677
v 20.598122 1.278746 -39.779934
v 20.812086 1.504845 -39.234062
v 20.715961 1.663665 -39.302986
v 20.740707 1.498772 -38.681263
v 20.568329 1.811465 -38.780392
v 20.437733 1.950914 -38.850601
v 20.904549 1.246189 -38.978374
v 20.854372 1.309909 -39.178699
v 20.863758 1.312069 -38.840401
v 20.907635 1.029690 -38.750664
v 20.926950 0.837189 -38.708038
v 20.870514 0.603051 -38.521420
v 20.875589 0.807220 -38.562889
v 20.208134 1.917271 -39.477558
v 19.935955 2.165275 -39.651855
v 19.742287 2.251854 -39.331905
v 19.625286 2.268512 -39.200211
v 20.308907 0.370891 -40.169819
v 20.212801 0.392029 -40.306705
v 20.241413 0.008411 -40.279190
v 20.398285 -0.457859 -40.163559
v 20.241920 -0.511036 -40.264629
v 20.474434 -0.741917 -39.897835
v 20.555422 -0.804376 -39.660683
v 20.423571 -0.888936 -39.806671
v 20.344034 -1.021949 -39.692265
v 20.381680 -0.621917 -40.120872
v 20.322283 -0.803844 -40.022385
v 20.206699 -0.673989 -40.222511
v 20.146692 -0.838923 -40.136723
v 20.252123 -0.943187 -39.928528
v 20.828766 0.445282 -38.697670
v 20.861095 -0.026692 -38.663246
v 20.876621 -0.285943 -38.678680
v 20.815268 0.000545 -38.460426
v 20.654064 -0.849141 -39.372162
v 20.783358 -0.644208 -39.028427
v 20.704769 -0.808003 -39.083305
v 20.716320 -0.698487 -38.797813
v 20.622255 -0.849330 -38.854496
v 20.395786 -1.081775 -38.962601
v 19.991652 -1.271282 -39.139656
v 20.022894 1.502990 -40.412769
v 20.061699 1.247162 -40.494640
v 19.876513 1.237746 -40.517410
v 19.898115 0.999106 -40.508595
v 19.724304 1.014685 -40.527237
v 19.431561 0.961799 -40.531746
v 19.407707 0.824301 -40.563881
v 19.279896 0.830983 -40.590157
v 19.107021 0.829041 -40.576061
v 18.539276 0.520679 -40.415546
v 18.419092 0.509567 -40.215302
v 18.438210 0.731969 -40.105194
v 18.512562 0.957931 -39.936874
v 18.439375 0.856043 -39.970200
v 18.491568 1.135449 -39.759457
v 18.452852 0.920938 -39.776398
v 19.900116 -0.865059 -40.189808
v 19.450079 -0.880120 -40.128796
v 19.522741 -0.860539 -39.794514
v 19.348879 -0.886729 -40.028893
v 19.197105 -0.906337 -40.082817
v 19.068052 -0.986442 -40.010132
v 19.011063 -1.182313 -39.615829
v 18.658295 -0.405384 -40.223530
v 18.429520 0.315077 -40.232941
v 18.475121 0.123077 -40.220093
v 18.535469 -0.073378 -40.213413
v 18.479540 -0.336021 -40.141060
v 18.942129 -0.867501 -40.085030
v 18.740568 -0.606264 -40.196602
v 18.798508 -0.773090 -40.103195
v 20.231045 2.006207 -38.732548
v 20.222424 0.743784 -38.144539
v 20.233898 0.543784 -38.146591
v 20.051405 2.187261 -38.845398
v 19.853575 2.245836 -38.957130
v 19.786592 2.247329 -38.763748
v 19.520874 2.275615 -39.082005
v 19.410355 2.270659 -38.948997
v 19.662741 2.176569 -38.589352
v 19.471455 2.248496 -38.659279
v 19.309362 2.251986 -38.796436
v 19.392967 2.182637 -38.466866
v 19.850599 0.794692 -37.897659
v 19.700960 0.801512 -37.860779
v 19.565639 0.932770 -37.886639
v 19.313080 2.025985 -38.261909
v 19.032148 1.814971 -38.093674
v 19.139990 1.446180 -37.846378
v 18.966928 1.502991 -37.920742
v 19.466444 0.992959 -37.905285
v 19.123837 1.223136 -37.848896
v 18.928438 1.246752 -37.838627
v 20.751078 0.171988 -38.333698
v 20.344694 -0.418208 -38.093361
v 20.227324 -0.337256 -38.006126
v 20.249254 -0.606265 -38.136909
v 20.109587 -0.738785 -38.145844
v 19.537355 -1.292464 -39.039028
v 19.817764 -1.070606 -38.410015
v 20.014320 -0.288078 -37.973141
v 19.922424 -0.071581 -37.883602
v 19.731213 -0.063852 -37.896126
v 18.644541 1.549817 -39.496593
v 18.551041 1.435547 -39.544502
v 18.468542 1.652884 -39.362423
v 18.434904 1.406545 -39.390434
v 18.466320 1.350263 -39.584957
v 18.439720 1.132017 -39.612217
v 18.809895 2.009582 -38.623440
v 18.680090 1.840914 -38.385197
v 18.446934 1.813999 -38.755653
v 18.747519 1.070227 -37.873035
v 18.566273 0.934260 -37.946083
v 18.388481 1.357151 -38.242729
v 18.368385 1.057805 -38.119423
v 18.267805 1.301086 -38.367489
v 18.235273 1.092827 -38.365570
v 18.462650 0.899312 -38.015072
v 18.437986 0.753677 -38.017830
v 19.124506 -1.269788 -39.354847
v 18.961605 -1.206587 -38.702187
v 18.906960 -1.251596 -38.991890
v 18.367567 -0.849328 -39.479012
v 18.188452 -0.659793 -39.307495
v 18.407869 -0.765650 -38.975887
v 18.128868 -0.512653 -39.354614
v 18.699139 0.197898 -38.224926
v 18.567453 0.185899 -38.299690
v 18.551138 0.407832 -38.144386
v 18.823439 -1.074314 -38.514297
v 18.566254 -0.888933 -38.526836
v 18.433031 -0.805983 -38.672123
v 18.520458 -0.736021 -38.439686
v 18.579914 -0.348008 -38.333054
v 18.454355 0.236961 -38.857895
v 18.298264 0.415731 -39.037109
v 18.331995 0.231463 -39.043964
vn 0.5383 -0.5303 -0.6550
vn 0.9712 -0.0848 -0.2226
vn 0.9980 -0.0498 0.0388
vn 0.9605 0.2079 0.1847
vn 0.6081 0.7781 0.1575
vn 0.0401 -0.9980 0.0497
vn 0.7643 -0.5095 -0.3952
vn 0.9015 -0.3988 0.1682
vn 0.5041 -0.6425 -0.5771
vn 0.6590 -0.5129 -0.5500
vn 0.6516 -0.5496 -0.5228
vn 0.5431 -0.7101 -0.4480
vn -0.4599 -0.1435 -0.8763
vn 0.9757 0.0457 0.2143
vn -0.1248 -0.4596 0.8793
vn 0.7410 -0.3483 -0.5740
vn 0.9699 -0.2433 -0.0119
vn 0.8490 -0.4808 0.2193
vn -0.5301 0.2759 0.8018
vn -0.0328 -0.2480 -0.9682
vn 0.8871 0.2592 0.3819
vn -0.5116 0.6152 -0.5998
vn 0.4547 -0.8572 -0.2415
vn 0.1042 -0.0273 -0.9942
vn 0.0478 -0.2999 -0.9528
vn 0.2072 0.1884 -0.9600
vn -0.8210 -0.1706 0.5449
vn 0.6785 0.6037 -0.4185
vn -0.9334 0.1924 -0.3029
vn -0.7792 0.6087 -0.1496
vn 0.8741 -0.0311 0.4848
vn -0.3212 0.8617 -0.3929
vn 0.0999 0.3170 -0.9432
vn 0.9393 -0.1876 -0.2872
vn 0.5482 -0.0229 -0.8360
vn 0.4267 0.2194 -0.8774
vn -0.3192 -0.0718 0.9449
vn -0.2518 -0.5379 -0.8045
vn 0.1115 -0.9926 0.0472
vn 0.0271 0.9971 0.0706
vn 0.2430 0.9670 0.0767
vn 0.4045 0.7993 0.4444
vn 0.1966 0.9003 0.3883
vn 0.2378 -0.0313 0.9708
vn -0.8234 0.3070 -0.4772
vn 0.5071 -0.7167 0.4787
vn -0.8185 -0.4470 -0.3608
vn -0.2788 0.3308 0.9016
vn 0.5056 0.8316 -0.2298
vn 0.5589 0.3435 0.7548
vn -0.6309 -0.7556 0.1762
vn -0.6436 0.6766 -0.3578
vn 0.0430 -0.9480 0.3152
vn -0.5967 0.7400 -0.3105
vn -0.9873 0.0892 -0.1318
vn 0.3666 -0.3825 0.8481
vn -0.7402 0.1217 0.6613
vn -0.2995 0.8480 0.4372
vn -0.6602 0.0977 0.7447
vn -0.5712 0.0812 0.8168
vn -0.8814 -0.0446 0.4703
vn 0.1008 -0.9942 0.0363
vn -0.7666 -0.4755 0.4315
vn -0.7084 0.5553 0.4357
vn -0.8458 -0.1819 0.5016
vn 0.2147 -0.1720 -0.9614
vn 0.9361 0.0452 -0.3489
vn -0.0241 -0.3728 0.9276
vn -0.0543 -0.8349 0.5478
vn 0.5662 -0.8173 -0.1072
vn -0.9992 0.0087 0.0395
vn 0.9688 0.1553 -0.1933
vn -0.3446 -0.9250 -0.1602
vn 0.7149 -0.2223 0.6629
vn -0.3739 -0.5501 0.7468
vn 0.2323 -0.5140 -0.8257
vn -0.8574 0.0007 -0.5146
vn 0.0640 0.5686 0.8201
vn 0.6703 -0.0223 0.7418
vn 0.5335 -0.5349 -0.6552
vn 0.5452 -0.3183 -0.7755
vn 0.5849 -0.2592 -0.7686
vn 0.1996 -0.8319 -0.5177
vn -0.1554 -0.9537 -0.2575
vn -0.1328 -0.9844 -0.1155
vn -0.1140 -0.8763 -0.4681
vn -0.0690 -0.8666 -0.4941
vn 0.5703 -0.6367 -0.5190
vn -0.2672 -0.3167 0.9101
vn -0.0499 -0.2575 0.9650
vn -0.4253 -0.5409 0.7256
vn -0.0910 -0.4589 0.8838
vn -0.3249 -0.3975 0.8582
vn 0.0653 -0.3450 0.9363
vn -0.0761 -0.4085 0.9096
vn 0.5047 -0.2894 -0.8133
vn 0.9387 0.0461 0.3417
vn 0.9847 -0.1044 -0.1398
vn 0.9744 0.0820 0.2092
vn 0.8246 -0.5552 0.1090
vn -0.4788 0.3323 0.8126
vn -0.5332 0.4927 0.6877
vn -0.5127 0.5120 0.6892
vn -0.5175 0.3554 0.7784
vn -0.5214 0.3501 0.7781
vn -0.5856 0.1731 0.7919
vn 0.0517 -0.1119 -0.9924
vn -0.3930 -0.1176 -0.9120
vn -0.1065 -0.4900 -0.8652
vn -0.6796 -0.2324 -0.6958
vn -0.7120 -0.2139 -0.6688
vn -0.0926 -0.3202 -0.9428
vn -0.0760 -0.2482 -0.9657
vn 0.1701 -0.3578 -0.9182
vn -0.0503 -0.2482 -0.9674
vn 0.0606 -0.2620 -0.9632
vn -0.1312 -0.0821 -0.9879
vn -0.0833 -0.5927 -0.8011
vn -0.0576 -0.4294 -0.9013
vn 0.8661 0.2436 0.4365
vn 0.9170 0.1717 0.3599
vn -0.5018 0.8009 -0.3267
vn -0.4820 0.7938 -0.3709
vn -0.4418 0.7833 -0.4373
vn -0.5515 0.7898 -0.2684
vn -0.9331 0.1543 -0.3250
vn -0.2336 0.5964 -0.7680
vn -0.3486 0.5905 -0.7279
vn -0.4230 0.7725 -0.4735
vn -0.4255 0.7750 -0.4673
vn -0.4639 0.6413 -0.6112
vn -0.3864 0.6444 -0.6599
vn -0.2699 0.4786 -0.8355
vn 0.0085 0.0382 -0.9992
vn -0.0767 0.4793 -0.8743
vn -0.4317 0.6116 -0.6630
vn -0.4440 0.5911 -0.6734
vn -0.5857 0.5992 -0.5457
vn -0.5075 0.6264 -0.5917
vn -0.2880 0.8508 -0.4395
vn 0.3184 -0.8203 -0.4751
vn 0.3657 -0.8229 -0.4348
vn 0.2842 -0.8744 -0.3933
vn 0.2710 -0.8487 -0.4542
vn 0.1274 0.2845 -0.9502
vn 0.7441 0.5437 -0.3882
vn 0.5115 0.6025 -0.6126
vn 0.6825 0.6085 -0.4048
vn 0.8541 0.5200 0.0071
vn 0.6548 0.6648 -0.3596
vn 0.9229 0.1014 -0.3715
vn 0.6628 0.4942 -0.5626
vn 0.4562 0.3333 -0.8251
vn 0.3568 0.9060 -0.2279
vn 0.9873 0.1217 0.1024
vn 0.8972 -0.2347 -0.3741
vn 0.9177 -0.2464 -0.3116
vn 0.9076 -0.2837 -0.3093
vn 0.9300 -0.2990 -0.2137
vn 0.9151 -0.0120 -0.4031
vn 0.9153 0.0818 -0.3944
vn 0.9058 -0.1954 -0.3759
vn 0.9505 -0.1333 -0.2805
vn 0.9670 0.2366 0.0944
vn 0.5436 0.0520 -0.8377
vn 0.0859 -0.0006 -0.9963
vn 0.1233 -0.0255 -0.9920
vn -0.4881 -0.0658 0.8703
vn -0.3277 -0.1142 0.9378
vn -0.2320 -0.0478 0.9715
vn -0.2105 -0.0443 0.9766
vn 0.1194 0.9927 -0.0195
vn 0.0839 0.9964 0.0142
vn 0.0309 0.9975 0.0629
vn -0.0523 0.9948 0.0871
vn 0.1575 0.8711 0.4653
vn 0.0815 0.9965 0.0205
vn 0.4037 0.8018 0.4405
vn 0.2355 0.4158 0.8785
vn -0.0649 0.0108 0.9978
vn 0.5729 -0.6384 0.5140
vn 0.4386 -0.7633 0.4743
vn -0.7994 -0.4017 -0.4467
vn -0.4951 -0.3115 -0.8111
vn -0.6655 -0.5311 -0.5244
vn -0.6604 -0.5282 -0.5337
vn 0.0507 -0.0149 0.9986
vn 0.7270 0.6865 0.0112
vn 0.4964 0.8379 -0.2268
vn 0.5457 0.8246 -0.1488
vn 0.4105 0.8709 -0.2702
vn 0.4667 0.7526 0.4646
vn 0.3484 0.7199 0.6003
vn 0.3110 0.6927 0.6507
vn 0.3642 0.7438 0.5604
vn 0.4827 0.7101 0.5125
vn 0.5068 0.2406 0.8278
vn 0.3812 0.4637 0.7998
vn 0.3110 0.3995 0.8623
vn 0.4765 0.2367 0.8467
vn 0.5218 0.1573 0.8385
vn 0.5694 -0.0581 0.8200
vn 0.1857 0.1534 0.9706
vn 0.1480 -0.0219 0.9887
vn 0.3952 0.4096 0.8222
vn 0.6013 0.3391 0.7235
vn 0.4240 0.1395 0.8948
vn 0.5059 0.0202 0.8624
vn 0.3342 0.3961 0.8552
vn -0.6843 -0.7085 0.1726
vn -0.5463 -0.8059 0.2282
vn -0.6977 -0.7154 -0.0372
vn -0.5837 -0.8007 0.1345
vn -0.6275 -0.7663 0.1379
vn -0.5340 0.1672 -0.8288
vn -0.0517 -0.9853 0.1628
vn -0.0638 -0.9979 0.0118
vn 0.1081 -0.9517 0.2875
vn 0.2854 -0.9045 0.3168
vn -0.9846 0.0636 -0.1629
vn -0.4158 -0.1582 -0.8956
vn -0.9791 -0.1754 -0.1030
vn -0.9034 -0.0812 -0.4211
vn -0.9379 0.3158 -0.1432
vn -0.9828 0.0755 -0.1683
vn -0.9779 0.1514 -0.1441
vn -0.9627 0.2356 -0.1330
vn -0.9870 0.1431 -0.0731
vn -0.9697 0.1429 -0.1980
vn 0.3181 -0.3934 0.8626
vn -0.8343 0.2569 0.4877
vn -0.3492 0.8226 0.4487
vn -0.3649 0.8029 0.4714
vn -0.1894 0.9501 0.2480
vn -0.5320 0.8003 0.2767
vn -0.3408 0.8988 0.2756
vn -0.8499 -0.4088 0.3325
vn -0.9646 -0.1952 0.1776
vn -0.9120 -0.3533 0.2083
vn -0.9142 -0.3642 0.1778
vn -0.7179 0.5618 0.4110
vn -0.9397 0.0511 0.3381
vn -0.9801 -0.0351 0.1954
vn -0.9478 0.0746 0.3099
vn -0.8349 -0.0260 0.5498
vn -0.9955 0.0359 0.0872
vn -0.8119 -0.0219 0.5834
vn 0.2805 -0.0478 -0.9586
vn 0.2998 -0.0264 -0.9536
vn -0.0269 0.2319 -0.9724
vn 0.7228 0.0728 -0.6872
vn 0.8197 0.0201 -0.5724
vn 0.9401 0.0626 -0.3351
vn 0.9588 0.0452 -0.2806
vn 0.8580 -0.2089 -0.4692
vn 0.9433 -0.0430 -0.3292
vn 0.9391 -0.0640 -0.3376
vn 0.9098 -0.4022 -0.1024
vn 0.9413 0.0759 -0.3288
vn 0.9674 0.1026 -0.2316
vn 0.0014 -0.3742 0.9274
vn 0.0216 -0.2075 0.9780
vn 0.0252 -0.2161 0.9761
vn -0.1146 -0.3473 0.9307
vn -0.0283 -0.3517 0.9357
vn 0.7106 -0.6521 -0.2641
vn 0.6993 -0.6305 -0.3369
vn 0.6611 -0.7502 -0.0092
vn 0.6838 -0.7204 0.1165
vn 0.4595 -0.8819 -0.1049
vn -0.9287 -0.1997 0.3124
vn -0.9866 0.0574 -0.1526
vn -0.9269 0.1927 -0.3219
vn -0.9893 -0.1031 0.1033
vn -0.9422 -0.0800 0.3252
vn 0.8362 0.5421 0.0829
vn 0.8539 0.5074 0.1158
vn 0.8723 0.4745 0.1178
vn 0.9121 0.4026 0.0774
vn -0.4816 -0.8586 -0.1757
vn -0.4855 -0.7622 -0.4283
vn -0.4497 -0.7709 -0.4512
vn -0.4588 -0.7676 -0.4476
vn 0.6857 -0.4756 0.5510
vn 0.6223 -0.5840 0.5213
vn 0.7129 -0.4357 0.5494
vn 0.7386 -0.3013 0.6031
vn -0.1947 0.5064 0.8400
vn 0.5552 0.0233 0.8314
vn 0.5713 0.0607 0.8185
s 0
f 34//1 35//1 36//1
f 2//2 3//2 4//2
f 2//3 8//3 3//3
f 14//4 16//4 17//4
f 22//5 23//5 21//5
f 68//6 67//6 66//6
f 31//7 32//7 30//7
f 41//8 46//8 44//8
f 38//9 37//9 35//9
f 30//10 35//10 34//10
f 32//11 35//11 30//11
f 32//12 33//12 38//12
f 73//13 77//13 76//13
f 40//14 42//14 41//14
f 109//15 110//15 112//15
f 26//16 5//16 25//16
f 39//17 18//17 19//17
f 44//18 47//18 45//18
f 123//19 122//19 125//19
f 73//20 56//20 67//20
f 17//21 16//21 11//21
f 58//22 61//22 62//22
f 69//23 68//23 72//23
f 52//24 53//24 54//24
f 54//25 6//25 26//25
f 56//26 57//26 55//26
f 146//27 147//27 145//27
f 2//28 7//28 50//28
f 62//29 65//29 64//29
f 62//30 63//30 65//30
f 103//31 42//31 19//31
f 113//32 121//32 119//32
f 50//33 51//33 52//33
f 39//34 3//34 15//34
f 28//35 29//35 27//35
f 51//36 7//36 6//36
f 100//37 137//37 112//37
f 78//38 80//38 79//38
f 69//39 70//39 67//39
f 88//40 90//40 86//40
f 84//41 85//41 86//41
f 95//42 93//42 82//42
f 89//43 90//43 92//43
f 112//44 93//44 94//44
f 59//45 60//45 61//45
f 47//46 107//46 48//46
f 133//47 134//47 136//47
f 102//48 98//48 99//48
f 84//49 13//49 21//49
f 89//50 96//50 100//50
f 135//51 134//51 133//51
f 116//52 113//52 114//52
f 109//53 131//53 108//53
f 114//54 117//54 116//54
f 116//55 118//55 146//55
f 105//56 106//56 104//56
f 127//57 124//57 126//57
f 120//58 97//58 119//58
f 129//59 128//59 125//59
f 128//60 129//60 123//60
f 129//61 125//61 127//61
f 68//62 69//62 67//62
f 143//63 142//63 141//63
f 120//64 126//64 124//64
f 136//65 134//65 135//65
f 26//66 56//66 54//66
f 25//67 44//67 31//67
f 139//68 137//68 122//68
f 109//69 140//69 131//69
f 43//70 48//70 33//70
f 65//71 61//71 74//71
f 14//72 15//72 9//72
f 72//73 130//73 132//73
f 42//74 103//74 104//74
f 137//75 139//75 138//75
f 36//76 37//76 66//76
f 59//77 74//77 60//77
f 97//78 98//78 96//78
f 111//79 110//79 83//79
f 37//80 36//80 35//80
f 36//81 29//81 34//81
f 29//82 28//82 34//82
f 37//83 38//83 66//83
f 38//84 33//84 68//84
f 66//85 38//85 68//85
f 33//86 49//86 68//86
f 49//87 108//87 68//87
f 32//88 38//88 35//88
f 112//89 144//89 140//89
f 144//90 143//90 140//90
f 143//91 141//91 140//91
f 140//92 109//92 112//92
f 109//93 107//93 110//93
f 107//94 105//94 110//94
f 110//95 111//95 112//95
f 26//96 6//96 5//96
f 20//97 19//97 18//97
f 19//98 42//98 39//98
f 42//99 40//99 39//99
f 44//100 46//100 47//100
f 122//101 102//101 99//101
f 99//102 97//102 120//102
f 120//103 124//103 99//103
f 124//104 125//104 122//104
f 99//105 124//105 122//105
f 125//106 128//106 123//106
f 79//107 73//107 67//107
f 73//108 76//108 58//108
f 79//109 67//109 70//109
f 76//110 75//110 59//110
f 75//111 74//111 59//111
f 59//112 58//112 76//112
f 58//113 57//113 73//113
f 57//114 56//114 73//114
f 56//115 29//115 67//115
f 29//116 36//116 66//116
f 67//117 29//117 66//117
f 70//118 71//118 78//118
f 78//119 79//119 70//119
f 11//120 20//120 17//120
f 20//121 18//121 17//121
f 113//122 119//122 91//122
f 88//123 87//123 113//123
f 87//124 24//124 113//124
f 113//125 91//125 88//125
f 118//126 117//126 64//126
f 117//127 114//127 64//127
f 114//128 113//128 64//128
f 113//129 24//129 23//129
f 23//130 22//130 113//130
f 22//131 50//131 55//131
f 113//132 22//132 55//132
f 50//133 52//133 55//133
f 52//134 54//134 55//134
f 55//135 57//135 58//135
f 62//136 64//136 55//136
f 64//137 113//137 55//137
f 61//138 63//138 62//138
f 58//139 59//139 61//139
f 55//140 58//140 62//140
f 68//141 108//141 130//141
f 130//142 72//142 68//142
f 72//143 71//143 69//143
f 71//144 70//144 69//144
f 54//145 53//145 6//145
f 22//146 21//146 50//146
f 21//147 10//147 8//147
f 50//148 21//148 8//148
f 10//149 9//149 1//149
f 8//150 2//150 50//150
f 2//151 4//151 7//151
f 10//152 1//152 8//152
f 7//153 51//153 50//153
f 113//154 115//154 121//154
f 17//155 18//155 14//155
f 18//156 39//156 15//156
f 39//157 25//157 3//157
f 25//158 5//158 4//158
f 3//159 25//159 4//159
f 5//160 7//160 4//160
f 3//161 8//161 15//161
f 8//162 1//162 15//162
f 18//163 15//163 14//163
f 1//164 9//164 15//164
f 5//165 6//165 7//165
f 6//166 53//166 51//166
f 53//167 52//167 51//167
f 138//168 144//168 137//168
f 144//169 112//169 137//169
f 112//170 94//170 95//170
f 95//171 100//171 112//171
f 85//172 23//172 24//172
f 24//173 87//173 85//173
f 87//174 88//174 86//174
f 88//175 91//175 90//175
f 90//176 89//176 86//176
f 86//177 85//177 87//177
f 82//178 100//178 95//178
f 95//179 94//179 93//179
f 112//180 111//180 93//180
f 106//181 107//181 47//181
f 107//182 109//182 48//182
f 136//183 77//183 133//183
f 77//184 73//184 79//184
f 133//185 77//185 80//185
f 79//186 80//186 77//186
f 102//187 101//187 98//187
f 12//188 10//188 13//188
f 10//189 21//189 13//189
f 21//190 23//190 85//190
f 85//191 84//191 21//191
f 84//192 81//192 13//192
f 81//193 84//193 86//193
f 89//194 92//194 96//194
f 81//195 86//195 89//195
f 12//196 13//196 81//196
f 20//197 11//197 82//197
f 11//198 12//198 81//198
f 82//199 11//199 81//199
f 103//200 19//200 83//200
f 19//201 20//201 82//201
f 105//202 104//202 103//202
f 83//203 110//203 105//203
f 101//204 100//204 98//204
f 100//205 82//205 89//205
f 98//206 100//206 96//206
f 83//207 105//207 103//207
f 82//208 83//208 19//208
f 81//209 89//209 82//209
f 133//210 132//210 135//210
f 132//211 131//211 141//211
f 135//212 132//212 142//212
f 131//213 140//213 141//213
f 141//214 142//214 132//214
f 116//215 115//215 113//215
f 131//216 132//216 108//216
f 132//217 130//217 108//217
f 108//218 49//218 109//218
f 49//219 48//219 109//219
f 118//220 75//220 146//220
f 75//221 76//221 77//221
f 146//222 75//222 147//222
f 77//223 136//223 75//223
f 136//224 147//224 75//224
f 146//225 127//225 116//225
f 127//226 126//226 116//226
f 126//227 121//227 116//227
f 121//228 115//228 116//228
f 116//229 117//229 118//229
f 105//230 107//230 106//230
f 127//231 125//231 124//231
f 97//232 96//232 119//232
f 96//233 92//233 119//233
f 92//234 90//234 91//234
f 119//235 121//235 120//235
f 92//236 91//236 119//236
f 146//237 145//237 127//237
f 145//238 138//238 139//238
f 127//239 145//239 139//239
f 139//240 129//240 127//240
f 120//241 121//241 126//241
f 143//242 144//242 142//242
f 144//243 138//243 145//243
f 142//244 144//244 145//244
f 145//245 147//245 135//245
f 142//246 145//246 135//246
f 147//247 136//247 135//247
f 26//248 27//248 56//248
f 27//249 29//249 56//249
f 56//250 55//250 54//250
f 28//251 27//251 25//251
f 27//252 26//252 25//252
f 25//253 39//253 44//253
f 39//254 40//254 44//254
f 30//255 34//255 28//255
f 43//256 31//256 44//256
f 31//257 30//257 28//257
f 44//258 45//258 43//258
f 40//259 41//259 44//259
f 28//260 25//260 31//260
f 137//261 100//261 122//261
f 100//262 101//262 122//262
f 101//263 102//263 122//263
f 122//264 123//264 139//264
f 123//265 129//265 139//265
f 32//266 31//266 33//266
f 31//267 43//267 33//267
f 43//268 45//268 48//268
f 45//269 47//269 48//269
f 48//270 49//270 33//270
f 74//271 75//271 65//271
f 75//272 118//272 65//272
f 118//273 64//273 65//273
f 65//274 63//274 61//274
f 61//275 60//275 74//275
f 9//276 10//276 12//276
f 12//277 11//277 9//277
f 11//278 16//278 9//278
f 16//279 14//279 9//279
f 132//280 133//280 72//280
f 133//281 80//281 72//281
f 80//282 78//282 72//282
f 78//283 71//283 72//283
f 104//284 106//284 46//284
f 106//285 47//285 46//285
f 46//286 41//286 104//286
f 41//287 42//287 104//287
f 97//288 99//288 98//288
f 83//289 82//289 93//289
f 93//290 111//290 83//290
