# Blender 3.4.1
# www.blender.org
o Cube.036
v 158.617355 -12.086453 -111.296234
v 159.240814 -11.630264 -111.523453
v 160.549194 -11.390436 -111.649963
v 160.464722 -11.684515 -110.673080
v 157.420700 -10.759105 -111.804321
v 157.196701 -10.722415 -111.637070
v 160.007507 -10.559810 -112.304535
v 157.832855 -9.171048 -111.467979
v 156.464813 -12.045633 -111.006416
v 158.303955 -12.243633 -111.157913
v 157.007217 -12.002708 -109.639534
v 158.134567 -12.544767 -110.196335
v 155.903244 -11.474048 -110.957588
v 156.514603 -10.629583 -111.117676
v 160.667862 -10.174346 -112.497528
v 161.364822 -10.802633 -111.870850
v 160.954590 -9.495295 -112.232346
v 160.043625 -8.056224 -112.061623
v 161.699265 -9.665895 -111.888481
v 162.103012 -9.077283 -111.839775
v 162.507004 -8.957394 -111.524254
v 161.659134 -7.575133 -111.996178
v 163.339981 -8.053411 -111.240494
v 163.944275 -8.124728 -110.146736
v 162.932114 -7.002797 -111.554199
v 163.330612 -6.960299 -110.726646
v 163.926895 -6.977605 -109.988434
v 160.504669 -11.963920 -109.342903
v 160.967163 -11.676788 -109.582230
v 158.455811 -12.776937 -109.428680
v 159.225189 -11.941492 -107.357300
v 161.004959 -11.568194 -108.645531
v 159.517868 -11.691505 -107.089699
v 160.758301 -9.883807 -106.492104
v 162.380569 -10.516819 -109.688744
v 162.759262 -9.750329 -109.564240
v 161.997238 -10.722921 -108.478462
v 161.733276 -10.144360 -107.453117
v 162.403656 -8.878454 -107.396057
v 164.034027 -8.159696 -109.876305
v 164.034973 -8.150583 -109.877052
v 164.191391 -7.637968 -109.534378
v 163.037521 -8.191755 -107.830399
v 155.922928 -10.218594 -110.120995
v 156.190628 -9.380795 -110.211212
v 155.967712 -10.480906 -108.874794
v 156.432159 -8.727333 -109.894203
v 156.213501 -9.663677 -108.396591
v 157.441177 -8.568611 -110.739929
v 158.173737 -7.075078 -108.812233
v 159.632889 -7.170222 -111.052391
v 160.546722 -6.066845 -109.902969
v 159.313721 -6.217462 -109.080078
v 160.311951 -6.068356 -108.911278
v 161.977997 -5.730668 -110.792976
v 163.877991 -6.208753 -109.676994
v 161.793411 -5.554955 -110.474876
v 162.587784 -5.271613 -109.140274
v 162.811127 -5.334617 -109.310699
v 159.358017 -6.147939 -109.112045
v 157.111481 -10.643919 -107.361938
v 157.841263 -11.061500 -107.119171
v 156.799088 -8.990492 -107.223251
v 158.763321 -10.771646 -106.449837
v 159.380936 -8.755646 -106.106781
v 159.960236 -9.353901 -105.799484
v 159.889923 -9.010890 -105.887779
v 158.818787 -6.942805 -107.459717
v 161.031021 -8.487130 -106.829239
v 162.028641 -8.167667 -107.202621
v 160.856720 -6.644114 -107.303139
v 160.222122 -7.693445 -106.705139
v 161.499817 -7.450047 -107.101761
v 163.249405 -5.813300 -108.660889
v 163.120163 -7.732376 -107.793518
v 162.452621 -5.878661 -108.094078
v 162.961472 -5.761120 -108.462898
v 160.101898 -6.281698 -107.761108
v 160.234543 -6.317180 -107.872887
v 163.686737 -9.284438 -111.915665
v 163.310364 -9.379810 -111.531502
v 162.757248 -9.113249 -110.864861
v 163.362732 -8.822400 -110.689011
v 163.757751 -10.514273 -112.181473
v 163.932129 -10.582520 -112.220291
v 162.534302 -9.867005 -111.042938
v 163.724197 -11.244317 -111.311760
v 164.621964 -9.961355 -112.831245
v 163.886185 -9.274378 -112.075287
v 165.209991 -9.602092 -112.109467
v 164.513657 -9.009315 -111.947411
v 164.822708 -10.465175 -112.879982
v 164.469879 -10.777919 -112.341881
v 162.167877 -9.904466 -110.655060
v 162.309128 -9.221202 -110.340424
v 162.183594 -10.162334 -110.190742
v 162.536285 -11.260546 -110.058273
v 162.122711 -9.770356 -109.783844
v 161.976791 -9.971180 -109.366859
v 162.007202 -9.861265 -109.028488
v 161.971313 -11.004201 -109.096863
v 161.826767 -10.068866 -108.218185
v 162.241562 -9.665342 -107.597015
v 161.740585 -10.854060 -108.142738
v 162.070648 -10.623343 -107.666512
v 162.281601 -10.307686 -107.146591
v 164.125671 -8.445866 -110.332855
v 163.808411 -8.497858 -110.089272
v 164.850677 -8.654526 -111.625008
v 165.722290 -8.570940 -110.283073
v 164.327011 -8.405479 -109.725586
v 165.758606 -8.579340 -109.967285
v 165.567413 -9.127704 -108.539558
v 163.183380 -8.724281 -109.039757
v 163.081085 -9.024158 -108.546783
v 164.025482 -8.545411 -108.898499
v 164.679672 -8.808053 -108.482796
v 164.409378 -9.311373 -107.695930
v 162.366348 -9.574919 -107.477989
v 162.365128 -9.579976 -107.474556
v 162.480270 -9.772388 -107.105904
v 163.898956 -9.567719 -107.292992
v 165.233337 -11.054590 -112.151062
v 165.044022 -11.464216 -111.756065
v 165.945496 -10.699128 -111.814079
v 165.106949 -11.714103 -111.305367
v 166.091263 -11.017417 -111.250404
v 164.252335 -11.607385 -111.045898
v 165.021973 -11.936729 -109.535255
v 163.218521 -11.750314 -109.608734
v 163.495987 -11.914713 -108.405334
v 164.417313 -12.102158 -108.776077
v 164.149261 -11.838858 -108.192467
v 162.455902 -11.780136 -107.896378
v 162.439621 -10.719011 -106.795113
v 162.695816 -11.892716 -107.817657
v 163.163116 -11.595215 -106.901215
v 162.988464 -11.512505 -106.873077
v 164.379654 -12.132723 -108.740814
v 166.412155 -10.004113 -110.831070
v 166.310867 -9.490085 -110.551994
v 166.521408 -11.036719 -110.348038
v 166.350327 -9.256299 -109.790604
v 166.225754 -10.165260 -108.669083
v 166.224365 -9.586082 -108.504578
v 166.181824 -9.819920 -108.445381
v 165.560532 -11.597862 -108.737625
v 165.206818 -9.895277 -108.024971
v 164.619354 -9.812900 -107.559036
v 164.905655 -11.085667 -107.609840
v 165.528275 -10.595724 -108.088043
v 164.830963 -10.382311 -107.523331
v 163.228195 -10.995732 -106.621010
v 163.867676 -9.799956 -107.078644
v 163.842102 -11.129943 -106.837761
v 163.442352 -11.088939 -106.674698
v 164.895157 -11.608816 -107.990974
v 164.785263 -11.562418 -107.977043
vn 0.1963 -0.7189 -0.6669
vn 0.2300 -0.7290 -0.6447
vn 0.3725 -0.8945 -0.2473
vn 0.0152 0.2963 0.9550
vn 0.4568 0.0979 0.8842
vn 0.0782 0.4765 0.8757
vn -0.4825 -0.7000 -0.5266
vn -0.0593 -0.9786 -0.1969
vn -0.5616 -0.7643 0.3170
vn -0.5714 0.1492 -0.8070
vn 0.0209 -0.8042 -0.5940
vn 0.1286 0.1275 -0.9835
vn -0.4337 -0.1649 -0.8859
vn -0.4389 0.3729 -0.8175
vn -0.6095 -0.1520 -0.7781
vn 0.5430 -0.8386 -0.0437
vn 0.5484 -0.5819 -0.6005
vn -0.1165 -0.4960 -0.8605
vn 0.9932 -0.0703 0.0927
vn 0.8656 -0.2551 -0.4309
vn 0.5274 0.3711 -0.7642
vn -0.5872 0.7095 -0.3896
vn -0.4729 -0.6065 0.6392
vn -0.0494 -0.9971 0.0586
vn 0.1063 -0.8864 0.4505
vn -0.0574 -0.2584 -0.9643
vn 0.6454 0.0904 0.7584
vn 0.6698 0.5521 0.4966
vn 0.1175 0.2821 -0.9521
vn 0.7419 -0.1551 -0.6523
vn 0.4549 -0.1902 -0.8700
vn 0.4789 -0.1124 -0.8706
vn -0.0104 -0.0072 -0.9999
vn -0.4455 0.6842 -0.5775
vn -0.6256 -0.4075 0.6653
vn -0.2279 -0.3616 0.9041
vn 0.4213 0.0857 0.9029
vn 0.2024 0.6450 0.7369
vn 0.3293 0.2623 0.9071
vn -0.0348 0.6625 0.7482
vn 0.5669 -0.3247 0.7571
vn 0.2691 -0.7190 0.6408
vn -0.6645 0.7442 0.0684
vn -0.9154 0.2240 0.3345
vn -0.7422 0.2791 0.6093
vn -0.2920 0.2960 0.9095
vn -0.4095 0.7177 0.5632
vn 0.5866 -0.5312 0.6113
vn 0.8489 -0.5276 0.0304
vn 0.8735 0.3612 -0.3263
vn -0.1923 0.9702 0.1477
vn -0.3898 0.8888 -0.2411
vn -0.9090 -0.2628 0.3235
vn 0.7968 0.5708 -0.1981
vn 0.1268 0.9905 0.0535
vn -0.1246 0.6601 -0.7407
vn 0.1004 -0.0638 0.9929
vn 0.4624 -0.8483 0.2581
vn 0.7863 -0.5143 0.3424
vn 0.7116 -0.4399 -0.5478
vn 0.4766 -0.8749 0.0866
vn 0.1411 0.7712 -0.6208
vn -0.2591 0.3355 -0.9057
vn 0.1490 0.8865 0.4380
vn 0.4141 0.8516 -0.3213
vn -0.9590 0.1984 -0.2024
vn -0.8263 -0.3026 -0.4751
vn 0.7328 0.4759 -0.4864
vn 0.8492 0.1050 -0.5176
vn 0.6066 -0.2439 0.7567
vn 0.7340 -0.2757 0.6207
vn 0.8130 -0.5812 -0.0346
vn -0.8235 0.4173 -0.3842
vn 0.9614 -0.2696 0.0556
vn 0.8385 -0.2993 0.4554
vn 0.4718 0.5532 0.6866
vn -0.6152 0.5545 -0.5604
vn -0.6134 0.5843 -0.5313
vn -0.3404 0.8821 -0.3257
vn 0.7782 -0.0299 0.6273
vn 0.4997 0.3336 0.7994
vn 0.6647 -0.1707 0.7274
vn -0.1394 0.2457 -0.9593
vn -0.0635 0.7586 -0.6484
vn 0.6208 0.4520 -0.6406
vn -0.3920 -0.5810 -0.7133
vn -0.4546 0.5596 -0.6930
vn -0.9093 -0.2678 -0.3185
vn -0.5084 -0.2661 -0.8190
vn -0.4873 -0.7100 -0.5084
vn -0.3254 -0.3369 -0.8835
vn -0.2622 0.9618 -0.0783
vn -0.7550 0.6213 -0.2095
vn -0.6301 0.1724 -0.7571
vn -0.4409 0.5550 0.7054
vn -0.8029 0.5334 0.2660
vn -0.9523 -0.2348 0.1948
vn -0.0715 -0.9706 -0.2297
vn 0.8349 0.4327 -0.3401
vn 0.1487 0.8364 -0.5276
vn 0.3900 0.9048 -0.1710
vn -0.7666 -0.0246 -0.6416
vn 0.2943 0.4020 0.8671
vn 0.0260 -0.0374 0.9990
vn -0.8883 -0.3973 -0.2303
vn -0.9323 0.3397 0.1244
vn -0.9623 0.1835 -0.2006
vn -0.9813 0.1287 -0.1434
vn -0.8400 -0.2234 -0.4945
vn -0.3035 -0.9236 -0.2343
vn 0.9231 0.1966 -0.3306
vn 0.9117 0.4012 0.0881
vn 0.5352 0.3313 0.7771
vn 0.4693 -0.2856 0.8356
vn 0.5743 0.1382 0.8069
vn 0.6028 -0.4113 0.6837
vn 0.3650 0.7166 0.5943
vn 0.4528 0.8831 0.1228
vn 0.3542 -0.9341 -0.0444
vn 0.7500 -0.5524 -0.3638
vn 0.8869 -0.4548 -0.0806
vn 0.9019 -0.1867 0.3895
vn 0.6402 -0.6787 0.3600
vn 0.2464 0.8687 0.4297
vn -0.3839 0.8605 0.3349
vn -0.7638 0.0373 0.6444
vn 0.1554 -0.8827 0.4436
vn -0.0633 -0.9952 0.0744
vn 0.7730 -0.1384 -0.6192
vn -0.6302 -0.1486 0.7621
vn -0.0943 -0.7686 0.6327
vn -0.6093 -0.7865 -0.1005
vn 0.7917 0.3251 0.5172
vn 0.0364 0.9993 0.0060
vn -0.0878 0.8894 0.4487
vn -0.8070 0.5906 0.0048
vn -0.1143 0.9902 -0.0809
vn -0.6563 -0.7270 0.2021
vn -0.6541 -0.6121 -0.4444
vn 0.2269 -0.5834 0.7798
vn -0.5529 -0.5976 0.5806
vn 0.3205 -0.6721 -0.6675
vn 0.0566 -0.2444 -0.9680
vn -0.8333 -0.1633 0.5281
vn -0.8940 0.2003 0.4008
vn 0.3378 0.6668 0.6642
vn 0.1578 0.7242 0.6712
vn -0.4159 0.8743 0.2502
vn 0.0792 -0.8342 -0.5458
vn -0.4408 0.7008 0.5609
vn -0.0355 0.7571 0.6524
vn 0.2913 -0.0903 0.9524
vn -0.6931 0.6195 -0.3686
vn -0.1767 0.9256 -0.3347
vn 0.3363 0.5048 0.7950
vn 0.0087 -0.9400 -0.3410
vn -0.2577 -0.9457 0.1980
vn 0.4581 -0.0896 0.8844
s 1
f 2//1 3//2 4//3
f 67//4 69//5 72//6
f 9//7 12//8 11//9
f 9//7 14//10 10//11
f 17//12 5//13 8//14
f 10//11 6//15 5//13
f 29//16 4//3 16//17
f 1//18 2//1 4//3
f 42//19 24//20 25//21
f 14//10 49//22 8//14
f 62//23 30//24 31//25
f 10//11 7//26 2//1
f 75//27 42//19 74//28
f 22//29 23//30 20//31
f 19//32 15//33 17//12
f 51//34 8//14 49//22
f 61//35 64//36 67//4
f 70//37 74//28 76//38
f 73//39 71//40 72//6
f 34//41 64//36 33//42
f 50//43 48//44 63//45
f 65//46 68//47 63//45
f 38//48 36//49 42//19
f 53//50 54//51 52//52
f 61//35 48//44 46//53
f 56//54 58//55 59//56
f 34//41 69//5 66//57
f 58//55 52//52 54//51
f 34//41 32//58 37//59
f 21//60 19//32 23//30
f 33//42 30//24 28//61
f 73//39 69//5 70//37
f 55//62 22//29 18//63
f 79//64 53//50 60//65
f 44//66 14//10 13//67
f 13//67 46//53 44//66
f 26//68 56//54 27//69
f 60//65 53//50 51//34
f 64//36 31//25 33//42
f 39//70 69//5 38//48
f 43//71 70//37 39//70
f 11//9 12//8 30//24
f 61//35 13//67 11//9
f 21//60 35//72 16//17
f 58//55 26//68 55//62
f 48//44 45//73 44//66
f 24//20 41//74 40//75
f 24//20 36//49 21//60
f 68//47 72//6 79//64
f 77//76 58//55 76//38
f 59//56 74//28 56//54
f 76//38 54//51 71//40
f 54//51 79//64 71//40
f 22//29 19//32 17//12
f 28//61 12//8 1//18
f 7//26 17//12 15//33
f 2//1 15//33 16//17
f 37//59 29//16 35//72
f 68//47 60//65 50//43
f 56//54 42//19 27//69
f 81//77 82//78 83//79
f 146//80 148//81 151//82
f 88//83 91//84 90//85
f 88//83 93//86 89//87
f 96//88 84//89 87//90
f 89//87 85//91 84//89
f 108//92 83//79 95//93
f 80//94 81//77 83//79
f 121//95 103//96 104//97
f 93//86 128//98 87//90
f 141//99 109//100 110//101
f 89//87 86//102 81//77
f 154//103 121//95 153//104
f 101//105 102//106 99//107
f 98//108 94//109 96//88
f 130//110 87//90 128//98
f 140//111 143//112 146//80
f 149//113 153//104 155//114
f 152//115 150//116 151//82
f 113//117 143//112 112//118
f 129//119 127//120 142//121
f 144//122 147//123 142//121
f 117//124 115//125 121//95
f 132//126 133//127 131//128
f 140//111 127//120 125//129
f 135//130 137//131 138//132
f 113//117 148//81 145//133
f 137//131 131//128 133//127
f 113//117 111//134 116//135
f 100//136 98//108 102//106
f 112//118 109//100 107//137
f 152//115 148//81 149//113
f 134//138 101//105 97//139
f 158//140 132//126 139//141
f 123//142 93//86 92//143
f 92//143 125//129 123//142
f 105//144 135//130 106//145
f 139//141 132//126 130//110
f 143//112 110//101 112//118
f 118//146 148//81 117//124
f 122//147 149//113 118//146
f 90//85 91//84 109//100
f 140//111 92//143 90//85
f 100//136 114//148 95//93
f 137//131 105//144 134//138
f 127//120 124//149 123//142
f 103//96 120//150 119//151
f 103//96 115//125 100//136
f 147//123 151//82 158//140
f 156//152 137//131 155//114
f 138//132 153//104 135//130
f 155//114 133//127 150//116
f 133//127 158//140 150//116
f 101//105 98//108 96//88
f 107//137 91//84 80//94
f 86//102 96//88 94//109
f 81//77 94//109 95//93
f 116//135 108//92 114//148
f 147//123 139//141 129//119
f 135//130 121//95 106//145
f 67//4 66//57 69//5
f 9//7 10//11 12//8
f 9//7 13//67 14//10
f 8//14 18//63 17//12
f 17//12 7//26 5//13
f 5//13 6//15 8//14
f 10//11 14//10 6//15
f 16//17 35//72 29//16
f 29//16 28//61 4//3
f 4//3 3//2 16//17
f 26//68 27//69 42//19
f 42//19 41//74 24//20
f 24//20 23//30 25//21
f 25//21 26//68 42//19
f 8//14 6//15 14//10
f 14//10 45//73 49//22
f 62//23 61//35 30//24
f 2//1 1//18 10//11
f 10//11 5//13 7//26
f 75//27 43//71 42//19
f 22//29 25//21 23//30
f 19//32 16//17 15//33
f 51//34 18//63 8//14
f 65//46 63//45 61//35
f 61//35 62//23 64//36
f 64//36 66//57 67//4
f 67//4 65//46 61//35
f 76//38 73//39 70//37
f 70//37 75//27 74//28
f 74//28 77//76 76//38
f 73//39 76//38 71//40
f 34//41 66//57 64//36
f 63//45 68//47 50//43
f 50//43 47//153 48//44
f 43//71 39//70 38//48
f 38//48 37//59 35//72
f 36//49 40//75 41//74
f 38//48 35//72 36//49
f 42//19 43//71 38//48
f 36//49 41//74 42//19
f 61//35 63//45 48//44
f 34//41 38//48 69//5
f 58//55 57//154 52//52
f 37//59 38//48 34//41
f 34//41 33//42 32//58
f 21//60 16//17 19//32
f 19//32 20//31 23//30
f 23//30 24//20 21//60
f 29//16 32//58 33//42
f 33//42 31//25 30//24
f 28//61 29//16 33//42
f 73//39 72//6 69//5
f 18//63 51//34 55//62
f 55//62 25//21 22//29
f 60//65 78//155 79//64
f 79//64 54//51 53//50
f 44//66 45//73 14//10
f 47//153 50//43 60//65
f 45//73 47//153 60//65
f 51//34 49//22 45//73
f 57//154 55//62 51//34
f 52//52 57//154 51//34
f 51//34 45//73 60//65
f 53//50 52//52 51//34
f 64//36 62//23 31//25
f 39//70 70//37 69//5
f 43//71 75//27 70//37
f 11//9 30//24 61//35
f 61//35 46//53 13//67
f 13//67 9//7 11//9
f 21//60 36//49 35//72
f 55//62 57//154 58//55
f 58//55 56//54 26//68
f 26//68 25//21 55//62
f 44//66 46//53 48//44
f 48//44 47//153 45//73
f 24//20 40//75 36//49
f 79//64 78//155 68//47
f 68//47 65//46 67//4
f 72//6 71//40 79//64
f 68//47 67//4 72//6
f 77//76 59//56 58//55
f 59//56 77//76 74//28
f 76//38 58//55 54//51
f 17//12 18//63 22//29
f 22//29 20//31 19//32
f 1//18 4//3 28//61
f 28//61 30//24 12//8
f 12//8 10//11 1//18
f 16//17 3//2 2//1
f 2//1 7//26 15//33
f 37//59 32//58 29//16
f 68//47 78//155 60//65
f 56//54 74//28 42//19
f 146//80 145//133 148//81
f 88//83 89//87 91//84
f 88//83 92//143 93//86
f 87//90 97//139 96//88
f 96//88 86//102 84//89
f 84//89 85//91 87//90
f 89//87 93//86 85//91
f 95//93 114//148 108//92
f 108//92 107//137 83//79
f 83//79 82//78 95//93
f 105//144 106//145 121//95
f 121//95 120//150 103//96
f 103//96 102//106 104//97
f 104//97 105//144 121//95
f 87//90 85//91 93//86
f 93//86 124//149 128//98
f 141//99 140//111 109//100
f 81//77 80//94 89//87
f 89//87 84//89 86//102
f 154//103 122//147 121//95
f 101//105 104//97 102//106
f 98//108 95//93 94//109
f 130//110 97//139 87//90
f 144//122 142//121 140//111
f 140//111 141//99 143//112
f 143//112 145//133 146//80
f 146//80 144//122 140//111
f 155//114 152//115 149//113
f 149//113 154//103 153//104
f 153//104 156//152 155//114
f 152//115 155//114 150//116
f 113//117 145//133 143//112
f 142//121 147//123 129//119
f 129//119 126//156 127//120
f 122//147 118//146 117//124
f 117//124 116//135 114//148
f 115//125 119//151 120//150
f 117//124 114//148 115//125
f 121//95 122//147 117//124
f 115//125 120//150 121//95
f 140//111 142//121 127//120
f 113//117 117//124 148//81
f 137//131 136//157 131//128
f 116//135 117//124 113//117
f 113//117 112//118 111//134
f 100//136 95//93 98//108
f 98//108 99//107 102//106
f 102//106 103//96 100//136
f 108//92 111//134 112//118
f 112//118 110//101 109//100
f 107//137 108//92 112//118
f 152//115 151//82 148//81
f 97//139 130//110 134//138
f 134//138 104//97 101//105
f 139//141 157//158 158//140
f 158//140 133//127 132//126
f 123//142 124//149 93//86
f 126//156 129//119 139//141
f 124//149 126//156 139//141
f 130//110 128//98 124//149
f 136//157 134//138 130//110
f 131//128 136//157 130//110
f 130//110 124//149 139//141
f 132//126 131//128 130//110
f 143//112 141//99 110//101
f 118//146 149//113 148//81
f 122//147 154//103 149//113
f 90//85 109//100 140//111
f 140//111 125//129 92//143
f 92//143 88//83 90//85
f 100//136 115//125 114//148
f 134//138 136//157 137//131
f 137//131 135//130 105//144
f 105//144 104//97 134//138
f 123//142 125//129 127//120
f 127//120 126//156 124//149
f 103//96 119//151 115//125
f 158//140 157//158 147//123
f 147//123 144//122 146//80
f 151//82 150//116 158//140
f 147//123 146//80 151//82
f 156//152 138//132 137//131
f 138//132 156//152 153//104
f 155//114 137//131 133//127
f 96//88 97//139 101//105
f 101//105 99//107 98//108
f 80//94 83//79 107//137
f 107//137 109//100 91//84
f 91//84 89//87 80//94
f 95//93 82//78 81//77
f 81//77 86//102 94//109
f 116//135 111//134 108//92
f 147//123 157//158 139//141
f 135//130 153//104 121//95
