# Blender 3.4.1
# www.blender.org
o Cylinder.002
v 63.556553 -0.432569 10.379034
v 63.569626 3.052244 10.076496
v 62.098465 -0.432569 9.988340
v 62.266579 3.052244 9.727346
v 61.031067 -0.432569 8.920945
v 61.312683 3.052244 8.773450
v 60.640373 -0.432569 7.462856
v 60.963535 3.052244 7.470404
v 61.031067 -0.432569 6.004767
v 61.312683 3.052244 6.167357
v 62.098465 -0.432569 4.937372
v 62.266579 3.052244 5.213461
v 63.556553 -0.432569 4.546678
v 63.569626 3.052244 4.864311
v 65.014641 -0.432569 4.937372
v 64.872673 3.052244 5.213461
v 66.082039 -0.432569 6.004767
v 65.826569 3.052244 6.167357
v 66.020752 0.364769 8.245702
v 65.801262 2.243543 8.118979
v 65.466621 0.364769 9.205492
v 65.247131 2.243543 9.078771
v 62.098465 3.052244 9.988340
v 63.556553 3.052244 10.379034
v 61.031067 3.052244 8.920945
v 60.640373 3.052244 7.462856
v 61.031067 3.052244 6.004767
v 62.098465 3.052244 4.937372
v 63.556553 3.052244 4.546678
v 65.014641 3.052244 4.937372
v 66.082039 3.052244 6.004767
v 66.020752 2.243543 8.245702
v 65.466621 2.243543 9.205492
v 62.266579 0.364769 9.727346
v 63.569626 0.364769 10.076496
v 61.312683 0.364769 8.773450
v 60.963535 0.364769 7.470404
v 61.312683 0.364769 6.167357
v 62.266579 0.364769 5.213461
v 63.569626 0.364769 4.864311
v 64.872673 0.364769 5.213461
v 65.826569 0.364769 6.167357
v 65.801262 0.364769 8.118979
v 65.247131 0.364769 9.078771
v 64.872673 3.052244 9.727346
v 66.175720 3.052244 7.470404
v 64.872673 0.364769 9.727346
v 66.175720 0.364769 7.470404
v 66.472733 3.052244 7.462856
v 66.472733 -0.432569 7.462856
v 65.014641 -0.432569 9.988340
v 65.014641 3.052244 9.988340
vn -0.2588 -0.0000 0.9659
vn -0.7071 -0.0000 0.7071
vn -0.9659 -0.0000 0.2588
vn -0.9659 -0.0000 -0.2588
vn -0.7071 -0.0000 -0.7071
vn -0.2588 -0.0000 -0.9659
vn 0.2588 -0.0000 -0.9659
vn 0.7071 -0.0000 -0.7071
vn 0.9659 -0.0000 -0.2588
vn -0.0000 1.0000 -0.0000
vn 0.2588 -0.0000 0.9659
vn -0.0000 -1.0000 -0.0000
vn 0.9659 -0.0000 0.2588
vn 0.7071 -0.0000 0.7071
vn -0.8660 -0.0000 -0.5000
vn 0.8660 -0.0000 0.5000
vn -0.5000 -0.0000 0.8660
vn 0.5000 -0.0000 -0.8660
vn 0.9447 -0.3281 -0.0000
vt 1.000000 0.500000
vt 0.000000 0.500000
vt 0.750000 0.490000
vt 0.185229 1.000000
vt 0.916667 0.500000
vt 0.870000 0.457846
vt 0.731438 1.000000
vt 0.833333 0.500000
vt 0.957846 0.370000
vt 0.774440 1.000000
vt 0.750000 0.500000
vt 0.990000 0.250000
vt 0.713536 1.000000
vt 0.666667 0.500000
vt 0.957846 0.130000
vt 0.643373 1.000000
vt 0.583333 0.500000
vt 0.870000 0.042154
vt 0.570180 1.000000
vt 0.500000 0.500000
vt 0.750000 0.010000
vt 0.495734 1.000000
vt 0.416667 0.500000
vt 0.630000 0.042154
vt 0.420933 1.000000
vt 0.333333 0.500000
vt 0.542154 0.130000
vt 0.346487 1.000000
vt 0.198337 0.546921
vt 0.235629 1.000000
vt 0.235629 1.000000
vt 0.134997 0.546921
vt 0.179891 1.000000
vt 0.179891 1.000000
vt 0.916667 1.000000
vt 1.000000 1.000000
vt 0.000000 1.000000
vt 0.833333 1.000000
vt 0.750000 1.000000
vt 0.666667 1.000000
vt 0.583333 1.000000
vt 0.500000 1.000000
vt 0.416667 1.000000
vt 0.333333 1.000000
vt 0.235629 1.000000
vt 0.198337 0.953079
vt 0.134997 0.953079
vt 0.179891 1.000000
vt 0.731438 1.000000
vt 0.185229 1.000000
vt 0.774440 1.000000
vt 0.713536 1.000000
vt 0.643373 1.000000
vt 0.570180 1.000000
vt 0.495734 1.000000
vt 0.420933 1.000000
vt 0.346487 1.000000
vt 0.235629 1.000000
vt 0.179891 1.000000
vt 0.142227 1.000000
vt 0.273294 1.000000
vt 0.142227 1.000000
vt 0.273294 1.000000
vt 0.250000 1.000000
vt 0.510000 0.250000
vt 0.250000 0.500000
vt 0.630000 0.457846
vt 0.083333 0.500000
vt 0.083333 1.000000
s 0
f 24/36/1 3/5/1 1/1/1
f 23/35/2 5/8/2 3/5/2
f 25/38/3 7/11/3 5/8/3
f 26/39/4 9/14/4 7/11/4
f 27/40/5 11/17/5 9/14/5
f 28/41/6 13/20/6 11/17/6
f 29/42/7 15/23/7 13/20/7
f 30/43/8 17/26/8 15/23/8
f 31/44/9 50/66/9 17/26/9
f 45/60/10 49/64/10 46/61/10
f 52/69/11 1/2/11 51/68/11
f 3/6/12 11/18/12 50/65/12
f 8/13/13 38/53/13 10/16/13
f 4/7/10 24/37/10 2/4/10
f 6/10/10 23/35/10 4/7/10
f 8/13/10 25/38/10 6/10/10
f 10/16/10 26/39/10 8/13/10
f 10/16/10 28/41/10 27/40/10
f 12/19/10 29/42/10 28/41/10
f 14/22/10 30/43/10 29/42/10
f 16/25/10 31/44/10 30/43/10
f 18/28/10 49/64/10 31/44/10
f 20/31/12 33/48/12 22/34/12
f 2/4/10 52/69/10 45/60/10
f 35/50/10 41/56/10 37/52/10
f 2/4/7 34/49/7 4/7/7
f 16/25/2 42/57/2 18/28/2
f 10/16/14 39/54/14 12/19/14
f 45/60/6 35/50/6 2/4/6
f 4/7/8 36/51/8 6/10/8
f 18/28/3 48/63/3 46/61/3
f 12/19/11 40/55/11 14/22/11
f 6/10/9 37/52/9 8/13/9
f 14/22/1 41/56/1 16/25/1
f 22/34/15 46/61/15 20/31/15
f 44/59/10 48/63/10 47/62/10
f 22/34/15 47/62/15 45/60/15
f 20/31/15 48/63/15 43/58/15
f 32/46/16 50/66/16 49/64/16
f 21/32/16 50/66/16 19/29/16
f 33/47/16 49/64/16 52/69/16
f 33/47/16 51/68/16 21/32/16
f 20/31/17 19/30/17 32/45/17
f 43/58/10 21/33/10 19/30/10
f 22/34/18 21/33/18 44/59/18
f 24/36/1 23/35/1 3/5/1
f 23/35/2 25/38/2 5/8/2
f 25/38/3 26/39/3 7/11/3
f 26/39/4 27/40/4 9/14/4
f 27/40/5 28/41/5 11/17/5
f 28/41/6 29/42/6 13/20/6
f 29/42/7 30/43/7 15/23/7
f 30/43/8 31/44/8 17/26/8
f 31/44/9 49/64/9 50/66/9
f 45/60/10 52/69/10 49/64/10
f 52/69/11 24/37/11 1/2/11
f 51/67/12 1/3/12 3/6/12
f 3/6/12 5/9/12 7/12/12
f 7/12/12 9/15/12 11/18/12
f 11/18/12 13/21/12 15/24/12
f 15/24/12 17/27/12 50/65/12
f 50/65/12 51/67/12 3/6/12
f 3/6/12 7/12/12 11/18/12
f 11/18/12 15/24/12 50/65/12
f 8/13/13 37/52/13 38/53/13
f 4/7/10 23/35/10 24/37/10
f 6/10/10 25/38/10 23/35/10
f 8/13/10 26/39/10 25/38/10
f 10/16/10 27/40/10 26/39/10
f 10/16/10 12/19/10 28/41/10
f 12/19/10 14/22/10 29/42/10
f 14/22/10 16/25/10 30/43/10
f 16/25/10 18/28/10 31/44/10
f 18/28/10 46/61/10 49/64/10
f 20/31/12 32/45/12 33/48/12
f 2/4/10 24/37/10 52/69/10
f 36/51/10 34/49/10 35/50/10
f 35/50/10 47/62/10 48/63/10
f 48/63/10 42/57/10 41/56/10
f 41/56/10 40/55/10 39/54/10
f 39/54/10 38/53/10 37/52/10
f 37/52/10 36/51/10 35/50/10
f 35/50/10 48/63/10 41/56/10
f 41/56/10 39/54/10 37/52/10
f 2/4/7 35/50/7 34/49/7
f 16/25/2 41/56/2 42/57/2
f 10/16/14 38/53/14 39/54/14
f 45/60/6 47/62/6 35/50/6
f 4/7/8 34/49/8 36/51/8
f 18/28/3 42/57/3 48/63/3
f 12/19/11 39/54/11 40/55/11
f 6/10/9 36/51/9 37/52/9
f 14/22/1 40/55/1 41/56/1
f 22/34/15 45/60/15 46/61/15
f 44/59/19 43/58/19 48/63/19
f 22/34/15 44/59/15 47/62/15
f 20/31/15 46/61/15 48/63/15
f 32/46/16 19/29/16 50/66/16
f 21/32/16 51/68/16 50/66/16
f 33/47/16 32/46/16 49/64/16
f 33/47/16 52/69/16 51/68/16
f 20/31/17 43/58/17 19/30/17
f 43/58/10 44/59/10 21/33/10
f 22/34/18 33/48/18 21/33/18
o Cylinder.005
v 61.699780 3.052244 10.678878
v 63.556553 3.052244 11.176399
v 60.340530 3.052244 9.319628
v 59.843010 3.052244 7.462856
v 60.340530 3.052244 5.606084
v 61.699780 3.052244 4.246834
v 63.556553 3.052244 3.749313
v 65.413322 3.052244 4.246834
v 66.772575 3.052244 5.606084
v 67.270096 3.052244 7.462856
v 66.772575 3.052244 9.319628
v 65.413322 3.052244 10.678878
v 63.556549 4.553189 7.462857
vn -0.0999 0.9225 -0.3729
vn -0.0000 -1.0000 -0.0000
vn -0.3729 0.9225 0.0999
vn 0.3729 0.9225 0.0999
vn 0.0999 0.9225 -0.3729
vn -0.3729 0.9225 -0.0999
vn 0.2729 0.9225 0.2729
vn -0.0999 0.9225 0.3729
vn 0.2729 0.9225 -0.2729
vn -0.2729 0.9225 -0.2729
vn 0.0999 0.9225 0.3729
vn -0.2729 0.9225 0.2729
vn 0.3729 0.9225 -0.0999
vt 0.916667 1.000000
vt 0.000000 1.000000
vt 1.000000 1.000000
vt 0.833333 1.000000
vt 0.750000 1.000000
vt 0.666667 1.000000
vt 0.583333 1.000000
vt 0.500000 1.000000
vt 0.416667 1.000000
vt 0.333333 1.000000
vt 0.250000 1.000000
vt 0.166667 1.000000
vt 0.083333 1.000000
vt 0.500000 1.000000
vt 0.750000 1.000000
vt 0.166667 1.000000
vt 0.416667 1.000000
vt 0.666667 1.000000
vt 0.083333 1.000000
vt 0.916667 1.000000
vt 0.333333 1.000000
vt 0.583333 1.000000
vt 0.000000 1.000000
vt 0.833333 1.000000
vt 0.250000 1.000000
s 0
f 59/77/20 58/76/20 65/83/20
f 54/72/21 57/75/21 61/79/21
f 56/74/22 55/73/22 65/84/22
f 63/81/23 62/80/23 65/85/23
f 60/78/24 59/77/24 65/86/24
f 57/75/25 56/74/25 65/87/25
f 64/82/26 63/81/26 65/88/26
f 53/70/27 54/72/27 65/89/27
f 61/79/28 60/78/28 65/90/28
f 58/76/29 57/75/29 65/91/29
f 54/71/30 64/82/30 65/92/30
f 55/73/31 53/70/31 65/93/31
f 62/80/32 61/79/32 65/94/32
f 61/79/21 62/80/21 63/81/21
f 63/81/21 64/82/21 54/72/21
f 54/72/21 53/70/21 55/73/21
f 55/73/21 56/74/21 57/75/21
f 57/75/21 58/76/21 59/77/21
f 59/77/21 60/78/21 61/79/21
f 61/79/21 63/81/21 54/72/21
f 54/72/21 55/73/21 57/75/21
f 57/75/21 59/77/21 61/79/21
o Cube.008
v 66.088722 -0.432569 8.127990
v 66.088722 0.364769 8.127990
v 67.073105 -0.432569 8.696326
v 65.394867 -0.432569 9.329782
v 65.394867 0.364769 9.329782
v 66.379250 -0.432569 9.898118
vn 0.5000 -0.0000 -0.8660
vn -0.5000 -0.0000 0.8660
vn -0.8660 -0.0000 -0.5000
vn -0.0000 -1.0000 -0.0000
vn 0.4973 0.8187 0.2871
vt 0.375000 0.000000
vt 0.375000 1.000000
vt 0.125000 0.750000
vt 0.625000 0.000000
vt 0.875000 0.750000
vt 0.625000 1.000000
vt 0.125000 0.500000
vt 0.375000 0.250000
vt 0.375000 0.750000
vt 0.625000 0.750000
vt 0.375000 0.500000
s 0
f 66/95/33 67/98/33 68/102/33
f 71/105/34 70/104/34 69/103/34
f 70/104/35 66/96/35 69/103/35
f 71/105/36 66/97/36 68/101/36
f 70/104/37 68/102/37 67/99/37
f 70/104/35 67/100/35 66/96/35
f 71/105/36 69/103/36 66/97/36
f 70/104/37 71/105/37 68/102/37
