# Blender 3.4.1
# www.blender.org
o Cube.002
v 7.850714 2.704515 -77.412529
v 7.586902 1.306976 -71.959030
v 1.695215 2.704515 -77.710297
v 7.513720 1.306976 -70.446198
v 1.430095 -0.442779 -78.016228
v 1.695215 6.220548 -77.710297
v 0.800998 -0.442779 -65.011566
v 1.094410 6.220548 -65.290474
v 7.249908 2.704515 -64.992706
v 1.094410 2.704515 -65.290474
v 0.800998 6.220548 -65.011566
v 1.430095 6.220548 -78.016228
v 7.586902 -0.209426 -71.959030
v 7.513720 -0.209426 -70.446198
v 1.094410 -0.209425 -65.290474
v 1.695215 -0.209425 -77.710297
v 7.850714 6.220548 -77.412529
v 7.249908 6.220548 -64.992706
v 7.850714 -0.209425 -77.412529
v 7.249908 -0.209425 -64.992706
v 7.515028 -0.442779 -64.686775
v 8.144126 -0.442779 -77.691437
v 8.144126 6.220548 -77.691437
v 7.515028 6.220548 -64.686775
v 7.866169 1.306976 -71.945518
v 7.792987 1.306976 -70.432686
v 7.866169 -0.209426 -71.945518
v 7.792987 -0.209426 -70.432686
v 7.448322 2.704515 -69.094307
v 7.652300 2.704515 -73.310921
v 1.094410 3.004197 -65.290474
v 1.695215 3.004197 -77.710297
v 7.850714 3.004197 -77.412529
v 7.249908 3.004197 -64.992706
v 3.055819 1.705531 -67.197929
v 2.959181 1.705531 -65.200264
v 7.346544 2.704514 -66.990364
v 3.055819 -0.209426 -67.197929
v 2.959181 -0.209425 -65.200264
v 5.146523 -0.209426 -67.096786
v 5.049886 -0.209425 -65.099129
v 7.346544 -0.209426 -66.990364
v 5.049886 2.704515 -65.099129
v 1.191047 -0.209426 -67.288132
v 5.049886 3.004197 -65.099129
v 1.277520 2.704515 -69.075729
v 5.146522 2.704515 -67.096786
v 5.146522 3.004197 -67.096786
v 1.277520 3.004197 -69.075729
v 5.146523 1.705531 -67.096786
v 5.049886 1.175926 -65.099129
v 1.191047 1.705531 -67.288132
v 1.094410 1.705531 -65.290474
v 3.481858 1.175926 -65.174980
v 4.004534 1.175926 -65.149696
v 4.527210 1.175926 -65.124413
v 4.623847 1.705531 -67.122070
v 4.101171 1.705531 -67.147354
v 3.578495 1.705531 -67.172638
v 4.527210 1.392071 -65.124413
v 5.049886 1.392071 -65.099129
v 3.578495 1.957543 -67.172638
v 3.055819 1.957543 -67.197929
v 2.959181 1.957543 -65.200264
v 5.146523 1.957543 -67.096786
v 3.481858 1.957543 -65.174980
v 4.004534 1.392071 -65.149696
v 4.623847 1.957543 -67.122070
v 4.101171 1.957543 -67.147354
v 4.527210 1.619108 -65.124413
v 5.049886 1.619108 -65.099129
v 5.146523 2.218286 -67.096786
v 3.481858 2.218286 -65.174980
v 4.004534 2.218286 -65.149696
v 4.623847 2.218286 -67.122070
v 4.101171 2.218286 -67.147354
v 3.578495 2.218286 -67.172638
v 4.527210 2.458763 -65.124413
v 5.049886 1.811984 -65.099129
v 5.146523 2.458763 -67.096786
v 4.004534 2.458763 -65.149696
v 4.623847 2.458763 -67.122070
v 4.101171 2.458763 -67.147354
v 4.527210 2.704515 -65.124413
v 3.222994 -0.022945 -70.653755
v 1.358221 -0.022945 -70.743965
v 4.623847 2.704514 -67.122070
v 3.222994 -0.209426 -70.653755
v 1.218910 -0.209426 -67.864105
v 1.246772 -0.209426 -68.440079
v 1.274634 -0.209426 -69.016052
v 1.302496 -0.209426 -69.592018
v 1.330359 -0.209426 -70.167992
v 3.083681 -0.209426 -67.773895
v 3.111544 -0.209426 -68.349869
v 3.139406 -0.209426 -68.925842
v 3.167269 -0.209426 -69.501816
v 3.195131 -0.209426 -70.077789
v 3.055819 -0.004620 -67.197929
v 1.191047 -0.004620 -67.288132
v 1.330359 0.194775 -70.167992
v 1.358221 0.194775 -70.743965
v 3.222994 0.194775 -70.653755
v 3.195131 0.194775 -70.077789
v 1.218910 -0.004620 -67.864105
v 1.246772 -0.004620 -68.440079
v 1.274634 -0.004620 -69.016052
v 1.302496 -0.004620 -69.592018
v 3.083681 -0.004620 -67.773895
v 3.111544 -0.004620 -68.349869
v 3.139406 -0.004620 -68.925842
v 3.167269 -0.004620 -69.501816
v 3.055819 0.259535 -67.197929
v 1.191047 0.259535 -67.288132
v 1.218910 0.259535 -67.864105
v 1.246772 0.259535 -68.440079
v 1.274634 0.259535 -69.016052
v 1.302496 0.440005 -69.592018
v 1.330359 0.440005 -70.167992
v 3.083681 0.259535 -67.773895
v 3.111544 0.259535 -68.349869
v 3.139406 0.259535 -68.925842
v 3.167269 0.440005 -69.501816
v 3.195131 0.440005 -70.077789
v 3.055819 0.521897 -67.197929
v 1.191047 0.521897 -67.288132
v 1.218910 0.521897 -67.864105
v 1.246772 0.521897 -68.440079
v 1.274634 0.699482 -69.016052
v 1.302496 0.699482 -69.592018
v 3.083681 0.521897 -67.773895
v 3.111544 0.521897 -68.349869
v 3.139406 0.699482 -68.925842
v 3.167269 0.699482 -69.501816
v 3.055819 0.651479 -67.197929
v 1.191047 0.651479 -67.288132
v 1.218910 0.651479 -67.864105
v 1.246772 0.968461 -68.440079
v 1.274634 0.968461 -69.016052
v 3.083681 0.651479 -67.773895
v 3.111544 0.968461 -68.349869
v 3.139406 0.968461 -68.925842
v 3.055819 0.732418 -67.197929
v 1.191047 0.732418 -67.288132
v 1.218910 1.208088 -67.864105
v 1.246772 1.208088 -68.440079
v 3.083681 1.208088 -67.773895
v 3.111544 1.208088 -68.349869
v 3.055819 1.458071 -67.197929
v 1.191047 1.458071 -67.288132
v 1.218910 1.458071 -67.864105
v 3.083681 1.458071 -67.773895
v 1.382109 -0.022945 -71.237785
v 3.246882 -0.022945 -71.147575
v 3.246882 -0.209426 -71.147575
v 1.382109 -0.209426 -71.237785
v 3.055818 2.704515 -67.197929
v 3.055818 3.004197 -67.197929
v 3.142293 3.004197 -68.985519
v 3.142293 2.704515 -68.985519
vn -0.0000 1.0000 -0.0000
vn -0.0483 -0.0000 0.9988
vn -0.9988 -0.0000 -0.0483
vn 0.0483 -0.0000 -0.9988
vn -0.0000 -1.0000 -0.0000
vn 0.4254 0.9048 0.0206
vn 0.9988 -0.0000 0.0483
vn 0.0068 -0.9902 -0.1398
vn -0.9055 0.4221 -0.0438
vn 0.2455 0.9693 0.0119
vn -0.7120 -0.7013 -0.0344
vn 0.3503 0.9365 0.0169
vn 0.9610 -0.2727 0.0465
vn -0.0101 -0.9780 0.2083
vn 0.8984 -0.4371 0.0435
vt 0.864601 0.739601
vt 0.000000 0.000000
vt 0.864601 0.663466
vt 0.635399 0.739601
vt 0.000000 0.000000
vt 0.864601 0.586534
vt 0.375000 0.750000
vt 0.635399 0.739601
vt 0.375000 0.500000
vt 0.635399 0.510399
vt 0.864601 0.510399
vt 0.000000 0.000000
vt 0.635399 0.510399
vt 0.375000 0.500000
vt 0.442923 0.500000
vt 0.625000 0.500000
vt 0.625000 0.750000
vt 0.864601 0.663466
vt 0.000000 0.000000
vt 0.864601 0.586534
vt 0.864601 0.548466
vt 0.635399 0.510399
vt 0.635399 0.739601
vt 0.864601 0.739601
vt 0.864601 0.510399
vt 0.864601 0.739601
vt 0.864601 0.510399
vt 0.125000 0.500000
vt 0.375000 0.250000
vt 0.375000 1.000000
vt 0.125000 0.750000
vt 0.375000 0.000000
vt 0.625000 1.000000
vt 0.875000 0.750000
vt 0.625000 0.000000
vt 0.875000 0.500000
vt 0.625000 0.250000
vt 0.558304 0.066696
vt 0.864601 0.663466
vt 0.558304 0.183304
vt 0.864601 0.586534
vt 0.864601 0.663466
vt 0.441696 0.066696
vt 0.441696 0.183304
vt 0.864601 0.586534
vt 0.864601 0.567660
vt 0.000000 0.000000
vt 0.864601 0.682340
vt 0.000000 0.000000
vt 0.635399 0.510399
vt 0.625000 0.500000
vt 0.635399 0.739601
vt 0.864601 0.739601
vt 0.864601 0.510399
vt 0.692699 0.560955
vt 0.692699 0.510399
vt 0.864601 0.529432
vt 0.000000 0.000000
vt 0.692699 0.560955
vt 0.692699 0.510399
vt 0.750000 0.550447
vt 0.750000 0.510399
vt 0.864601 0.529432
vt 0.709782 0.510399
vt 0.375000 0.250000
vt 0.750000 0.510399
vt 0.635399 0.571463
vt 0.625000 0.250000
vt 0.480383 0.250000
vt 0.709782 0.510399
vt 0.635399 0.625000
vt 0.442923 0.750000
vt 0.000000 0.000000
vt 0.442923 0.000000
vt 0.442923 1.000000
vt 0.750000 0.550447
vt 0.000000 0.000000
vt 0.480383 1.000000
vt 0.480383 0.000000
vt 0.635399 0.625000
vt 0.480383 0.750000
vt 0.750000 0.550447
vt 0.750000 0.510399
vt 0.635399 0.571463
vt 0.635399 0.510399
vt 0.707024 0.510399
vt 0.721350 0.510399
vt 0.735675 0.510399
vt 0.735675 0.553074
vt 0.721350 0.555701
vt 0.707024 0.558328
vt 0.735675 0.510399
vt 0.750000 0.510399
vt 0.707024 0.558328
vt 0.692699 0.560955
vt 0.692699 0.510399
vt 0.750000 0.550447
vt 0.707024 0.510399
vt 0.721350 0.510399
vt 0.735675 0.553074
vt 0.721350 0.555701
vt 0.735675 0.510399
vt 0.750000 0.510399
vt 0.750000 0.550447
vt 0.707024 0.510399
vt 0.721350 0.510399
vt 0.735675 0.553074
vt 0.721350 0.555701
vt 0.707024 0.558328
vt 0.735675 0.510399
vt 0.750000 0.510399
vt 0.750000 0.550447
vt 0.721350 0.510399
vt 0.735675 0.553074
vt 0.721350 0.555701
vt 0.735675 0.510399
vt 0.750000 0.601999
vt 0.635399 0.655532
vt 0.735675 0.553074
vt 0.750000 0.601999
vt 0.635399 0.585474
vt 0.635399 0.599486
vt 0.635399 0.613497
vt 0.635399 0.627509
vt 0.635399 0.641520
vt 0.702249 0.567796
vt 0.711799 0.574636
vt 0.721350 0.581477
vt 0.730900 0.588318
vt 0.740450 0.595158
vt 0.692699 0.560955
vt 0.635399 0.571463
vt 0.635399 0.641520
vt 0.635399 0.655532
vt 0.750000 0.601999
vt 0.740450 0.595158
vt 0.635399 0.585474
vt 0.635399 0.599486
vt 0.635399 0.613497
vt 0.635399 0.627509
vt 0.702249 0.567796
vt 0.711799 0.574636
vt 0.721350 0.581477
vt 0.730900 0.588318
vt 0.692699 0.560955
vt 0.635399 0.571463
vt 0.635399 0.585474
vt 0.635399 0.599486
vt 0.635399 0.613497
vt 0.635399 0.627509
vt 0.635399 0.641520
vt 0.702249 0.567796
vt 0.711799 0.574636
vt 0.721350 0.581477
vt 0.730900 0.588318
vt 0.740450 0.595158
vt 0.692699 0.560955
vt 0.635399 0.571463
vt 0.635399 0.585474
vt 0.635399 0.599486
vt 0.635399 0.613497
vt 0.635399 0.627509
vt 0.702249 0.567796
vt 0.711799 0.574636
vt 0.721350 0.581477
vt 0.730900 0.588318
vt 0.692699 0.560955
vt 0.635399 0.571463
vt 0.635399 0.585474
vt 0.635399 0.599486
vt 0.635399 0.613497
vt 0.702249 0.567796
vt 0.711799 0.574636
vt 0.721350 0.581477
vt 0.692699 0.560955
vt 0.635399 0.571463
vt 0.635399 0.585474
vt 0.635399 0.599486
vt 0.702249 0.567796
vt 0.711799 0.574636
vt 0.692699 0.560955
vt 0.635399 0.571463
vt 0.635399 0.585474
vt 0.702249 0.567796
vt 0.635399 0.655532
vt 0.750000 0.601999
vt 0.692699 0.628766
vt 0.750000 0.601999
vt 0.635399 0.655532
vt 0.442923 0.875000
vt 0.000000 0.000000
vt 0.480383 0.875000
vt 0.480383 0.875000
vt 0.000000 0.000000
vt 0.442923 0.875000
s 0
f 9/11/1 47/76/1 43/66/1
f 24/37/2 7/9/2 21/29/2
f 11/16/3 5/7/3 7/9/3
f 12/17/4 22/30/4 5/7/4
f 7/9/5 22/31/5 21/28/5
f 9/11/4 39/60/4 10/13/4
f 18/25/1 23/34/1 17/24/1
f 8/10/1 24/36/1 18/25/1
f 8/10/1 12/17/1 11/16/1
f 17/24/1 12/17/1 6/8/1
f 15/22/6 92/124/6 16/23/6
f 13/18/2 25/39/2 2/3/2
f 3/4/2 19/26/2 1/1/2
f 34/54/3 17/24/3 33/53/3
f 27/43/7 21/29/7 22/32/7
f 25/38/7 22/32/7 23/35/7
f 25/38/7 24/37/7 26/40/7
f 26/40/7 21/29/7 28/44/7
f 27/43/1 14/20/1 28/44/1
f 4/6/4 28/45/4 14/20/4
f 4/6/5 25/39/5 26/41/5
f 2/3/3 1/1/3 19/26/3
f 4/6/3 30/48/3 2/3/3
f 4/6/3 42/63/3 9/11/3
f 8/10/4 34/54/4 45/70/4
f 6/8/2 33/53/2 17/24/2
f 40/61/4 37/57/4 42/63/4
f 8/10/7 49/80/7 32/52/7
f 38/59/4 58/90/4 50/82/4
f 41/62/2 9/11/2 43/66/2
f 47/74/3 45/69/3 48/79/3
f 43/65/4 31/51/4 45/68/4
f 10/15/7 49/81/7 31/51/7
f 47/75/2 158/192/2 157/190/2
f 155/187/1 13/19/1 16/23/1
f 41/62/3 47/76/3 40/61/3
f 39/60/2 56/88/2 54/86/2
f 36/56/3 63/95/3 35/55/3
f 36/56/1 52/84/1 53/85/1
f 39/60/2 53/85/2 15/22/2
f 44/67/4 35/55/4 38/59/4
f 15/22/3 52/84/3 44/67/3
f 40/61/7 51/83/7 41/62/7
f 50/82/7 61/93/7 51/83/7
f 58/90/4 68/100/4 57/89/4
f 51/83/2 60/92/2 56/88/2
f 69/101/4 75/107/4 68/100/4
f 66/98/1 63/95/1 64/96/1
f 66/98/3 77/109/3 62/94/3
f 65/97/7 71/103/7 61/93/7
f 54/86/2 67/99/2 66/98/2
f 59/91/4 69/101/4 58/90/4
f 56/88/2 67/99/2 55/87/2
f 57/89/4 65/97/4 50/82/4
f 35/55/4 62/94/4 59/91/4
f 36/56/2 66/98/2 64/96/2
f 74/106/2 78/110/2 81/113/2
f 74/106/1 77/109/1 73/105/1
f 76/108/4 82/114/4 75/107/4
f 67/99/2 70/102/2 74/106/2
f 61/93/2 70/102/2 60/92/2
f 62/94/4 76/108/4 69/101/4
f 68/100/4 72/104/4 65/97/4
f 66/98/2 74/106/2 73/105/2
f 78/110/2 43/66/2 84/116/2
f 78/110/1 83/115/1 81/113/1
f 72/104/7 79/111/7 71/103/7
f 74/106/3 83/115/3 76/108/3
f 75/107/4 80/112/4 72/104/4
f 70/102/2 79/111/2 78/110/2
f 43/66/1 87/119/1 84/116/1
f 82/114/4 47/76/4 80/112/4
f 80/112/7 43/66/7 79/111/7
f 78/110/3 87/119/3 82/114/3
f 40/61/1 96/128/1 95/127/1
f 94/126/7 99/131/7 38/59/7
f 86/118/4 103/135/4 85/117/4
f 93/125/3 108/140/3 101/133/3
f 93/125/3 102/134/3 86/118/3
f 91/123/3 108/140/3 92/124/3
f 90/122/3 107/139/3 91/123/3
f 104/136/1 102/134/1 101/133/1
f 108/140/3 117/149/3 118/150/3
f 99/131/2 114/146/2 100/132/2
f 110/142/7 120/152/7 109/141/7
f 104/136/7 123/155/7 112/144/7
f 106/138/3 117/149/3 107/139/3
f 95/127/7 109/141/7 94/126/7
f 88/120/7 85/117/7 104/136/7
f 96/128/7 110/142/7 95/127/7
f 44/67/3 105/137/3 89/121/3
f 97/129/7 111/143/7 96/128/7
f 38/59/2 100/132/2 44/67/2
f 89/121/3 106/138/3 90/122/3
f 98/130/7 112/144/7 97/129/7
f 117/149/3 128/160/3 129/161/3
f 120/152/7 125/157/7 113/145/7
f 123/155/7 133/165/7 122/154/7
f 115/147/3 128/160/3 116/148/3
f 118/150/1 124/156/1 119/151/1
f 100/132/3 115/147/3 105/137/3
f 111/143/7 121/153/7 110/142/7
f 101/133/4 124/156/4 104/136/4
f 101/133/3 118/150/3 119/151/3
f 105/137/3 116/148/3 106/138/3
f 112/144/7 122/154/7 111/143/7
f 109/141/7 113/145/7 99/131/7
f 129/161/3 138/170/3 139/171/3
f 131/163/7 135/167/7 125/157/7
f 133/165/7 141/173/7 132/164/7
f 133/165/1 130/162/1 129/161/1
f 113/145/2 126/158/2 114/146/2
f 121/153/7 131/163/7 120/152/7
f 118/150/4 134/166/4 123/155/4
f 118/150/3 129/161/3 130/162/3
f 114/146/3 127/159/3 115/147/3
f 122/154/7 132/164/7 121/153/7
f 141/173/7 147/179/7 140/172/7
f 135/167/2 144/176/2 136/168/2
f 138/170/1 142/174/1 139/171/1
f 126/158/3 137/169/3 127/159/3
f 132/164/7 140/172/7 131/163/7
f 128/160/3 137/169/3 138/170/3
f 129/161/4 142/174/4 133/165/4
f 125/157/2 136/168/2 126/158/2
f 143/175/2 150/182/2 144/176/2
f 147/179/1 146/178/1 145/177/1
f 137/169/3 144/176/3 145/177/3
f 138/170/4 148/180/4 141/173/4
f 140/172/7 143/175/7 135/167/7
f 138/170/3 145/177/3 146/178/3
f 149/181/1 151/183/1 150/182/1
f 145/177/4 152/184/4 147/179/4
f 147/179/7 149/181/7 143/175/7
f 145/177/3 150/182/3 151/183/3
f 156/189/3 86/118/3 153/185/3
f 156/189/4 154/186/4 155/188/4
f 86/118/1 154/186/1 153/185/1
f 88/120/7 154/186/7 85/117/7
f 158/192/3 160/195/3 157/190/3
f 33/53/1 159/193/1 48/79/1
f 37/58/5 3/5/5 30/49/5
f 160/195/2 49/81/2 46/72/2
f 9/11/1 37/57/1 47/76/1
f 24/37/2 11/16/2 7/9/2
f 11/16/3 12/17/3 5/7/3
f 12/17/4 23/33/4 22/30/4
f 7/9/5 5/7/5 22/31/5
f 10/13/8 43/64/8 9/11/8
f 9/11/4 20/27/4 41/62/4
f 39/60/4 15/22/4 10/13/4
f 9/11/4 41/62/4 39/60/4
f 18/25/1 24/36/1 23/34/1
f 8/10/1 11/16/1 24/36/1
f 8/10/1 6/8/1 12/17/1
f 17/24/1 23/34/1 12/17/1
f 16/23/7 3/4/7 46/71/7
f 46/71/7 10/13/7 15/22/7
f 15/22/1 44/67/1 89/121/1
f 90/122/9 91/123/9 92/124/9
f 15/22/10 89/121/10 90/122/10
f 16/23/7 46/71/7 15/22/7
f 93/125/11 156/189/11 16/23/11
f 15/22/12 90/122/12 92/124/12
f 92/124/5 93/125/5 16/23/5
f 13/18/2 27/42/2 25/39/2
f 3/4/2 16/23/2 19/26/2
f 34/54/3 18/25/3 17/24/3
f 27/43/7 28/44/7 21/29/7
f 25/38/7 27/43/7 22/32/7
f 25/38/7 23/35/7 24/37/7
f 26/40/7 24/37/7 21/29/7
f 27/43/1 13/19/1 14/20/1
f 4/6/4 26/41/4 28/45/4
f 4/6/5 2/3/5 25/39/5
f 19/26/3 13/19/3 2/3/3
f 2/3/3 30/49/3 1/1/3
f 4/6/3 29/46/3 30/48/3
f 9/11/3 29/46/3 4/6/3
f 4/6/3 14/21/3 42/63/3
f 42/63/3 20/27/3 9/11/3
f 45/70/4 31/50/4 8/10/4
f 8/10/4 18/25/4 34/54/4
f 6/8/2 32/52/2 33/53/2
f 40/61/4 47/76/4 37/57/4
f 32/52/7 6/8/7 8/10/7
f 8/10/7 31/50/7 49/80/7
f 50/82/4 40/61/4 38/59/4
f 38/59/4 35/55/4 59/91/4
f 58/90/5 57/89/5 50/82/5
f 38/59/4 59/91/4 58/90/4
f 47/74/3 43/65/3 45/69/3
f 43/65/4 10/14/4 31/51/4
f 10/15/7 46/72/7 49/81/7
f 47/75/2 48/78/2 158/192/2
f 16/23/1 156/189/1 155/187/1
f 155/187/1 88/120/1 14/21/1
f 13/19/1 19/26/1 16/23/1
f 155/187/1 14/21/1 13/19/1
f 42/63/7 37/57/7 9/11/7
f 41/62/3 43/66/3 47/76/3
f 39/60/2 41/62/2 51/83/2
f 56/88/5 55/87/5 54/86/5
f 39/60/2 51/83/2 56/88/2
f 54/86/2 36/56/2 39/60/2
f 36/56/3 64/96/3 63/95/3
f 36/56/1 35/55/1 52/84/1
f 39/60/2 36/56/2 53/85/2
f 44/67/4 52/84/4 35/55/4
f 15/22/3 53/85/3 52/84/3
f 40/61/7 50/82/7 51/83/7
f 50/82/7 65/97/7 61/93/7
f 58/90/4 69/101/4 68/100/4
f 51/83/2 61/93/2 60/92/2
f 69/101/4 76/108/4 75/107/4
f 66/98/1 62/94/1 63/95/1
f 66/98/3 73/105/3 77/109/3
f 65/97/7 72/104/7 71/103/7
f 54/86/2 55/87/2 67/99/2
f 59/91/4 62/94/4 69/101/4
f 56/88/2 60/92/2 67/99/2
f 57/89/4 68/100/4 65/97/4
f 35/55/4 63/95/4 62/94/4
f 36/56/2 54/86/2 66/98/2
f 74/106/2 70/102/2 78/110/2
f 74/106/1 76/108/1 77/109/1
f 76/108/4 83/115/4 82/114/4
f 67/99/2 60/92/2 70/102/2
f 61/93/2 71/103/2 70/102/2
f 62/94/4 77/109/4 76/108/4
f 68/100/4 75/107/4 72/104/4
f 66/98/2 67/99/2 74/106/2
f 78/110/2 79/111/2 43/66/2
f 78/110/1 82/114/1 83/115/1
f 72/104/7 80/112/7 79/111/7
f 74/106/3 81/113/3 83/115/3
f 75/107/4 82/114/4 80/112/4
f 70/102/2 71/103/2 79/111/2
f 43/66/1 47/76/1 87/119/1
f 82/114/4 87/119/4 47/76/4
f 80/112/7 47/76/7 43/66/7
f 78/110/3 84/116/3 87/119/3
f 94/126/1 38/59/1 40/61/1
f 40/61/1 42/63/1 14/21/1
f 14/21/1 88/120/1 98/130/1
f 98/130/1 97/129/1 96/128/1
f 40/61/1 14/21/1 98/130/1
f 95/127/1 94/126/1 40/61/1
f 40/61/1 98/130/1 96/128/1
f 94/126/7 109/141/7 99/131/7
f 86/118/4 102/134/4 103/135/4
f 93/125/3 92/124/3 108/140/3
f 86/118/3 156/189/3 93/125/3
f 93/125/3 101/133/3 102/134/3
f 91/123/3 107/139/3 108/140/3
f 90/122/3 106/138/3 107/139/3
f 104/136/1 103/135/1 102/134/1
f 108/140/3 107/139/3 117/149/3
f 99/131/2 113/145/2 114/146/2
f 110/142/7 121/153/7 120/152/7
f 104/136/7 124/156/7 123/155/7
f 106/138/3 116/148/3 117/149/3
f 95/127/7 110/142/7 109/141/7
f 104/136/7 98/130/7 88/120/7
f 85/117/7 103/135/7 104/136/7
f 96/128/7 111/143/7 110/142/7
f 44/67/3 100/132/3 105/137/3
f 97/129/7 112/144/7 111/143/7
f 38/59/2 99/131/2 100/132/2
f 89/121/3 105/137/3 106/138/3
f 98/130/7 104/136/7 112/144/7
f 117/149/3 116/148/3 128/160/3
f 120/152/7 131/163/7 125/157/7
f 123/155/7 134/166/7 133/165/7
f 115/147/3 127/159/3 128/160/3
f 118/150/1 123/155/1 124/156/1
f 100/132/3 114/146/3 115/147/3
f 111/143/7 122/154/7 121/153/7
f 101/133/4 119/151/4 124/156/4
f 101/133/3 108/140/3 118/150/3
f 105/137/3 115/147/3 116/148/3
f 112/144/7 123/155/7 122/154/7
f 109/141/7 120/152/7 113/145/7
f 129/161/3 128/160/3 138/170/3
f 131/163/7 140/172/7 135/167/7
f 133/165/7 142/174/7 141/173/7
f 133/165/1 134/166/1 130/162/1
f 113/145/2 125/157/2 126/158/2
f 121/153/7 132/164/7 131/163/7
f 118/150/4 130/162/4 134/166/4
f 118/150/3 117/149/3 129/161/3
f 114/146/3 126/158/3 127/159/3
f 122/154/7 133/165/7 132/164/7
f 141/173/7 148/180/7 147/179/7
f 135/167/2 143/175/2 144/176/2
f 138/170/1 141/173/1 142/174/1
f 126/158/3 136/168/3 137/169/3
f 132/164/7 141/173/7 140/172/7
f 128/160/3 127/159/3 137/169/3
f 129/161/4 139/171/4 142/174/4
f 125/157/2 135/167/2 136/168/2
f 143/175/2 149/181/2 150/182/2
f 147/179/1 148/180/1 146/178/1
f 137/169/3 136/168/3 144/176/3
f 138/170/4 146/178/4 148/180/4
f 140/172/7 147/179/7 143/175/7
f 138/170/3 137/169/3 145/177/3
f 149/181/1 152/184/1 151/183/1
f 145/177/4 151/183/4 152/184/4
f 147/179/7 152/184/7 149/181/7
f 145/177/3 144/176/3 150/182/3
f 156/189/4 153/185/4 154/186/4
f 86/118/1 85/117/1 154/186/1
f 88/120/7 155/188/7 154/186/7
f 158/192/3 159/193/3 160/195/3
f 45/70/1 34/54/1 33/53/1
f 33/53/1 32/52/1 49/80/1
f 159/193/1 158/192/1 48/79/1
f 33/53/1 49/80/1 159/193/1
f 48/79/1 45/70/1 33/53/1
f 29/47/13 9/12/13 37/58/13
f 37/58/14 47/77/14 157/191/14
f 160/194/5 46/73/5 3/5/5
f 37/58/5 157/191/5 160/194/5
f 30/49/15 29/47/15 37/58/15
f 3/5/5 1/2/5 30/49/5
f 37/58/5 160/194/5 3/5/5
f 160/195/2 159/193/2 49/81/2
o Cube.007
v -0.182720 6.332164 -64.363869
v 0.513490 6.332164 -78.755852
v 9.127843 6.332164 -78.339134
v 8.431634 6.332164 -63.947147
v 3.580608 8.706314 -67.812027
v 3.926418 8.706314 -74.960571
v 5.364518 8.706314 -74.891006
v 5.018708 8.706314 -67.742455
v 3.580608 9.271627 -67.812027
v 3.926418 9.271627 -74.960571
v 5.364518 9.271627 -74.891006
v 5.018708 9.271627 -67.742455
v 3.538805 10.085319 -66.947876
v 3.968221 10.085319 -75.824730
v 5.406321 10.085319 -75.755157
v 4.976904 10.085319 -66.878304
vn -0.0000 -1.0000 -0.0000
vn 0.9988 -0.0000 0.0483
vn -0.0265 0.8366 0.5471
vn 0.0265 0.8366 -0.5472
vn 0.5507 0.8343 0.0266
vn -0.5507 0.8343 -0.0266
vn -0.9988 -0.0000 -0.0483
vn -0.0483 -0.0000 0.9988
vn 0.0483 -0.0000 -0.9988
vn -0.0000 1.0000 -0.0000
vn -0.0331 -0.7284 0.6843
vn 0.0331 -0.7284 -0.6843
vt 0.000000 0.000000
vt 0.000000 0.000000
vt 0.000000 0.000000
vt 0.000000 0.000000
vt 0.000000 0.000000
vt 0.000000 0.000000
vt 0.000000 0.000000
vt 0.000000 0.000000
vt 0.000000 0.000000
vt 0.000000 0.000000
vt 0.000000 0.000000
vt 0.000000 0.000000
vt 0.000000 0.000000
vt 0.000000 0.000000
vt 0.000000 0.000000
vt 0.000000 0.000000
s 0
f 163/198/16 161/196/16 162/197/16
f 171/206/17 168/203/17 167/202/17
f 168/203/18 161/196/18 164/199/18
f 166/201/19 163/198/19 162/197/19
f 163/198/20 168/203/20 164/199/20
f 165/200/21 162/197/21 161/196/21
f 175/210/17 172/207/17 171/206/17
f 169/204/22 166/201/22 165/200/22
f 172/207/23 165/200/23 168/203/23
f 170/205/24 167/202/24 166/201/24
f 173/208/25 175/210/25 174/209/25
f 169/204/22 174/209/22 170/205/22
f 176/211/26 169/204/26 172/207/26
f 174/209/27 171/206/27 170/205/27
f 163/198/16 164/199/16 161/196/16
f 171/206/17 172/207/17 168/203/17
f 168/203/18 165/200/18 161/196/18
f 166/201/19 167/202/19 163/198/19
f 163/198/20 167/202/20 168/203/20
f 165/200/21 166/201/21 162/197/21
f 175/210/17 176/211/17 172/207/17
f 169/204/22 170/205/22 166/201/22
f 172/207/23 169/204/23 165/200/23
f 170/205/24 171/206/24 167/202/24
f 173/208/25 176/211/25 175/210/25
f 169/204/22 173/208/22 174/209/22
f 176/211/26 173/208/26 169/204/26
f 174/209/27 175/210/27 171/206/27
