# Blender 3.4.1
# www.blender.org
o Icosphere.026
v 120.494896 -9.032934 -108.773827
v 121.406967 -8.660769 -108.767471
v 122.479790 -8.692029 -108.954613
v 121.607880 -8.328627 -107.159782
v 122.991684 -8.118366 -107.163811
v 121.994049 -8.471863 -106.013542
v 122.339813 -8.502050 -106.125862
v 121.155190 -8.407414 -106.540741
v 122.799347 -8.165501 -106.485382
v 120.368927 -8.910976 -107.616325
v 120.081108 -9.305491 -108.199768
v 119.564003 -9.120793 -106.980995
v 119.471161 -9.629597 -107.610420
v 121.173523 -8.525562 -107.699806
v 120.664795 -8.676550 -108.300659
v 123.586006 -8.824005 -109.047142
v 124.628784 -8.675991 -109.082802
v 123.829544 -8.475400 -107.886147
v 124.710846 -8.595122 -108.292999
v 125.381058 -8.737068 -108.790909
v 124.367920 -8.987777 -107.279930
v 126.137794 -8.957624 -108.957260
v 125.893166 -9.571952 -108.337616
v 120.195343 -9.853407 -109.774284
v 122.362671 -9.157125 -110.604042
v 121.095551 -8.742197 -109.584526
v 122.356239 -8.560966 -109.581261
v 120.860168 -9.489547 -110.105118
v 120.173279 -10.288414 -110.424423
v 120.386658 -10.598259 -110.462486
v 121.308723 -9.876325 -110.712334
v 122.161736 -9.695997 -111.099716
v 121.642227 -10.100873 -110.896927
v 120.704628 -10.151108 -110.665466
v 122.469193 -10.031549 -111.121445
v 120.934517 -10.340304 -110.822495
v 121.929428 -10.479869 -111.003670
v 120.059113 -9.527291 -108.814301
v 119.818611 -10.318338 -109.346550
v 119.702141 -10.469655 -108.208786
v 119.948837 -10.814366 -108.871376
v 119.945961 -10.728996 -109.945732
v 120.428413 -10.966711 -110.268196
v 120.453964 -11.199593 -109.500725
v 120.662521 -11.332665 -109.968590
v 121.149193 -11.261171 -110.563240
v 122.106720 -11.332027 -110.592827
v 121.251999 -11.510690 -110.195641
v 122.203201 -11.759786 -110.231628
v 124.162773 -8.904947 -110.270058
v 123.542450 -8.861249 -110.690582
v 124.190613 -8.939637 -110.378967
v 123.618172 -8.679611 -109.729126
v 124.922005 -8.644777 -109.909599
v 125.006744 -9.315179 -110.694351
v 125.929230 -8.945047 -109.830223
v 125.989120 -9.381680 -110.488327
v 123.559891 -10.043291 -111.018387
v 123.102531 -10.535763 -111.021065
v 126.580841 -9.365669 -109.352280
v 126.241348 -9.844179 -110.267967
v 126.754410 -10.062628 -109.157211
v 126.888794 -10.800847 -109.702660
v 123.902702 -10.610554 -110.796661
v 124.700607 -10.604951 -110.490952
v 123.080826 -11.186973 -110.528328
v 123.609535 -11.663580 -110.522156
v 124.111343 -11.323142 -110.058228
v 125.696381 -11.076750 -109.957382
v 119.904907 -9.446613 -105.858055
v 120.806648 -9.659199 -105.116661
v 120.375679 -9.842484 -105.452713
v 121.524506 -8.601357 -105.493141
v 122.466057 -8.618495 -105.642990
v 120.898140 -8.702642 -105.921295
v 121.524033 -9.384542 -104.831223
v 122.911476 -9.485389 -105.223450
v 119.358307 -9.920981 -106.418549
v 119.712646 -10.721428 -105.866287
v 119.926926 -11.270672 -106.463936
v 122.035210 -10.077492 -104.610298
v 122.907303 -10.496050 -104.469589
v 121.720558 -10.612091 -105.145248
v 122.635475 -10.260559 -104.392708
v 120.593658 -11.059531 -105.715034
v 120.656883 -11.319377 -106.105606
v 121.418175 -11.289846 -105.616348
v 122.354126 -11.488283 -105.529419
v 122.878426 -11.657711 -106.374023
v 123.210297 -11.899571 -105.976311
v 125.695679 -10.377106 -106.369728
v 126.778122 -10.994033 -107.031593
v 126.082130 -10.366107 -107.891541
v 126.620537 -11.005294 -107.498428
v 124.396538 -10.646630 -105.169273
v 125.160278 -10.665583 -105.767952
v 124.772522 -11.391273 -105.763474
v 125.434059 -11.116778 -105.973228
v 124.114365 -11.945072 -106.356407
v 125.883865 -11.592568 -106.565369
v 124.272484 -11.391075 -105.570229
v 123.650909 -11.918582 -106.033615
v 120.309929 -11.354944 -108.409805
v 120.432060 -11.383805 -107.420982
v 120.602325 -11.692228 -107.937691
v 121.624176 -11.543835 -107.396179
v 122.425995 -11.546512 -107.700104
v 121.368866 -11.914559 -108.115158
v 122.788689 -11.721250 -108.115471
v 122.519363 -12.278731 -109.293793
v 122.519264 -12.155038 -109.807800
v 121.799065 -11.959885 -108.692833
v 122.899887 -12.216289 -108.958649
v 122.795311 -11.690223 -107.317749
v 125.176346 -11.584603 -108.998512
v 125.719818 -11.834245 -107.704430
v 123.718132 -11.880669 -108.324692
v 124.461967 -11.552202 -108.437843
v 126.114746 -10.677917 -108.429153
v 125.961464 -11.267258 -108.969574
v 126.144638 -11.461048 -107.993805
v 123.732185 -12.110519 -109.472878
v 124.987808 -11.708983 -109.455856
v 123.374199 -12.157267 -109.716774
v 124.267380 -11.742318 -109.872536
v 125.490837 -11.398215 -109.520866
v 124.006851 -12.010652 -107.216209
v 125.407654 -12.010102 -107.381706
v 123.768799 -11.802040 -107.927231
vn -0.1292 0.9384 0.3204
vn -0.2763 0.9514 0.1360
vn 0.0147 0.9874 0.1579
vn -0.2220 0.9689 -0.1096
vn 0.1804 0.9111 0.3706
vn 0.1588 0.9871 -0.0203
vn -0.5336 0.8212 -0.2022
vn -0.9060 0.2445 -0.3455
vn -0.6921 0.7206 -0.0414
vn -0.3954 0.8980 -0.1927
vn -0.7726 0.5797 -0.2590
vn -0.7407 0.4675 -0.4825
vn -0.1139 0.9935 -0.0006
vn 0.3086 0.9349 0.1753
vn 0.5798 0.5411 0.6091
vn 0.8577 0.5138 0.0202
vn -0.6718 -0.4308 0.6026
vn -0.2205 -0.7748 0.5925
vn -0.3547 -0.4797 0.8025
vn 0.9973 -0.0377 0.0626
vn 0.8654 0.4958 0.0728
vn 0.4173 0.4368 0.7969
vn 0.0517 0.9985 -0.0179
vn 0.2384 0.9711 -0.0138
vn -0.0078 0.9994 -0.0327
vn 0.5346 0.7639 0.3614
vn -0.3537 0.5137 -0.7817
vn -0.4709 0.6276 -0.6199
vn -0.2759 0.7391 -0.6145
vn -0.2029 0.3323 -0.9211
vn -0.2753 0.1417 -0.9509
vn -0.4387 -0.8797 0.1833
vn -0.3114 -0.8541 -0.4167
vn -0.1616 -0.9103 -0.3810
vn -0.0325 -0.0029 -0.9995
vn -0.9764 0.0236 -0.2147
vn -0.9328 -0.3197 0.1666
vn -0.8268 0.5277 -0.1949
vn -0.8780 -0.3881 -0.2802
vn -0.4354 -0.8906 -0.1316
vn -0.6279 -0.7692 -0.1183
vn 0.4563 -0.4785 -0.7502
vn -0.2679 -0.6265 -0.7320
vn -0.5253 -0.3156 -0.7902
vn -0.6773 0.1930 -0.7100
vn -0.1190 -0.2372 -0.9642
vn -0.3303 0.0320 -0.9433
vn -0.8293 -0.5318 -0.1714
vn 0.0368 0.7620 -0.6465
vn 0.1872 0.4388 -0.8789
vn -0.4162 0.3841 -0.8241
vn -0.5652 -0.5773 -0.5893
vn -0.7520 0.5400 -0.3780
vn 0.0153 0.9484 -0.3168
vn 0.1631 0.9038 -0.3958
vn 0.1254 0.9563 -0.2641
vn 0.0876 -0.4193 -0.9036
vn 0.4214 -0.3979 -0.8149
vn 0.2378 -0.3449 -0.9080
vn 0.2749 -0.4279 -0.8610
vn 0.0844 -0.3866 -0.9184
vn 0.1734 -0.0022 -0.9849
vn 0.4878 0.7531 0.4415
vn 0.4529 0.3422 -0.8233
vn 0.3322 -0.8563 -0.3955
vn -0.1353 -0.6784 -0.7221
vn 0.3528 0.6086 0.7107
vn 0.5823 0.2640 0.7689
vn 0.0358 0.9975 -0.0602
vn 0.7783 -0.5516 -0.2999
vn 0.3342 -0.8913 -0.3065
vn -0.3678 -0.9292 -0.0368
vn -0.0124 -0.9982 -0.0582
vn -0.1650 -0.8312 0.5309
vn -0.2206 -0.9747 -0.0362
vn -0.1382 -0.9765 0.1655
vn -0.3807 0.8557 -0.3505
vn -0.3691 0.8868 -0.2780
vn 0.1473 -0.0524 0.9877
vn -0.2251 -0.9249 0.3064
vn -0.2133 -0.2228 0.9512
vn -0.6136 0.4564 0.6443
vn -0.5068 0.0607 0.8599
vn -0.5757 0.1389 0.8057
vn -0.0145 0.4825 0.8758
vn -0.1385 0.8107 0.5688
vn -0.1954 -0.0831 0.9772
vn 0.0118 -0.9579 0.2868
vn 0.5128 -0.6797 0.5244
vn 0.3507 -0.5963 0.7221
vn 0.5826 -0.1979 0.7883
vn 0.2496 0.9624 0.1074
vn 0.4818 0.0374 0.8755
vn 0.9307 -0.0129 0.3654
vn 0.9330 -0.1426 -0.3303
vn 0.6144 -0.7228 -0.3163
vn 0.1749 -0.9828 -0.0593
vn 0.2402 -0.9697 0.0435
vn -0.1409 -0.9900 -0.0014
vn 0.3288 -0.9432 -0.0479
vn -0.1227 -0.9731 0.1949
vn -0.0689 -0.9826 0.1727
vn -0.1338 -0.9910 0.0072
vn -0.0724 -0.9653 0.2509
vn -0.0593 -0.9554 0.2893
vn 0.1971 -0.6485 0.7352
vn -0.4126 -0.8979 0.1537
vn 0.0332 0.9981 -0.0517
vn -0.0327 0.9903 -0.1351
vn 0.6053 -0.7956 -0.0262
vn 0.4586 -0.6160 -0.6405
vn 0.2775 -0.9299 0.2413
vn 0.1662 -0.9409 -0.2950
vn 0.2015 -0.9683 0.1478
vn 0.3647 -0.8976 -0.2475
vn 0.2701 0.7420 0.6136
vn -0.3878 0.8460 0.3661
vn -0.9787 -0.0421 0.2012
vn -0.2524 0.9584 -0.1334
vn -0.7254 -0.6820 -0.0934
vn 0.8448 0.1365 0.5175
vn 0.2811 -0.4519 -0.8466
vn 0.4236 0.8653 -0.2681
vn 0.2009 -0.9734 -0.1105
vn 0.0229 -0.9843 0.1750
vn 0.4609 -0.1854 -0.8679
vn 0.1714 -0.6823 -0.7107
vn -0.0088 -0.9790 0.2036
vn -0.6625 -0.7487 -0.0243
s 1
f 7//1 8//2 6//3
f 4//4 9//5 5//6
f 10//7 13//8 12//9
f 10//7 15//10 11//11
f 1//12 15//10 2//13
f 20//14 91//15 93//16
f 79//17 87//18 83//19
f 119//20 60//21 23//22
f 3//23 18//24 16//25
f 20//14 23//22 22//26
f 31//27 28//28 25//29
f 31//27 32//30 33//31
f 105//32 48//33 111//34
f 35//35 33//31 32//30
f 39//36 40//37 38//38
f 42//39 45//40 44//41
f 47//42 48//33 46//43
f 30//44 42//39 29//45
f 37//46 46//43 36//47
f 39//36 44//41 41//48
f 35//35 51//49 55//50
f 34//51 30//44 29//45
f 46//43 45//40 43//52
f 28//28 29//45 24//53
f 46//43 30//44 36//47
f 24//53 42//39 39//36
f 50//54 52//55 51//49
f 52//55 55//50 51//49
f 54//56 52//55 50//54
f 66//57 68//58 67//59
f 64//60 59//61 58//62
f 5//6 21//63 18//24
f 54//56 57//64 55//50
f 126//65 68//58 64//60
f 66//57 49//66 37//46
f 77//67 96//68 21//63
f 53//69 50//54 51//49
f 57//64 60//21 63//70
f 116//71 127//72 129//73
f 88//74 89//75 90//76
f 26//77 24//53 38//38
f 82//78 84//79 77//67
f 79//17 86//80 85//81
f 70//82 79//17 72//83
f 88//74 83//19 87//18
f 71//84 76//85 73//86
f 86//80 87//18 85//81
f 71//84 81//87 76//85
f 73//86 70//82 72//83
f 102//88 100//89 97//90
f 100//89 91//15 98//91
f 21//63 19//92 18//24
f 97//90 96//68 95//93
f 92//94 94//95 93//16
f 96//68 98//91 91//15
f 121//96 118//97 115//98
f 110//99 113//100 112//101
f 107//102 114//103 106//104
f 107//102 109//105 114//103
f 101//106 95//93 84//79
f 84//79 90//76 102//88
f 105//32 106//104 104//107
f 18//24 20//14 17//108
f 25//29 26//77 27//109
f 121//96 120//110 119//20
f 125//111 122//112 124//113
f 118//97 129//73 117//114
f 109//105 106//104 112//101
f 126//65 115//98 123//115
f 6//3 74//116 7//1
f 6//3 75//117 73//86
f 74//116 9//5 7//1
f 12//9 13//8 78//118
f 12//9 78//118 70//82
f 14//119 5//6 3//23
f 110//99 123//115 118//97
f 41//48 44//41 103//120
f 120//110 62//121 119//20
f 125//111 67//59 68//58
f 123//115 125//111 68//58
f 126//65 63//70 120//110
f 11//11 40//37 13//8
f 2//13 27//109 26//77
f 1//12 2//13 26//77
f 81//87 77//67 73//86
f 103//120 79//17 13//8
f 17//108 53//69 16//25
f 65//122 58//62 57//64
f 22//26 60//21 56//123
f 128//124 99//125 127//72
f 94//95 119//20 93//16
f 116//71 94//95 92//94
f 100//89 116//71 92//94
f 61//126 69//127 65//122
f 12//9 4//4 14//119
f 33//31 36//47 34//51
f 35//35 59//61 37//46
f 12//9 75//117 8//2
f 25//29 51//49 32//30
f 102//88 89//75 99//125
f 124//113 110//99 111//34
f 89//75 86//80 114//103
f 3//23 53//69 27//109
f 67//59 111//34 49//66
f 84//79 82//78 71//84
f 56//123 17//108 20//14
f 7//1 9//5 8//2
f 4//4 8//2 9//5
f 10//7 11//11 13//8
f 10//7 14//119 15//10
f 1//12 11//11 15//10
f 93//16 23//22 20//14
f 20//14 19//92 91//15
f 91//15 92//94 93//16
f 83//19 72//83 79//17
f 79//17 85//81 87//18
f 23//22 93//16 119//20
f 119//20 62//121 60//21
f 60//21 22//26 23//22
f 3//23 5//6 18//24
f 31//27 34//51 28//28
f 28//28 26//77 25//29
f 25//29 32//30 31//27
f 111//34 110//99 112//101
f 112//101 108//128 105//32
f 105//32 103//120 44//41
f 44//41 45//40 48//33
f 48//33 49//66 111//34
f 111//34 112//101 105//32
f 105//32 44//41 48//33
f 35//35 37//46 33//31
f 39//36 41//48 40//37
f 42//39 43//52 45//40
f 47//42 49//66 48//33
f 30//44 43//52 42//39
f 37//46 47//42 46//43
f 39//36 42//39 44//41
f 55//50 58//62 35//35
f 35//35 32//30 51//49
f 34//51 36//47 30//44
f 46//43 48//33 45//40
f 28//28 34//51 29//45
f 46//43 43//52 30//44
f 24//53 29//45 42//39
f 54//56 55//50 52//55
f 64//60 66//57 59//61
f 5//6 9//5 21//63
f 54//56 56//123 57//64
f 65//122 69//127 126//65
f 126//65 123//115 68//58
f 68//58 66//57 64//60
f 64//60 65//122 126//65
f 37//46 59//61 66//57
f 66//57 67//59 49//66
f 49//66 47//42 37//46
f 21//63 9//5 74//116
f 77//67 84//79 95//93
f 21//63 74//116 77//67
f 96//68 91//15 21//63
f 77//67 95//93 96//68
f 51//49 25//29 27//109
f 53//69 54//56 50//54
f 51//49 27//109 53//69
f 63//70 61//126 57//64
f 57//64 56//123 60//21
f 60//21 62//121 63//70
f 129//73 118//97 116//71
f 116//71 128//124 127//72
f 11//11 1//12 26//77
f 26//77 28//28 24//53
f 24//53 39//36 38//38
f 38//38 11//11 26//77
f 79//17 80//129 86//80
f 70//82 78//118 79//17
f 88//74 84//79 83//19
f 72//83 71//84 73//86
f 73//86 75//117 70//82
f 97//90 101//106 102//88
f 102//88 99//125 100//89
f 100//89 98//91 97//90
f 100//89 92//94 91//15
f 21//63 91//15 19//92
f 97//90 98//91 96//68
f 115//98 120//110 121//96
f 121//96 116//71 118//97
f 101//106 97//90 95//93
f 102//88 101//106 84//79
f 84//79 88//74 90//76
f 105//32 108//128 106//104
f 17//108 16//25 18//24
f 18//24 19//92 20//14
f 125//111 123//115 122//112
f 112//101 113//100 117//114
f 109//105 107//102 106//104
f 112//101 117//114 109//105
f 106//104 108//128 112//101
f 126//65 120//110 115//98
f 6//3 73//86 74//116
f 6//3 8//2 75//117
f 3//23 2//13 15//10
f 14//119 4//4 5//6
f 3//23 15//10 14//119
f 117//114 113//100 110//99
f 110//99 122//112 123//115
f 123//115 115//98 118//97
f 118//97 117//114 110//99
f 120//110 63//70 62//121
f 125//111 124//113 67//59
f 126//65 69//127 63//70
f 11//11 38//38 40//37
f 2//13 3//23 27//109
f 73//86 76//85 81//87
f 81//87 82//78 77//67
f 77//67 74//116 73//86
f 40//37 41//48 103//120
f 103//120 105//32 104//107
f 104//107 80//129 79//17
f 79//17 78//118 13//8
f 13//8 40//37 103//120
f 103//120 104//107 79//17
f 17//108 54//56 53//69
f 57//64 61//126 65//122
f 65//122 64//60 58//62
f 58//62 55//50 57//64
f 128//124 100//89 99//125
f 94//95 121//96 119//20
f 116//71 121//96 94//95
f 100//89 128//124 116//71
f 61//126 63//70 69//127
f 14//119 10//7 12//9
f 12//9 8//2 4//4
f 34//51 31//27 33//31
f 33//31 37//46 36//47
f 35//35 58//62 59//61
f 12//9 70//82 75//117
f 102//88 90//76 89//75
f 124//113 122//112 110//99
f 109//105 117//114 129//73
f 129//73 127//72 99//125
f 89//75 88//74 87//18
f 129//73 99//125 89//75
f 114//103 109//105 129//73
f 104//107 106//104 114//103
f 86//80 80//129 104//107
f 89//75 87//18 86//80
f 114//103 129//73 89//75
f 86//80 104//107 114//103
f 3//23 16//25 53//69
f 67//59 124//113 111//34
f 72//83 83//19 84//79
f 82//78 81//87 71//84
f 71//84 72//83 84//79
f 20//14 22//26 56//123
f 56//123 54//56 17//108
