# Blender 3.4.1
# www.blender.org
o Cube.035
v 132.803040 -10.213376 -110.321098
v 132.526886 -10.323337 -109.865486
v 132.003143 -10.109544 -109.167755
v 132.468475 -9.647095 -109.166153
v 133.226440 -11.319304 -110.379089
v 133.400406 -11.337145 -110.438148
v 132.023178 -10.866443 -109.166397
v 133.492477 -11.782608 -109.417900
v 133.775665 -10.727562 -111.260292
v 132.965439 -10.181161 -110.513672
v 134.247955 -10.096425 -110.745743
v 133.454575 -9.744919 -110.557709
v 134.107422 -11.119144 -111.259712
v 133.932037 -11.379449 -110.624649
v 131.738266 -10.922381 -108.719032
v 131.677994 -10.221579 -108.562248
v 131.869492 -11.045338 -108.234833
v 132.535889 -11.873188 -107.989304
v 131.726166 -10.636414 -107.901360
v 131.691391 -10.765656 -107.440903
v 131.711639 -10.590585 -107.142426
v 132.028366 -11.610053 -107.006111
v 131.679642 -10.653355 -106.298622
v 131.975250 -10.054069 -105.854263
v 131.852020 -11.345671 -106.076233
v 132.113831 -10.951251 -105.724487
v 132.246277 -10.507697 -105.322525
v 133.062469 -9.027508 -109.037354
v 132.814453 -9.112247 -108.734756
v 133.671783 -9.272663 -110.375313
v 134.532822 -8.671096 -109.276382
v 133.278687 -8.808060 -108.503258
v 134.593231 -8.602059 -108.980453
v 134.706741 -8.835491 -107.487045
v 132.409943 -9.268068 -107.573631
v 132.450974 -9.455226 -107.032166
v 133.118774 -8.842917 -107.631615
v 133.818451 -8.798285 -107.316116
v 133.795883 -9.148986 -106.426994
v 132.068344 -9.914922 -105.780090
v 132.069092 -9.918955 -105.775711
v 132.261246 -9.976599 -105.413162
v 133.451279 -9.433345 -105.900208
v 134.715729 -11.362906 -110.542549
v 134.705109 -11.690873 -110.059151
v 135.269333 -10.780135 -110.418678
v 134.874985 -11.796276 -109.598404
v 135.543533 -10.897872 -109.854393
v 134.098572 -11.892632 -109.204063
v 135.009949 -11.644326 -107.854065
v 133.333755 -12.011214 -107.608223
v 133.729309 -11.823756 -106.484764
v 134.581467 -11.801927 -106.984459
v 134.306976 -11.527110 -106.420410
v 132.798431 -11.896554 -105.821205
v 132.543259 -10.747284 -104.947357
v 133.054169 -11.909749 -105.773125
v 133.453262 -11.326086 -105.038918
v 133.273712 -11.297967 -104.992470
v 134.560089 -11.831895 -106.938324
v 135.549957 -9.836700 -109.688499
v 135.322433 -9.359756 -109.490074
v 136.006485 -10.603522 -109.072502
v 135.346313 -8.985859 -108.810555
v 135.606628 -9.578216 -107.560921
v 135.439041 -9.040037 -107.502243
v 135.478241 -9.243348 -107.397697
v 135.450424 -11.029180 -107.254082
v 134.663513 -9.498865 -106.795464
v 134.150085 -9.497139 -106.251358
v 134.796524 -10.534166 -106.138275
v 135.163025 -10.030218 -106.798363
v 134.518646 -9.925077 -106.161079
v 133.348083 -10.727116 -104.886055
v 133.512497 -9.599624 -105.649963
v 133.921219 -10.714350 -105.188515
v 133.564148 -10.758464 -104.962730
v 134.918747 -11.072231 -106.411034
v 134.807220 -11.060237 -106.384453
vn -0.8253 0.2022 -0.5272
vn -0.8297 0.2368 -0.5055
vn -0.6502 0.6418 -0.4067
vn 0.8091 0.3484 0.4733
vn 0.4558 0.6451 0.6132
vn 0.7660 0.2070 0.6085
vn -0.3434 -0.0322 -0.9386
vn -0.4007 0.5466 -0.7353
vn 0.3588 0.4840 -0.7982
vn -0.2612 -0.8229 -0.5045
vn -0.6995 0.2266 -0.6777
vn -0.7944 -0.5959 -0.1174
vn -0.4894 -0.5896 -0.6425
vn -0.2787 -0.9199 -0.2758
vn -0.3059 -0.6199 -0.7226
vn -0.5724 0.7944 -0.2029
vn -0.9333 0.3018 -0.1943
vn -0.7394 -0.2020 -0.6423
vn -0.5218 0.5620 0.6418
vn -0.9068 0.3202 0.2741
vn -0.7999 -0.4737 0.3683
vn 0.2279 -0.9731 -0.0322
vn 0.6051 0.5959 -0.5280
vn -0.2121 0.7137 -0.6675
vn 0.0377 0.9259 -0.3758
vn -0.7822 -0.3987 -0.4788
vn 0.2525 0.6679 0.7001
vn 0.1702 0.2071 0.9634
vn -0.7221 -0.6916 -0.0160
vn -0.9791 0.0636 0.1934
vn -0.9829 -0.1661 -0.0800
vn -0.9775 -0.2106 -0.0144
vn -0.7647 -0.5717 -0.2973
vn -0.0027 -0.9999 -0.0114
vn 0.7742 0.4001 -0.4905
vn 0.7287 0.6741 -0.1211
vn 0.4860 0.6476 0.5868
vn 0.6425 0.0663 0.7634
vn 0.5912 0.4866 0.6432
vn 0.7838 -0.0452 0.6194
vn 0.1749 0.9113 0.3727
vn 0.1403 0.9844 -0.1061
vn 0.6337 -0.7703 0.0716
vn 0.8539 -0.3787 -0.3569
vn 0.9766 -0.1756 -0.1242
vn 0.9464 0.1868 0.2634
vn 0.8631 -0.3547 0.3594
vn -0.0069 0.9777 0.2101
vn -0.6053 0.7660 0.2164
vn -0.6724 -0.0524 0.7383
vn 0.4970 -0.6750 0.5453
vn 0.2827 -0.9255 0.2521
vn 0.7185 -0.0376 -0.6945
vn -0.4627 -0.1646 0.8711
vn 0.2550 -0.6112 0.7493
vn -0.3155 -0.9396 0.1328
vn 0.6890 0.6564 0.3073
vn -0.2984 0.9384 -0.1745
vn -0.3226 0.9061 0.2737
vn -0.9511 0.3085 0.0171
vn -0.4456 0.8648 -0.2315
vn -0.3452 -0.8414 0.4159
vn -0.4570 -0.8644 -0.2097
vn 0.5122 -0.3013 0.8043
vn -0.2479 -0.6132 0.7500
vn 0.4475 -0.6966 -0.5608
vn 0.0109 -0.4459 -0.8950
vn -0.6816 -0.2972 0.6686
vn -0.8759 0.0075 0.4824
vn 0.1757 0.8749 0.4513
vn -0.0100 0.8795 0.4758
vn -0.6491 0.7478 0.1392
vn 0.2847 -0.8826 -0.3741
vn -0.5845 0.6606 0.4712
vn -0.2051 0.8513 0.4829
vn 0.4303 0.2246 0.8743
vn 0.2785 -0.9483 -0.1524
vn 0.1027 -0.9159 0.3882
vn 0.5733 0.2583 0.7775
s 1
f 2//1 3//2 4//3
f 67//4 69//5 72//6
f 9//7 12//8 11//9
f 9//7 14//10 10//11
f 17//12 5//13 8//14
f 10//11 6//15 5//13
f 29//16 4//3 16//17
f 1//18 2//1 4//3
f 42//19 24//20 25//21
f 14//10 49//22 8//14
f 62//23 30//24 31//25
f 10//11 7//26 2//1
f 75//27 42//19 74//28
f 22//29 23//30 20//31
f 19//32 15//33 17//12
f 51//34 8//14 49//22
f 61//35 64//36 67//4
f 70//37 74//28 76//38
f 73//39 71//40 72//6
f 34//41 64//36 33//42
f 50//43 48//44 63//45
f 65//46 68//47 63//45
f 38//48 36//49 42//19
f 53//50 54//51 52//52
f 61//35 48//44 46//53
f 56//54 58//55 59//56
f 34//41 69//5 66//57
f 58//55 52//52 54//51
f 34//41 32//58 37//59
f 21//60 19//32 23//30
f 33//42 30//24 28//61
f 73//39 69//5 70//37
f 55//62 22//29 18//63
f 79//64 53//50 60//65
f 44//66 14//10 13//67
f 13//67 46//53 44//66
f 26//68 56//54 27//69
f 60//65 53//50 51//34
f 64//36 31//25 33//42
f 39//70 69//5 38//48
f 43//71 70//37 39//70
f 11//9 12//8 30//24
f 61//35 13//67 11//9
f 21//60 35//72 16//17
f 58//55 26//68 55//62
f 48//44 45//73 44//66
f 24//20 41//74 40//75
f 24//20 36//49 21//60
f 68//47 72//6 79//64
f 77//76 58//55 76//38
f 59//56 74//28 56//54
f 76//38 54//51 71//40
f 54//51 79//64 71//40
f 22//29 19//32 17//12
f 28//61 12//8 1//18
f 7//26 17//12 15//33
f 2//1 15//33 16//17
f 37//59 29//16 35//72
f 68//47 60//65 50//43
f 56//54 42//19 27//69
f 67//4 66//57 69//5
f 9//7 10//11 12//8
f 9//7 13//67 14//10
f 8//14 18//63 17//12
f 17//12 7//26 5//13
f 5//13 6//15 8//14
f 10//11 14//10 6//15
f 16//17 35//72 29//16
f 29//16 28//61 4//3
f 4//3 3//2 16//17
f 26//68 27//69 42//19
f 42//19 41//74 24//20
f 24//20 23//30 25//21
f 25//21 26//68 42//19
f 8//14 6//15 14//10
f 14//10 45//73 49//22
f 62//23 61//35 30//24
f 2//1 1//18 10//11
f 10//11 5//13 7//26
f 75//27 43//71 42//19
f 22//29 25//21 23//30
f 19//32 16//17 15//33
f 51//34 18//63 8//14
f 65//46 63//45 61//35
f 61//35 62//23 64//36
f 64//36 66//57 67//4
f 67//4 65//46 61//35
f 76//38 73//39 70//37
f 70//37 75//27 74//28
f 74//28 77//76 76//38
f 73//39 76//38 71//40
f 34//41 66//57 64//36
f 63//45 68//47 50//43
f 50//43 47//77 48//44
f 43//71 39//70 38//48
f 38//48 37//59 35//72
f 36//49 40//75 41//74
f 38//48 35//72 36//49
f 42//19 43//71 38//48
f 36//49 41//74 42//19
f 61//35 63//45 48//44
f 34//41 38//48 69//5
f 58//55 57//78 52//52
f 37//59 38//48 34//41
f 34//41 33//42 32//58
f 21//60 16//17 19//32
f 19//32 20//31 23//30
f 23//30 24//20 21//60
f 29//16 32//58 33//42
f 33//42 31//25 30//24
f 28//61 29//16 33//42
f 73//39 72//6 69//5
f 18//63 51//34 55//62
f 55//62 25//21 22//29
f 60//65 78//79 79//64
f 79//64 54//51 53//50
f 44//66 45//73 14//10
f 47//77 50//43 60//65
f 45//73 47//77 60//65
f 51//34 49//22 45//73
f 57//78 55//62 51//34
f 52//52 57//78 51//34
f 51//34 45//73 60//65
f 53//50 52//52 51//34
f 64//36 62//23 31//25
f 39//70 70//37 69//5
f 43//71 75//27 70//37
f 11//9 30//24 61//35
f 61//35 46//53 13//67
f 13//67 9//7 11//9
f 21//60 36//49 35//72
f 55//62 57//78 58//55
f 58//55 56//54 26//68
f 26//68 25//21 55//62
f 44//66 46//53 48//44
f 48//44 47//77 45//73
f 24//20 40//75 36//49
f 79//64 78//79 68//47
f 68//47 65//46 67//4
f 72//6 71//40 79//64
f 68//47 67//4 72//6
f 77//76 59//56 58//55
f 59//56 77//76 74//28
f 76//38 58//55 54//51
f 17//12 18//63 22//29
f 22//29 20//31 19//32
f 1//18 4//3 28//61
f 28//61 30//24 12//8
f 12//8 10//11 1//18
f 16//17 3//2 2//1
f 2//1 7//26 15//33
f 37//59 32//58 29//16
f 68//47 78//79 60//65
f 56//54 74//28 42//19
