# Blender 3.4.1
# www.blender.org
o Cylinder.010
v 167.825546 -4.389188 -98.862518
v 165.152039 -4.058918 -98.395569
v 167.697296 -5.403813 -99.393036
v 165.384430 -5.852430 -99.096367
v 165.567108 -7.377542 -98.893791
v 169.279495 -3.212541 -96.251945
v 169.080551 -5.238274 -97.463936
v 169.386414 -6.609142 -97.370323
v 166.938370 -2.273805 -97.675003
v 167.849548 -3.573297 -98.190178
v 165.255753 -3.439249 -97.790344
v 167.479889 -1.150838 -95.714340
v 169.096436 -2.732268 -96.233635
v 165.542374 -1.836824 -95.318901
v 169.547745 -10.826744 -97.527756
v 169.433731 -11.107282 -97.476112
v 168.634308 -10.348995 -98.510025
v 165.781448 -8.810273 -98.390762
v 165.943085 -10.351858 -98.449142
v 168.358994 -12.012521 -97.799202
v 167.189392 -12.876499 -96.989326
v 166.202957 -12.529144 -97.747200
v 166.306412 -12.644386 -96.741699
v 170.062607 -10.171744 -96.873299
v 170.992844 -9.833187 -94.895699
v 170.190033 -12.239285 -95.313110
v 170.476898 -11.212867 -94.864090
v 168.553604 -13.282671 -96.004227
v 167.593658 -13.446737 -95.869202
v 166.394485 -12.778158 -96.644409
v 168.529236 -12.213506 -93.968216
v 167.656876 -12.888607 -94.395805
v 166.807312 -12.820118 -94.027794
v 164.307190 -4.426062 -98.089874
v 164.184631 -6.252711 -98.506531
v 163.809769 -7.201819 -98.371407
v 162.878357 -7.161158 -97.574692
v 163.355484 -4.428301 -96.072762
v 163.132065 -4.290319 -94.616882
v 162.756134 -4.912200 -96.181320
v 162.365555 -4.796539 -95.283127
v 161.640259 -5.197104 -95.224472
v 160.775375 -6.868470 -94.437698
v 163.632416 -8.673855 -98.601326
v 164.285568 -10.429643 -98.761528
v 162.119095 -8.836858 -97.763206
v 162.015869 -10.247353 -97.638092
v 164.751068 -12.577751 -97.908516
v 164.945740 -13.082003 -96.691254
v 162.089386 -12.129333 -97.635864
v 163.118835 -13.260672 -96.540741
v 161.662476 -9.410603 -96.734688
v 161.343933 -10.205151 -96.764679
v 165.332245 -13.568238 -94.079514
v 162.646255 -13.918276 -94.755333
v 165.292984 -12.464158 -92.264114
v 164.898926 -13.303740 -92.962692
v 162.920334 -11.573248 -92.458885
v 163.311249 -13.182383 -93.022881
v 161.330414 -10.290940 -95.071297
v 160.210907 -8.412178 -93.763016
v 161.259293 -10.214601 -93.756271
v 161.392670 -12.619901 -95.342026
v 161.705826 -12.977695 -95.093788
v 162.384369 -11.793947 -92.782486
v 162.149338 -12.384222 -93.636421
v 169.732666 -3.053194 -93.267601
v 169.901581 -4.817585 -93.950577
v 169.911011 -4.323158 -92.951347
v 169.825714 -6.140923 -92.043686
v 167.625229 -1.056555 -93.811089
v 168.577087 -2.236719 -95.018814
v 165.357574 -1.418177 -94.208084
v 168.113571 -1.087445 -93.594688
v 169.127930 -1.635731 -92.547592
v 166.284485 -1.492011 -92.911667
v 165.960373 -1.468096 -92.617668
v 169.385544 -3.460690 -91.666176
v 168.381638 -2.151182 -91.316284
v 166.447449 -1.779189 -90.816406
v 168.555939 -3.700641 -90.706367
v 166.922104 -3.930199 -90.206467
v 167.204636 -5.865489 -89.800774
v 170.889236 -9.077895 -93.102913
v 170.125702 -8.614508 -91.762558
v 170.088898 -10.524202 -92.198921
v 169.000473 -9.906828 -90.494598
v 165.668427 -8.195939 -90.396339
v 166.678284 -9.784432 -90.072357
v 169.576981 -11.279616 -92.460922
v 166.330902 -11.740341 -91.505775
v 168.767120 -11.232757 -91.222359
v 166.670822 -11.167007 -90.759018
v 168.312347 -7.572399 -90.318855
v 168.646423 -8.363907 -90.504662
v 167.280106 -7.917027 -89.916801
v 166.863373 -8.683729 -90.148438
v 164.750778 -2.281661 -94.454857
v 164.074402 -2.512099 -93.856194
v 163.172745 -3.878040 -94.031601
v 164.006119 -2.882840 -91.548485
v 162.326965 -4.936464 -92.685379
v 162.574753 -6.709398 -91.860046
v 162.991592 -4.546106 -91.481865
v 163.261429 -6.286761 -91.619453
v 161.017059 -5.936563 -93.342537
v 160.914307 -6.568768 -92.699326
v 164.966278 -4.659243 -90.477661
v 165.313766 -6.226811 -90.565903
v 163.347214 -9.731080 -92.021126
v 165.056152 -7.777677 -91.051460
v 165.299118 -11.666796 -91.731735
v 163.627106 -11.126522 -91.924370
v 165.475357 -10.537894 -91.082405
v 161.400406 -8.045031 -92.505180
v 165.598724 -7.123980 -90.688789
vn -0.0138 0.6994 -0.7146
vn 0.4110 0.5096 -0.7559
vn -0.4136 0.6962 -0.5867
vn 0.7502 0.5549 -0.3596
vn -0.2977 0.5327 -0.7922
vn 0.7808 0.2663 -0.5652
vn -0.2608 0.0630 -0.9633
vn 0.7574 0.6514 -0.0440
vn 0.9473 0.3194 -0.0228
vn 0.4952 0.0543 0.8671
vn 0.8143 0.0810 0.5748
vn 0.7471 0.2432 0.6186
vn 0.3763 -0.8331 0.4055
vn 0.2331 -0.8431 0.4845
vn 0.3964 -0.9070 -0.1423
vn 0.2557 -0.9470 0.1943
vn -0.0920 -0.9950 -0.0400
vn 0.9776 0.1679 -0.1266
vn 0.9787 0.0914 0.1840
vn -0.3856 -0.8265 -0.4101
vn 0.0623 -0.8255 -0.5609
vn 0.8118 0.1302 -0.5692
vn 0.9852 -0.1005 -0.1388
vn 0.8652 -0.1026 -0.4909
vn -0.7535 0.2292 0.6162
vn -0.5991 0.7891 -0.1358
vn -0.8208 0.5523 -0.1460
vn 0.7088 -0.4344 -0.5558
vn 0.1598 -0.2160 -0.9632
vn 0.7870 -0.2427 -0.5672
vn 0.8013 -0.5942 0.0696
vn 0.6510 0.7318 0.2018
vn 0.1074 0.9929 0.0516
vn 0.0060 0.9889 0.1485
vn -0.4476 -0.1997 0.8717
vn -0.3096 -0.7056 0.6374
vn 0.1502 -0.5915 0.7922
vn -0.7422 -0.6673 0.0617
vn -0.5823 -0.3645 -0.7267
vn -0.1934 -0.8916 -0.4094
vn 0.3278 -0.5455 -0.7714
vn 0.0254 -0.0989 -0.9948
vn -0.6401 0.4540 -0.6198
vn -0.5464 0.7527 -0.3671
vn -0.4863 0.8504 -0.2010
vn -0.5623 0.7851 -0.2597
vn -0.6466 0.5835 -0.4914
vn -0.0390 -0.6368 -0.7701
vn 0.2565 -0.9618 0.0957
vn 0.1007 -0.8476 0.5209
vn -0.3667 0.0896 0.9260
vn -0.0954 0.7213 0.6860
vn -0.9518 -0.2924 -0.0928
vn -0.9788 -0.1202 0.1661
vn -0.7685 -0.5368 -0.3481
vn 0.1291 -0.9511 -0.2807
vn 0.1053 -0.7990 -0.5920
vn 0.8637 0.1791 -0.4710
vn -0.6319 -0.2455 0.7351
vn -0.4894 -0.1992 0.8490
vn -0.7552 -0.4519 0.4748
vn -0.3572 -0.9328 0.0475
vn 0.2252 0.9724 0.0610
vn 0.0476 -0.1149 0.9922
vn 0.5132 0.2068 0.8330
vn -0.2161 0.1604 0.9631
vn -0.3708 -0.1660 0.9138
vn -0.4501 0.0635 0.8907
vn -0.4957 -0.1416 0.8569
vn -0.6423 0.5832 0.4973
vn -0.1670 0.9723 0.1635
vn -0.5085 0.8558 -0.0956
vn 0.1935 0.9327 -0.3043
vn 0.4507 0.5525 0.7011
vn 0.8476 0.1694 0.5028
vn -0.8438 -0.3240 0.4278
vn -0.9011 -0.4297 -0.0579
vn 0.5225 0.0541 0.8509
vn -0.4644 -0.1409 0.8744
vn -0.0231 -0.0650 0.9976
vn -0.5810 -0.0608 0.8116
vn -0.2437 -0.2376 0.9403
vn 0.4906 -0.2028 0.8474
vn 0.8451 -0.4375 0.3074
vn 0.9650 -0.0207 0.2614
vn -0.1659 -0.5812 0.7967
vn 0.3782 -0.7110 0.5928
vn 0.6267 -0.7226 0.2917
vn -0.5215 0.1123 0.8458
vn -0.7312 0.5680 0.3778
vn -0.7667 0.2272 0.6004
vn -0.8401 0.5208 0.1517
vn 0.9130 0.2166 -0.3457
vn 0.3071 0.1727 -0.9359
vn 0.8899 -0.4515 0.0652
vn -0.9243 0.2612 -0.2783
vn -0.7417 0.5953 -0.3090
vn -0.6996 0.2802 -0.6573
vn -0.1199 -0.8697 0.4789
vn 0.5053 -0.1235 -0.8541
vn -0.5498 0.1249 -0.8259
vn -0.6515 -0.1416 -0.7453
vn -0.2598 0.0768 -0.9626
vn -0.4298 -0.2449 -0.8691
vn -0.3335 -0.2328 0.9136
vn -0.4109 -0.0728 0.9088
vn -0.4426 0.0781 -0.8933
vn -0.7799 0.6120 -0.1317
vn -0.0330 -0.9532 -0.3006
vn -0.1193 -0.5980 0.7925
vn 0.2056 -0.0822 -0.9752
vn -0.7117 0.6519 -0.2617
vn 0.7011 0.0371 0.7121
vn -0.8686 0.3175 -0.3805
vn -0.4038 -0.1685 0.8992
vn -0.7580 0.2412 -0.6060
s 1
f 9//1 10//2 11//3
f 9//1 13//4 10//2
f 2//5 10//2 1//6
f 1//6 4//7 2//5
f 13//4 72//8 67//9
f 95//10 85//11 70//12
f 31//13 32//14 28//15
f 33//16 29//17 32//14
f 85//11 68//18 69//19
f 30//20 21//21 29//17
f 8//22 25//23 24//24
f 104//25 99//26 100//27
f 16//28 17//29 15//30
f 28//15 16//28 26//31
f 75//32 71//33 76//34
f 113//35 59//36 56//37
f 64//38 50//39 51//40
f 20//41 18//42 4//7
f 34//43 100//27 14//44
f 41//45 38//46 40//47
f 48//48 51//40 50//39
f 59//36 54//49 57//50
f 108//51 80//52 104//25
f 60//53 61//54 53//55
f 54//49 49//56 22//57
f 68//18 7//58 67//9
f 65//59 59//36 58//60
f 66//61 55//62 59//36
f 28//15 21//21 22//57
f 74//63 72//8 71//33
f 96//64 81//65 82//66
f 109//67 103//68 110//69
f 101//70 77//71 73//72
f 9//1 14//44 12//73
f 82//66 79//74 80//52
f 78//75 67//9 75//32
f 79//74 78//75 75//32
f 62//76 63//77 66//61
f 96//64 95//10 94//78
f 115//79 62//76 110//69
f 97//80 88//81 89//82
f 97//80 87//83 95//10
f 85//11 86//84 84//85
f 93//86 87//83 89//82
f 86//84 92//87 90//88
f 105//89 102//90 103//68
f 107//91 102//90 106//92
f 10//2 6//93 3//94
f 12//73 73//72 71//33
f 94//78 69//19 78//75
f 90//88 31//13 27//95
f 43//96 106//92 42//97
f 42//97 40//47 37//98
f 31//13 92//87 91//99
f 5//100 35//101 4//7
f 4//7 34//43 2//5
f 48//48 47//102 44//103
f 18//42 45//104 44//103
f 17//29 7//58 8//22
f 33//16 54//49 30//20
f 114//105 91//99 93//86
f 116//106 88//81 96//64
f 24//24 27//95 16//28
f 44//103 37//98 36//107
f 42//97 102//90 39//108
f 84//85 90//88 27//95
f 61//54 107//91 43//96
f 9//1 12//73 13//4
f 2//5 11//3 10//2
f 1//6 3//94 4//7
f 67//9 6//93 13//4
f 13//4 12//73 71//33
f 72//8 75//32 67//9
f 13//4 71//33 72//8
f 70//12 94//78 95//10
f 95//10 87//83 85//11
f 26//31 27//95 31//13
f 31//13 56//37 57//50
f 31//13 57//50 33//16
f 28//15 26//31 31//13
f 32//14 29//17 28//15
f 31//13 33//16 32//14
f 33//16 30//20 29//17
f 69//19 70//12 85//11
f 85//11 84//85 68//18
f 30//20 23//109 21//21
f 100//27 102//90 104//25
f 104//25 101//70 99//26
f 16//28 20//41 17//29
f 28//15 20//41 16//28
f 76//34 77//71 80//52
f 80//52 79//74 75//32
f 75//32 74//63 71//33
f 71//33 73//72 76//34
f 76//34 80//52 75//32
f 56//37 112//110 113//35
f 113//35 58//60 59//36
f 59//36 57//50 56//37
f 51//40 55//62 64//38
f 64//38 63//77 50//39
f 3//94 17//29 20//41
f 20//41 22//57 48//48
f 48//48 45//104 19//111
f 18//42 44//103 36//107
f 20//41 48//48 19//111
f 18//42 36//107 5//100
f 20//41 19//111 18//42
f 4//7 3//94 20//41
f 18//42 5//100 4//7
f 11//3 2//5 34//43
f 34//43 40//47 38//46
f 38//46 39//108 100//27
f 100//27 99//26 98//112
f 98//112 73//72 14//44
f 14//44 11//3 34//43
f 34//43 38//46 100//27
f 100//27 98//112 14//44
f 41//45 39//108 38//46
f 48//48 49//56 51//40
f 59//36 55//62 54//49
f 108//51 109//67 83//113
f 83//113 82//66 80//52
f 80//52 101//70 104//25
f 108//51 83//113 80//52
f 47//102 50//39 63//77
f 60//53 62//76 61//54
f 47//102 63//77 60//53
f 61//54 52//114 53//55
f 53//55 47//102 60//53
f 23//109 30//20 54//49
f 54//49 55//62 51//40
f 49//56 48//48 22//57
f 54//49 51//40 49//56
f 22//57 23//109 54//49
f 68//18 84//85 25//23
f 25//23 8//22 7//58
f 7//58 6//93 67//9
f 67//9 69//19 68//18
f 68//18 25//23 7//58
f 65//59 66//61 59//36
f 66//61 64//38 55//62
f 22//57 20//41 28//15
f 28//15 29//17 21//21
f 21//21 23//109 22//57
f 74//63 75//32 72//8
f 82//66 83//113 96//64
f 96//64 94//78 81//65
f 93//86 89//82 88//81
f 93//86 88//81 111//115
f 113//35 112//110 114//105
f 114//105 93//86 111//115
f 116//106 96//64 83//113
f 113//35 114//105 111//115
f 116//106 83//113 109//67
f 58//60 113//35 111//115
f 111//115 116//106 109//67
f 109//67 108//51 104//25
f 109//67 104//25 105//89
f 58//60 111//115 109//67
f 62//76 65//59 58//60
f 107//91 115//79 110//69
f 110//69 62//76 58//60
f 109//67 105//89 103//68
f 103//68 107//91 110//69
f 110//69 58//60 109//67
f 98//112 99//26 101//70
f 101//70 80//52 77//71
f 77//71 76//34 73//72
f 73//72 98//112 101//70
f 9//1 11//3 14//44
f 82//66 81//65 79//74
f 78//75 69//19 67//9
f 79//74 81//65 78//75
f 66//61 65//59 62//76
f 62//76 60//53 63//77
f 63//77 64//38 66//61
f 96//64 97//80 95//10
f 115//79 61//54 62//76
f 97//80 96//64 88//81
f 97//80 89//82 87//83
f 85//11 87//83 86//84
f 93//86 92//87 87//83
f 86//84 87//83 92//87
f 105//89 104//25 102//90
f 107//91 103//68 102//90
f 3//94 1//6 10//2
f 10//2 13//4 6//93
f 6//93 7//58 3//94
f 12//73 14//44 73//72
f 78//75 81//65 94//78
f 94//78 70//12 69//19
f 43//96 107//91 106//92
f 46//116 47//102 53//55
f 52//114 61//54 43//96
f 46//116 53//55 52//114
f 35//101 36//107 37//98
f 37//98 46//116 52//114
f 52//114 43//96 42//97
f 42//97 41//45 40//47
f 40//47 34//43 35//101
f 37//98 52//114 42//97
f 40//47 35//101 37//98
f 112//110 56//37 31//13
f 31//13 90//88 92//87
f 92//87 93//86 91//99
f 91//99 112//110 31//13
f 5//100 36//107 35//101
f 4//7 35//101 34//43
f 44//103 45//104 48//48
f 48//48 50//39 47//102
f 47//102 46//116 44//103
f 18//42 19//111 45//104
f 24//24 15//30 17//29
f 17//29 3//94 7//58
f 8//22 24//24 17//29
f 33//16 57//50 54//49
f 114//105 112//110 91//99
f 116//106 111//115 88//81
f 16//28 15//30 24//24
f 24//24 25//23 27//95
f 27//95 26//31 16//28
f 44//103 46//116 37//98
f 39//108 41//45 42//97
f 42//97 106//92 102//90
f 102//90 100//27 39//108
f 27//95 25//23 84//85
f 84//85 86//84 90//88
f 61//54 115//79 107//91
