# Blender 3.4.1
# www.blender.org
o Cylinder.009
v 137.006226 -3.678095 -100.226601
v 135.831909 -6.751531 -99.255180
v 136.458023 -4.690187 -100.111382
v 136.610657 -6.181568 -100.009659
v 135.633881 -1.194532 -97.316902
v 136.109314 -0.609879 -96.511353
v 137.219025 -2.553958 -95.142845
v 137.326279 -1.216232 -99.408302
v 137.076385 -2.614866 -99.902908
v 138.700912 -0.281137 -96.926651
v 135.309296 -6.304999 -97.757942
v 137.093140 -4.186301 -94.864838
v 136.957687 -6.150192 -95.183594
v 136.220718 -4.398057 -99.651695
v 136.161987 -7.903079 -98.930672
v 137.668655 -7.695298 -100.384521
v 136.185562 -10.524107 -98.773941
v 136.701736 -10.509100 -100.091232
v 135.847504 -9.638686 -97.682487
v 136.191498 -11.696277 -97.736977
v 137.042297 -12.427849 -96.978424
v 137.316162 -11.837892 -95.709190
v 138.421280 -12.628284 -96.450424
v 136.795090 -11.750156 -98.949593
v 137.627045 -13.210256 -98.158440
v 139.937378 -13.232479 -96.906853
v 138.262390 -1.693738 -95.380692
v 138.397995 -2.372315 -94.569687
v 139.812164 -2.917877 -93.499107
v 139.467712 -0.419663 -96.973656
v 140.791885 -2.215852 -93.645126
v 137.904953 -4.278388 -94.554985
v 137.524490 -5.900428 -94.133965
v 139.500275 -3.765118 -93.085358
v 139.450348 -5.216865 -92.538345
v 141.262085 -3.124218 -93.509026
v 140.671158 -4.420324 -92.510414
v 140.010880 -5.370570 -92.249443
v 141.454437 -3.866599 -93.436653
v 137.481491 -7.191260 -94.015434
v 138.745697 -7.012779 -92.211487
v 137.473419 -11.376388 -94.104706
v 138.506180 -12.016592 -93.900887
v 138.518311 -11.095313 -91.389214
v 138.876282 -12.084180 -92.083755
v 138.731506 -7.392104 -91.516609
v 138.881790 -10.346578 -90.692673
v 139.321533 -6.382274 -92.424278
v 137.896027 -11.979538 -94.861252
v 140.637222 -12.261402 -92.152779
v 140.592804 -12.983257 -95.624908
v 142.762024 -12.693811 -93.472908
v 140.161453 -6.773036 -91.722687
v 142.624298 -6.797007 -93.029549
v 142.561935 -8.279540 -92.870850
v 141.403976 -10.903534 -91.347153
v 143.346771 -10.186369 -92.711922
v 138.848816 -1.463895 -98.913437
v 138.075333 -2.003841 -100.371376
v 140.354507 -0.832220 -97.712364
v 140.931778 -1.060909 -98.016808
v 140.328995 -2.051871 -100.922775
v 141.504120 -1.516467 -100.629784
v 139.596771 -6.072349 -100.382469
v 140.724945 -5.958498 -100.272949
v 143.151123 -2.299312 -99.782768
v 143.773926 -5.665330 -99.385391
v 138.549179 -9.157441 -101.059097
v 138.244141 -11.373363 -101.199455
v 138.841827 -12.775761 -100.418671
v 140.975998 -7.355251 -100.452751
v 142.017426 -9.558772 -100.555649
v 143.195908 -7.753735 -99.648476
v 141.377853 -11.730014 -100.258804
v 140.738602 -12.512712 -100.111000
v 140.592087 -13.132215 -97.616547
v 142.275269 -11.401514 -100.077782
v 143.070328 -10.703344 -99.399628
v 143.529556 -7.228665 -99.516701
v 143.480270 -7.994960 -99.208885
v 140.708069 -0.437439 -96.856560
v 141.230515 -0.742722 -96.461716
v 141.786331 -1.905883 -95.190132
v 143.029404 -1.722095 -97.759598
v 142.997955 -1.930266 -96.388428
v 142.944305 -4.182254 -94.893761
v 143.133942 -5.393776 -94.994202
v 143.742722 -3.716279 -97.366432
v 143.363235 -4.039034 -96.202705
v 142.585281 -5.376114 -94.139618
v 143.814682 -4.126804 -98.255829
v 143.989624 -5.512465 -98.221405
v 143.393494 -7.039045 -97.275848
v 143.803909 -8.924846 -97.674126
v 142.889664 -6.959906 -96.238754
v 142.122284 -11.970757 -96.498322
v 143.788940 -10.756187 -95.532280
v 143.058975 -11.722402 -95.444298
v 142.841141 -6.834029 -94.086174
v 143.727325 -9.831867 -94.046982
v 143.678055 -7.133114 -98.246864
vn 0.6237 0.1475 0.7676
vn 0.8287 0.3055 0.4689
vn 0.6888 0.2511 0.6800
vn -0.5776 0.7226 0.3797
vn -0.2929 0.7446 -0.5999
vn -0.8970 0.4359 -0.0733
vn -0.6505 0.0224 -0.7592
vn -0.5966 -0.1359 -0.7910
vn -0.8550 0.1433 -0.4985
vn -0.5866 -0.7280 0.3548
vn -0.7019 -0.6394 0.3137
vn -0.9239 -0.3827 0.0055
vn -0.4080 -0.9092 -0.0835
vn -0.3929 -0.5884 0.7067
vn 0.1039 -0.9858 0.1322
vn 0.7399 0.4059 -0.5364
vn 0.5737 -0.0525 -0.8174
vn 0.1984 0.0040 -0.9801
vn 0.0828 0.9945 0.0647
vn 0.0648 0.8877 -0.4558
vn 0.0518 0.9136 -0.4033
vn -0.5520 0.2702 0.7889
vn 0.2263 0.3968 0.8896
vn -0.4289 0.4622 0.7761
vn 0.4958 0.4014 0.7701
vn -0.2784 0.4520 0.8474
vn 0.8213 0.1900 0.5379
vn 0.7655 0.5545 0.3266
vn 0.1964 0.6138 0.7647
vn -0.8230 -0.4722 0.3157
vn -0.3525 -0.8221 0.4470
vn -0.6756 -0.3843 0.6292
vn 0.9594 0.0379 0.2794
vn 0.9714 -0.0477 0.2324
vn 0.9806 0.0361 0.1927
vn -0.2964 -0.2911 -0.9096
vn -0.7618 -0.5019 -0.4095
vn -0.1713 0.0924 -0.9809
vn -0.6438 -0.0443 -0.7639
vn -0.1500 0.2519 -0.9561
vn -0.5192 0.6467 0.5588
vn 0.1129 0.3369 0.9348
vn -0.4892 0.3945 0.7778
vn 0.3537 -0.7615 -0.5432
vn 0.0195 -0.9974 0.0690
vn 0.1095 0.9133 -0.3924
vn -0.0206 0.4335 -0.9009
vn -0.2275 0.5012 -0.8349
vn -0.7198 -0.2039 -0.6636
vn -0.9440 -0.2798 -0.1750
vn -0.9850 -0.1663 0.0454
vn 0.1481 0.0560 -0.9874
vn 0.4226 -0.0165 -0.9061
vn 0.2362 0.1700 -0.9567
vn -0.7662 -0.1631 -0.6215
vn 0.2843 -0.3177 -0.9046
vn 0.8376 -0.3593 -0.4115
vn 0.2722 0.8783 0.3931
vn 0.7165 0.6926 -0.0832
vn 0.9305 0.2644 -0.2535
vn 0.8470 0.0055 -0.5316
vn 0.9739 0.1546 0.1664
vn 0.1552 0.9792 0.1305
vn -0.1922 0.6892 0.6986
vn -0.5707 0.2491 0.7825
vn -0.3629 -0.1269 0.9232
vn -0.5073 0.4471 0.7367
vn 0.9986 -0.0209 -0.0496
vn 0.8965 -0.1454 -0.4186
vn -0.6052 0.2507 -0.7555
vn 0.3841 0.8032 0.4553
vn 0.9479 0.3104 -0.0720
vn 0.5558 -0.7942 0.2456
vn 0.7181 -0.6860 -0.1171
vn -0.5684 0.1927 0.7999
vn 0.4867 -0.8651 -0.1217
vn 0.6001 -0.5123 -0.6143
vn 0.8221 0.0023 0.5694
vn 0.7763 0.2566 0.5758
vn 0.9482 0.0641 0.3112
vn 0.0744 0.9830 0.1677
vn -0.2928 0.9335 0.2071
vn -0.9971 -0.0054 0.0765
vn -0.8437 0.1141 0.5246
vn -0.4638 -0.8499 0.2502
vn -0.7912 -0.1663 -0.5886
vn 0.9946 -0.0478 0.0918
vn 0.7875 0.6009 0.1369
vn 0.3754 -0.2306 0.8977
vn 0.0427 -0.8102 0.5846
vn 0.3043 -0.9430 -0.1348
vn -0.3732 -0.9162 0.1458
vn 0.2414 0.6289 -0.7391
vn 0.7704 -0.1167 -0.6268
vn -0.2583 0.3562 0.8980
vn -0.1400 -0.7925 -0.5936
vn 0.9703 0.0381 0.2388
vn 0.9528 -0.2873 0.0986
vn -0.8003 0.0634 0.5962
vn -0.8193 0.2247 0.5275
vn -0.8669 0.0981 0.4887
s 1
f 54//1 90//2 39//3
f 6//4 8//5 5//6
f 3//7 4//8 14//9
f 21//10 22//11 20//12
f 20//12 25//13 21//10
f 23//14 21//10 51//15
f 66//16 73//17 65//18
f 30//19 60//20 58//21
f 35//22 37//23 34//24
f 37//23 36//25 34//24
f 36//25 29//26 34//24
f 86//27 85//28 31//29
f 42//30 45//31 44//32
f 89//33 87//34 99//35
f 69//36 25//13 24//37
f 68//38 16//39 1//40
f 41//41 53//42 48//43
f 75//44 26//45 25//13
f 61//46 62//47 59//48
f 15//49 17//50 19//51
f 39//3 87//34 86//27
f 62//47 64//52 59//48
f 73//17 72//53 71//54
f 18//55 15//49 16//39
f 75//44 69//36 74//56
f 78//57 72//53 73//17
f 82//58 85//28 84//59
f 91//60 67//61 84//59
f 85//28 88//62 84//59
f 66//16 61//46 81//63
f 31//29 27//64 7//65
f 47//66 53//42 46//67
f 94//68 80//69 67//61
f 8//5 59//48 9//70
f 83//71 81//63 30//19
f 100//72 52//73 98//74
f 32//75 48//43 35//22
f 96//76 77//77 98//74
f 57//78 100//72 55//79
f 93//80 99//35 55//79
f 27//64 10//81 6//4
f 7//65 32//75 28//82
f 11//83 44//32 13//84
f 19//51 22//11 42//30
f 22//11 49//85 42//30
f 69//36 72//53 77//77
f 4//8 15//49 2//86
f 92//87 88//62 95//88
f 52//73 56//89 50//90
f 45//31 56//89 47//66
f 55//79 37//23 53//42
f 5//6 9//70 14//9
f 68//38 64//52 71//54
f 76//91 51//15 26//45
f 54//1 99//35 90//2
f 6//4 10//81 8//5
f 21//10 23//14 22//11
f 20//12 24//37 25//13
f 52//73 50//90 45//31
f 43//92 42//30 49//85
f 52//73 45//31 43//92
f 25//13 26//45 51//15
f 51//15 52//73 43//92
f 49//85 22//11 23//14
f 51//15 43//92 49//85
f 21//10 25//13 51//15
f 51//15 49//85 23//14
f 62//47 63//93 66//16
f 66//16 67//61 79//94
f 79//94 80//69 73//17
f 73//17 71//54 65//18
f 65//18 62//47 66//16
f 66//16 79//94 73//17
f 8//5 10//81 30//19
f 30//19 81//63 60//20
f 60//20 61//46 59//48
f 58//21 8//5 30//19
f 60//20 59//48 58//21
f 35//22 38//95 37//23
f 37//23 39//3 36//25
f 36//25 31//29 29//26
f 31//29 36//25 86//27
f 86//27 89//33 85//28
f 85//28 83//71 31//29
f 42//30 43//92 45//31
f 99//35 95//88 89//33
f 89//33 86//27 87//34
f 87//34 90//2 99//35
f 24//37 18//55 69//36
f 69//36 70//96 25//13
f 9//70 59//48 68//38
f 68//38 69//36 18//55
f 16//39 4//8 3//7
f 68//38 18//55 16//39
f 1//40 9//70 68//38
f 16//39 3//7 1//40
f 41//41 46//67 53//42
f 25//13 70//96 75//44
f 75//44 76//91 26//45
f 61//46 63//93 62//47
f 17//50 18//55 24//37
f 24//37 20//12 19//51
f 19//51 11//83 2//86
f 19//51 2//86 15//49
f 17//50 24//37 19//51
f 86//27 36//25 39//3
f 39//3 90//2 87//34
f 62//47 65//18 64//52
f 18//55 17//50 15//49
f 75//44 70//96 69//36
f 78//57 77//77 72//53
f 82//58 83//71 85//28
f 91//60 92//87 67//61
f 67//61 66//16 84//59
f 84//59 88//62 91//60
f 85//28 89//33 88//62
f 82//58 84//59 66//16
f 66//16 63//93 61//46
f 61//46 60//20 81//63
f 81//63 82//58 66//16
f 28//82 29//26 31//29
f 31//29 30//19 27//64
f 27//64 6//4 7//65
f 7//65 28//82 31//29
f 47//66 56//89 53//42
f 67//61 92//87 101//97
f 101//97 93//80 94//68
f 94//68 97//98 78//57
f 78//57 73//17 80//69
f 80//69 79//94 67//61
f 67//61 101//97 94//68
f 94//68 78//57 80//69
f 8//5 58//21 59//48
f 30//19 31//29 83//71
f 83//71 82//58 81//63
f 98//74 97//98 100//72
f 100//72 57//78 52//73
f 29//26 28//82 32//75
f 32//75 12//99 13//84
f 33//100 40//101 41//41
f 32//75 13//84 33//100
f 34//24 29//26 32//75
f 53//42 38//95 35//22
f 35//22 34//24 32//75
f 32//75 33//100 41//41
f 48//43 53//42 35//22
f 32//75 41//41 48//43
f 96//76 76//91 75//44
f 75//44 74//56 77//77
f 77//77 78//57 97//98
f 98//74 52//73 51//15
f 77//77 97//98 98//74
f 96//76 75//44 77//77
f 98//74 51//15 96//76
f 55//79 100//72 97//98
f 97//98 94//68 93//80
f 93//80 95//88 99//35
f 99//35 54//1 55//79
f 55//79 97//98 93//80
f 27//64 30//19 10//81
f 7//65 12//99 32//75
f 6//4 5//6 11//83
f 11//83 19//51 44//32
f 44//32 47//66 46//67
f 46//67 41//41 40//101
f 40//101 33//100 13//84
f 13//84 12//99 7//65
f 7//65 6//4 11//83
f 44//32 46//67 40//101
f 13//84 7//65 11//83
f 44//32 40//101 13//84
f 42//30 44//32 19//51
f 19//51 20//12 22//11
f 77//77 74//56 69//36
f 69//36 68//38 72//53
f 4//8 16//39 15//49
f 93//80 101//97 92//87
f 92//87 91//60 88//62
f 88//62 89//33 95//88
f 95//88 93//80 92//87
f 52//73 57//78 56//89
f 47//66 44//32 45//31
f 45//31 50//90 56//89
f 53//42 56//89 57//78
f 55//79 54//1 39//3
f 53//42 57//78 55//79
f 37//23 38//95 53//42
f 55//79 39//3 37//23
f 2//86 11//83 5//6
f 5//6 8//5 9//70
f 9//70 1//40 3//7
f 14//9 4//8 2//86
f 9//70 3//7 14//9
f 14//9 2//86 5//6
f 68//38 59//48 64//52
f 64//52 65//18 71//54
f 71//54 72//53 68//38
f 76//91 96//76 51//15
