# Blender 3.4.1
# www.blender.org
o Cylinder.003
v 68.094086 -1.408119 15.339963
v 68.094086 0.293182 15.008350
v 67.668762 -1.408119 15.225997
v 67.834564 0.293182 14.938812
v 67.357399 -1.408119 14.914638
v 67.644585 0.293182 14.748832
v 67.243439 -1.408119 14.489312
v 67.575050 0.293182 14.489312
v 67.357399 -1.408119 14.063987
v 67.644585 0.293182 14.229793
v 67.668762 -1.408119 13.752627
v 67.834564 0.293182 14.039812
v 68.094086 -1.408119 13.638661
v 68.094086 0.293182 13.970274
v 68.519409 -1.408119 13.752627
v 68.353607 0.293182 14.039812
v 68.830772 -1.408119 14.063987
v 68.543587 0.293182 14.229793
v 68.944733 -1.408119 14.489312
v 68.613121 0.293182 14.489312
v 68.830772 -1.408119 14.914638
v 68.543587 0.293182 14.748832
v 68.519409 -1.408119 15.225997
v 68.353607 0.293182 14.938812
v 67.668762 0.293182 15.225997
v 68.094086 0.293182 15.339963
v 67.357399 0.293182 14.914638
v 67.243439 0.293182 14.489312
v 67.357399 0.293182 14.063987
v 67.668762 0.293182 13.752627
v 68.094086 0.293182 13.638661
v 68.519409 0.293182 13.752627
v 68.830772 0.293182 14.063987
v 68.944733 0.293182 14.489312
v 68.830772 0.293182 14.914638
v 68.519409 0.293182 15.225997
v 67.834564 -0.666918 14.938812
v 68.094086 -0.666918 15.008350
v 67.644585 -0.666918 14.748832
v 67.575050 -0.666918 14.489312
v 67.644585 -0.666918 14.229793
v 67.834564 -0.666918 14.039812
v 68.094086 -0.666918 13.970274
v 68.353607 -0.666918 14.039812
v 68.543587 -0.666918 14.229793
v 68.613121 -0.666918 14.489312
v 68.543587 -0.666918 14.748832
v 68.353607 -0.666918 14.938812
vn -0.2588 -0.0000 0.9659
vn -0.7071 -0.0000 0.7071
vn -0.9659 -0.0000 0.2588
vn -0.9659 -0.0000 -0.2588
vn -0.7071 -0.0000 -0.7071
vn -0.2588 -0.0000 -0.9659
vn 0.2588 -0.0000 -0.9659
vn 0.7071 -0.0000 -0.7071
vn 0.9659 -0.0000 -0.2588
vn 0.9659 -0.0000 0.2588
vn 0.2588 -0.0000 0.9659
vn 0.7071 -0.0000 0.7071
vn -0.0000 -1.0000 -0.0000
vn -0.0000 1.0000 -0.0000
vt 1.000000 0.500000
vt 0.000000 0.500000
vt 0.750000 0.490000
vt 0.250000 0.396440
vt 0.916667 0.500000
vt 0.870000 0.457846
vt 0.323220 0.376821
vt 0.833333 0.500000
vt 0.957846 0.370000
vt 0.376821 0.323220
vt 0.750000 0.500000
vt 0.990000 0.250000
vt 0.396440 0.250000
vt 0.666667 0.500000
vt 0.957846 0.130000
vt 0.376821 0.176780
vt 0.583333 0.500000
vt 0.870000 0.042154
vt 0.323220 0.123179
vt 0.500000 0.500000
vt 0.750000 0.010000
vt 0.250000 0.103560
vt 0.416667 0.500000
vt 0.630000 0.042154
vt 0.176780 0.123179
vt 0.333333 0.500000
vt 0.542154 0.130000
vt 0.123179 0.176780
vt 0.250000 0.500000
vt 0.510000 0.250000
vt 0.103560 0.250000
vt 0.166667 0.500000
vt 0.542154 0.370000
vt 0.123179 0.323220
vt 0.083333 0.500000
vt 0.630000 0.457846
vt 0.176780 0.376821
vt 0.916667 1.000000
vt 0.370000 0.457846
vt 1.000000 1.000000
vt 0.000000 1.000000
vt 0.250000 0.490000
vt 0.833333 1.000000
vt 0.457846 0.370000
vt 0.750000 1.000000
vt 0.490000 0.250000
vt 0.666667 1.000000
vt 0.457846 0.130000
vt 0.583333 1.000000
vt 0.370000 0.042154
vt 0.500000 1.000000
vt 0.250000 0.010000
vt 0.416667 1.000000
vt 0.130000 0.042154
vt 0.333333 1.000000
vt 0.042154 0.130000
vt 0.250000 1.000000
vt 0.010000 0.250000
vt 0.166667 1.000000
vt 0.042154 0.370000
vt 0.083333 1.000000
vt 0.130000 0.457846
vt 0.323220 0.376821
vt 0.250000 0.396440
vt 0.376821 0.323220
vt 0.396440 0.250000
vt 0.376821 0.176780
vt 0.323220 0.123179
vt 0.250000 0.103560
vt 0.176780 0.123179
vt 0.123179 0.176780
vt 0.103560 0.250000
vt 0.123179 0.323220
vt 0.176780 0.376821
s 0
f 26/40/1 3/5/1 1/1/1
f 25/38/2 5/8/2 3/5/2
f 27/43/3 7/11/3 5/8/3
f 28/45/4 9/14/4 7/11/4
f 29/47/5 11/17/5 9/14/5
f 30/49/6 13/20/6 11/17/6
f 31/51/7 15/23/7 13/20/7
f 32/53/8 17/26/8 15/23/8
f 33/55/9 19/29/9 17/26/9
f 34/57/10 21/32/10 19/29/10
f 12/19/11 43/69/11 14/22/11
f 35/59/12 23/35/12 21/32/12
f 36/61/11 1/2/11 23/35/11
f 7/12/13 15/24/13 23/36/13
f 4/7/14 26/42/14 2/4/14
f 6/10/14 25/39/14 4/7/14
f 8/13/14 27/44/14 6/10/14
f 10/16/14 28/46/14 8/13/14
f 12/19/14 29/48/14 10/16/14
f 14/22/14 30/50/14 12/19/14
f 16/25/14 31/52/14 14/22/14
f 18/28/14 32/54/14 16/25/14
f 20/31/14 33/56/14 18/28/14
f 22/34/14 34/58/14 20/31/14
f 24/37/14 35/60/14 22/34/14
f 2/4/14 36/62/14 24/37/14
f 47/73/14 43/69/14 39/65/14
f 8/13/9 39/65/9 40/66/9
f 20/31/4 47/73/4 22/34/4
f 14/22/1 44/70/1 16/25/1
f 8/13/10 41/67/10 10/16/10
f 22/34/5 48/74/5 24/37/5
f 2/4/7 37/63/7 4/7/7
f 16/25/2 45/71/2 18/28/2
f 10/16/12 42/68/12 12/19/12
f 24/37/6 38/64/6 2/4/6
f 4/7/8 39/65/8 6/10/8
f 18/28/3 46/72/3 20/31/3
f 26/40/1 25/38/1 3/5/1
f 25/38/2 27/43/2 5/8/2
f 27/43/3 28/45/3 7/11/3
f 28/45/4 29/47/4 9/14/4
f 29/47/5 30/49/5 11/17/5
f 30/49/6 31/51/6 13/20/6
f 31/51/7 32/53/7 15/23/7
f 32/53/8 33/55/8 17/26/8
f 33/55/9 34/57/9 19/29/9
f 34/57/10 35/59/10 21/32/10
f 12/19/11 42/68/11 43/69/11
f 35/59/12 36/61/12 23/35/12
f 36/61/11 26/41/11 1/2/11
f 23/36/13 1/3/13 3/6/13
f 3/6/13 5/9/13 7/12/13
f 7/12/13 9/15/13 11/18/13
f 11/18/13 13/21/13 15/24/13
f 15/24/13 17/27/13 19/30/13
f 19/30/13 21/33/13 23/36/13
f 23/36/13 3/6/13 7/12/13
f 7/12/13 11/18/13 15/24/13
f 15/24/13 19/30/13 23/36/13
f 4/7/14 25/39/14 26/42/14
f 6/10/14 27/44/14 25/39/14
f 8/13/14 28/46/14 27/44/14
f 10/16/14 29/48/14 28/46/14
f 12/19/14 30/50/14 29/48/14
f 14/22/14 31/52/14 30/50/14
f 16/25/14 32/54/14 31/52/14
f 18/28/14 33/56/14 32/54/14
f 20/31/14 34/58/14 33/56/14
f 22/34/14 35/60/14 34/58/14
f 24/37/14 36/62/14 35/60/14
f 2/4/14 26/42/14 36/62/14
f 39/65/14 37/63/14 38/64/14
f 38/64/14 48/74/14 47/73/14
f 47/73/14 46/72/14 45/71/14
f 45/71/14 44/70/14 43/69/14
f 43/69/14 42/68/14 41/67/14
f 41/67/14 40/66/14 39/65/14
f 39/65/14 38/64/14 47/73/14
f 47/73/14 45/71/14 43/69/14
f 43/69/14 41/67/14 39/65/14
f 8/13/9 6/10/9 39/65/9
f 20/31/4 46/72/4 47/73/4
f 14/22/1 43/69/1 44/70/1
f 8/13/10 40/66/10 41/67/10
f 22/34/5 47/73/5 48/74/5
f 2/4/7 38/64/7 37/63/7
f 16/25/2 44/70/2 45/71/2
f 10/16/12 41/67/12 42/68/12
f 24/37/6 48/74/6 38/64/6
f 4/7/8 37/63/8 39/65/8
f 18/28/3 45/71/3 46/72/3
